<svg width="1765" height="313" viewBox="0 0 1765 313" fill="none" xmlns="http://www.w3.org/2000/svg">
<path d="M882.982 175.893C882.664 170.933 878.386 167.169 873.425 167.486C868.465 167.804 864.701 172.082 865.018 177.043L882.982 175.893ZM890.982 300.893L882.982 175.893L865.018 177.043L873.018 302.043L890.982 300.893Z" fill="black"/>
<path d="M1703 214.136L1694.03 214.91L1703 214.136ZM1755.99 66.6444C1756.27 61.6817 1752.47 57.431 1747.51 57.1501C1742.55 56.8692 1738.3 60.6645 1738.01 65.6271L1755.99 66.6444ZM1764.82 292.59C1750.09 287.724 1716.42 264.891 1711.97 213.362L1694.03 214.91C1699.18 274.58 1738.58 302.881 1759.18 309.682L1764.82 292.59ZM1711.97 213.362C1710.56 197.024 1712.2 185.264 1715.28 175.611C1718.41 165.822 1723.15 157.767 1728.75 148.566C1740.16 129.828 1753.61 108.651 1755.99 66.6444L1738.01 65.6271C1735.89 103.121 1724.34 121.193 1713.38 139.205C1707.79 148.38 1701.99 158.074 1698.14 170.129C1694.24 182.32 1692.44 196.498 1694.03 214.91L1711.97 213.362Z" fill="black"/>
<path d="M62 214.136L70.9666 214.91L62 214.136ZM9.01438 66.6444C8.73348 61.6817 12.5288 57.431 17.4914 57.1501C22.454 56.8692 26.7047 60.6645 26.9856 65.6271L9.01438 66.6444ZM0.178149 292.59C14.913 287.724 48.5848 264.891 53.0334 213.362L70.9666 214.91C65.8152 274.58 26.4204 302.881 5.82185 309.682L0.178149 292.59ZM53.0334 213.362C54.4438 197.024 52.8032 185.264 49.7166 175.611C46.5867 165.822 41.8521 157.767 36.2502 148.566C24.8418 129.828 11.3921 108.651 9.01438 66.6444L26.9856 65.6271C29.1079 103.121 40.6582 121.193 51.6248 139.205C57.2104 148.38 63.007 158.074 66.8615 170.129C70.7593 182.32 72.5562 196.498 70.9666 214.91L53.0334 213.362Z" fill="black"/>
<path d="M1501 214.136L1492.03 214.91L1501 214.136ZM1553.99 66.6444C1554.27 61.6817 1550.47 57.431 1545.51 57.1501C1540.55 56.8692 1536.3 60.6645 1536.01 65.6271L1553.99 66.6444ZM1562.82 292.59C1548.09 287.724 1514.42 264.891 1509.97 213.362L1492.03 214.91C1497.18 274.58 1536.58 302.881 1557.18 309.682L1562.82 292.59ZM1509.97 213.362C1508.56 197.024 1510.2 185.264 1513.28 175.611C1516.41 165.822 1521.15 157.767 1526.75 148.566C1538.16 129.828 1551.61 108.651 1553.99 66.6444L1536.01 65.6271C1533.89 103.121 1522.34 121.193 1511.38 139.205C1505.79 148.38 1499.99 158.074 1496.14 170.129C1492.24 182.32 1490.44 196.498 1492.03 214.91L1509.97 213.362Z" fill="black"/>
<path d="M264 214.136L272.967 214.91L264 214.136ZM211.014 66.6444C210.733 61.6817 214.529 57.431 219.491 57.1501C224.454 56.8692 228.705 60.6645 228.986 65.6271L211.014 66.6444ZM202.178 292.59C216.913 287.724 250.585 264.891 255.033 213.362L272.967 214.91C267.815 274.58 228.42 302.881 207.822 309.682L202.178 292.59ZM255.033 213.362C256.444 197.024 254.803 185.264 251.717 175.611C248.587 165.822 243.852 157.767 238.25 148.566C226.842 129.828 213.392 108.651 211.014 66.6444L228.986 65.6271C231.108 103.121 242.658 121.193 253.625 139.205C259.21 148.38 265.007 158.074 268.862 170.129C272.759 182.32 274.556 196.498 272.967 214.91L255.033 213.362Z" fill="black"/>
<path d="M1240 214.136L1231.03 214.91L1240 214.136ZM1292.99 66.6444C1293.27 61.6817 1289.47 57.431 1284.51 57.1501C1279.55 56.8692 1275.3 60.6645 1275.01 65.6271L1292.99 66.6444ZM1301.82 292.59C1287.09 287.724 1253.42 264.891 1248.97 213.362L1231.03 214.91C1236.18 274.58 1275.58 302.881 1296.18 309.682L1301.82 292.59ZM1248.97 213.362C1247.56 197.024 1249.2 185.264 1252.28 175.611C1255.41 165.822 1260.15 157.767 1265.75 148.566C1277.16 129.828 1290.61 108.651 1292.99 66.6444L1275.01 65.6271C1272.89 103.121 1261.34 121.193 1250.38 139.205C1244.79 148.38 1238.99 158.074 1235.14 170.129C1231.24 182.32 1229.44 196.498 1231.03 214.91L1248.97 213.362Z" fill="black"/>
<path d="M525 214.136L533.967 214.91L525 214.136ZM472.014 66.6444C471.733 61.6817 475.529 57.431 480.491 57.1501C485.454 56.8692 489.705 60.6645 489.986 65.6271L472.014 66.6444ZM463.178 292.59C477.913 287.724 511.585 264.891 516.033 213.362L533.967 214.91C528.815 274.58 489.42 302.881 468.822 309.682L463.178 292.59ZM516.033 213.362C517.444 197.024 515.803 185.264 512.717 175.611C509.587 165.822 504.852 157.767 499.25 148.566C487.842 129.828 474.392 108.651 472.014 66.6444L489.986 65.6271C492.108 103.121 503.658 121.193 514.625 139.205C520.21 148.38 526.007 158.074 529.862 170.129C533.759 182.32 535.556 196.498 533.967 214.91L516.033 213.362Z" fill="black"/>
<path d="M993 214.136L984.033 214.91L993 214.136ZM1045.99 66.6444C1046.27 61.6817 1042.47 57.431 1037.51 57.1501C1032.55 56.8692 1028.3 60.6645 1028.01 65.6271L1045.99 66.6444ZM1054.82 292.59C1040.09 287.724 1006.42 264.891 1001.97 213.362L984.033 214.91C989.185 274.58 1028.58 302.881 1049.18 309.682L1054.82 292.59ZM1001.97 213.362C1000.56 197.024 1002.2 185.264 1005.28 175.611C1008.41 165.822 1013.15 157.767 1018.75 148.566C1030.16 129.828 1043.61 108.651 1045.99 66.6444L1028.01 65.6271C1025.89 103.121 1014.34 121.193 1003.38 139.205C997.79 148.38 991.993 158.074 988.138 170.129C984.241 182.32 982.444 196.498 984.033 214.91L1001.97 213.362Z" fill="black"/>
<path d="M772 214.136L780.967 214.91L772 214.136ZM719.014 66.6444C718.733 61.6817 722.529 57.431 727.491 57.1501C732.454 56.8692 736.705 60.6645 736.986 65.6271L719.014 66.6444ZM710.178 292.59C724.913 287.724 758.585 264.891 763.033 213.362L780.967 214.91C775.815 274.58 736.42 302.881 715.822 309.682L710.178 292.59ZM763.033 213.362C764.444 197.024 762.803 185.264 759.717 175.611C756.587 165.822 751.852 157.767 746.25 148.566C734.842 129.828 721.392 108.651 719.014 66.6444L736.986 65.6271C739.108 103.121 750.658 121.193 761.625 139.205C767.21 148.38 773.007 158.074 776.862 170.129C780.759 182.32 782.556 196.498 780.967 214.91L763.033 213.362Z" fill="black"/>
<path d="M1640 241.136L1631.12 242.576L1640 241.136ZM1625 81.1357C1625 76.1652 1620.97 72.1357 1616 72.1357C1611.03 72.1357 1607 76.1652 1607 81.1357H1625ZM1659.31 293.275C1656.8 281.425 1651.24 254.255 1648.88 239.695L1631.12 242.576C1633.55 257.616 1639.2 285.18 1641.69 296.996L1659.31 293.275ZM1648.88 239.695C1648.45 236.996 1649.04 231.2 1651.02 222.119C1652.9 213.491 1655.69 203.338 1658.62 192.635C1661.51 182.056 1664.53 170.98 1666.72 160.928C1668.87 151.072 1670.44 141.31 1669.98 133.607L1652.02 134.664C1652.31 139.711 1651.25 147.387 1649.14 157.093C1647.06 166.604 1644.17 177.215 1641.26 187.886C1638.37 198.434 1635.44 209.093 1633.43 218.278C1631.53 227.009 1630.05 236.025 1631.12 242.576L1648.88 239.695ZM1669.98 133.607C1669.44 124.349 1664.98 117.457 1659.61 112.231C1654.49 107.245 1647.99 103.288 1642.69 99.9917C1636.96 96.4315 1632.45 93.5455 1629.24 90.2792C1626.31 87.3033 1625 84.5452 1625 81.1357H1607C1607 90.4763 1611.13 97.5307 1616.4 102.898C1621.39 107.976 1627.85 111.965 1633.19 115.28C1638.95 118.859 1643.61 121.776 1647.06 125.134C1650.27 128.252 1651.81 131.172 1652.02 134.664L1669.98 133.607Z" fill="black"/>
<path d="M125 241.136L133.884 242.576L125 241.136ZM140 81.1357C140 76.1652 144.029 72.1357 149 72.1357C153.971 72.1357 158 76.1652 158 81.1357H140ZM105.695 293.275C108.198 281.425 113.755 254.255 116.116 239.695L133.884 242.576C131.445 257.616 125.802 285.18 123.306 296.996L105.695 293.275ZM116.116 239.695C116.554 236.996 115.964 231.2 113.981 222.119C112.097 213.491 109.309 203.338 106.382 192.635C103.488 182.056 100.469 170.98 98.2772 160.928C96.128 151.072 94.5627 141.31 95.0158 133.607L112.985 134.664C112.688 139.711 113.748 147.387 115.864 157.093C117.938 166.604 120.825 177.215 123.744 187.886C126.629 198.434 129.56 209.093 131.566 218.278C133.474 227.009 134.947 236.025 133.884 242.576L116.116 239.695ZM95.0158 133.607C95.5604 124.349 100.017 117.457 105.389 112.231C110.515 107.245 117.008 103.288 122.312 99.9917C128.041 96.4315 132.551 93.5455 135.762 90.2792C138.688 87.3033 140 84.5452 140 81.1357H158C158 90.4763 153.875 97.5307 148.598 102.898C143.606 107.976 137.147 111.965 131.813 115.28C126.055 118.859 121.392 121.776 117.94 125.134C114.734 128.252 113.19 131.172 112.985 134.664L95.0158 133.607Z" fill="black"/>
<path d="M1438 241.136L1429.12 242.576L1438 241.136ZM1423 81.1357C1423 76.1652 1418.97 72.1357 1414 72.1357C1409.03 72.1357 1405 76.1652 1405 81.1357H1423ZM1457.31 293.275C1454.8 281.425 1449.24 254.255 1446.88 239.695L1429.12 242.576C1431.55 257.616 1437.2 285.18 1439.69 296.996L1457.31 293.275ZM1446.88 239.695C1446.45 236.996 1447.04 231.2 1449.02 222.119C1450.9 213.491 1453.69 203.338 1456.62 192.635C1459.51 182.056 1462.53 170.98 1464.72 160.928C1466.87 151.072 1468.44 141.31 1467.98 133.607L1450.02 134.664C1450.31 139.711 1449.25 147.387 1447.14 157.093C1445.06 166.604 1442.17 177.215 1439.26 187.886C1436.37 198.434 1433.44 209.093 1431.43 218.278C1429.53 227.009 1428.05 236.025 1429.12 242.576L1446.88 239.695ZM1467.98 133.607C1467.44 124.349 1462.98 117.457 1457.61 112.231C1452.49 107.245 1445.99 103.288 1440.69 99.9917C1434.96 96.4315 1430.45 93.5455 1427.24 90.2792C1424.31 87.3033 1423 84.5452 1423 81.1357H1405C1405 90.4763 1409.13 97.5307 1414.4 102.898C1419.39 107.976 1425.85 111.965 1431.19 115.28C1436.95 118.859 1441.61 121.776 1445.06 125.134C1448.27 128.252 1449.81 131.172 1450.02 134.664L1467.98 133.607Z" fill="black"/>
<path d="M327 241.136L335.884 242.576L327 241.136ZM342 81.1357C342 76.1652 346.029 72.1357 351 72.1357C355.971 72.1357 360 76.1652 360 81.1357H342ZM307.695 293.275C310.198 281.425 315.755 254.255 318.116 239.695L335.884 242.576C333.445 257.616 327.802 285.18 325.306 296.996L307.695 293.275ZM318.116 239.695C318.554 236.996 317.964 231.2 315.981 222.119C314.097 213.491 311.309 203.338 308.382 192.635C305.488 182.056 302.469 170.98 300.277 160.928C298.128 151.072 296.563 141.31 297.016 133.607L314.985 134.664C314.688 139.711 315.748 147.387 317.864 157.093C319.938 166.604 322.825 177.215 325.744 187.886C328.629 198.434 331.56 209.093 333.566 218.278C335.474 227.009 336.947 236.025 335.884 242.576L318.116 239.695ZM297.016 133.607C297.56 124.349 302.017 117.457 307.389 112.231C312.515 107.245 319.008 103.288 324.312 99.9917C330.041 96.4315 334.551 93.5455 337.762 90.2792C340.688 87.3033 342 84.5452 342 81.1357H360C360 90.4763 355.875 97.5307 350.598 102.898C345.606 107.976 339.147 111.965 333.813 115.28C328.055 118.859 323.392 121.776 319.94 125.134C316.734 128.252 315.19 131.172 314.985 134.664L297.016 133.607Z" fill="black"/>
<path d="M1177 241.136L1168.12 242.576L1177 241.136ZM1162 81.1357C1162 76.1652 1157.97 72.1357 1153 72.1357C1148.03 72.1357 1144 76.1652 1144 81.1357H1162ZM1196.31 293.275C1193.8 281.425 1188.24 254.255 1185.88 239.695L1168.12 242.576C1170.55 257.616 1176.2 285.18 1178.69 296.996L1196.31 293.275ZM1185.88 239.695C1185.45 236.996 1186.04 231.2 1188.02 222.119C1189.9 213.491 1192.69 203.338 1195.62 192.635C1198.51 182.056 1201.53 170.98 1203.72 160.928C1205.87 151.072 1207.44 141.31 1206.98 133.607L1189.02 134.664C1189.31 139.711 1188.25 147.387 1186.14 157.093C1184.06 166.604 1181.17 177.215 1178.26 187.886C1175.37 198.434 1172.44 209.093 1170.43 218.278C1168.53 227.009 1167.05 236.025 1168.12 242.576L1185.88 239.695ZM1206.98 133.607C1206.44 124.349 1201.98 117.457 1196.61 112.231C1191.49 107.245 1184.99 103.288 1179.69 99.9917C1173.96 96.4315 1169.45 93.5455 1166.24 90.2792C1163.31 87.3033 1162 84.5452 1162 81.1357H1144C1144 90.4763 1148.13 97.5307 1153.4 102.898C1158.39 107.976 1164.85 111.965 1170.19 115.28C1175.95 118.859 1180.61 121.776 1184.06 125.134C1187.27 128.252 1188.81 131.172 1189.02 134.664L1206.98 133.607Z" fill="black"/>
<path d="M588 241.136L596.884 242.576L588 241.136ZM603 81.1357C603 76.1652 607.029 72.1357 612 72.1357C616.971 72.1357 621 76.1652 621 81.1357H603ZM568.695 293.275C571.198 281.425 576.755 254.255 579.116 239.695L596.884 242.576C594.445 257.616 588.802 285.18 586.306 296.996L568.695 293.275ZM579.116 239.695C579.554 236.996 578.964 231.2 576.981 222.119C575.097 213.491 572.309 203.338 569.382 192.635C566.488 182.056 563.469 170.98 561.277 160.928C559.128 151.072 557.563 141.31 558.016 133.607L575.985 134.664C575.688 139.711 576.748 147.387 578.864 157.093C580.938 166.604 583.825 177.215 586.744 187.886C589.629 198.434 592.56 209.093 594.566 218.278C596.474 227.009 597.947 236.025 596.884 242.576L579.116 239.695ZM558.016 133.607C558.56 124.349 563.017 117.457 568.389 112.231C573.515 107.245 580.008 103.288 585.312 99.9917C591.041 96.4315 595.551 93.5455 598.762 90.2792C601.688 87.3033 603 84.5452 603 81.1357H621C621 90.4763 616.875 97.5307 611.598 102.898C606.606 107.976 600.147 111.965 594.813 115.28C589.055 118.859 584.392 121.776 580.94 125.134C577.734 128.252 576.19 131.172 575.985 134.664L558.016 133.607Z" fill="black"/>
<path d="M930 241.136L921.116 242.576L930 241.136ZM915 81.1357C915 76.1652 910.971 72.1357 906 72.1357C901.029 72.1357 897 76.1652 897 81.1357H915ZM949.305 293.275C946.802 281.425 941.245 254.255 938.884 239.695L921.116 242.576C923.555 257.616 929.198 285.18 931.694 296.996L949.305 293.275ZM938.884 239.695C938.446 236.996 939.036 231.2 941.019 222.119C942.903 213.491 945.691 203.338 948.618 192.635C951.512 182.056 954.531 170.98 956.723 160.928C958.872 151.072 960.437 141.31 959.984 133.607L942.015 134.664C942.312 139.711 941.252 147.387 939.136 157.093C937.062 166.604 934.175 177.215 931.256 187.886C928.371 198.434 925.44 209.093 923.434 218.278C921.526 227.009 920.053 236.025 921.116 242.576L938.884 239.695ZM959.984 133.607C959.44 124.349 954.983 117.457 949.611 112.231C944.485 107.245 937.992 103.288 932.688 99.9917C926.959 96.4315 922.449 93.5455 919.238 90.2792C916.312 87.3033 915 84.5452 915 81.1357H897C897 90.4763 901.125 97.5307 906.402 102.898C911.394 107.976 917.853 111.965 923.187 115.28C928.945 118.859 933.608 121.776 937.06 125.134C940.266 128.252 941.81 131.172 942.015 134.664L959.984 133.607Z" fill="black"/>
<path d="M835 241.136L843.884 242.576L835 241.136ZM850 81.1357C850 76.1652 854.029 72.1357 859 72.1357C863.971 72.1357 868 76.1652 868 81.1357H850ZM815.695 293.275C818.198 281.425 823.755 254.255 826.116 239.695L843.884 242.576C841.445 257.616 835.802 285.18 833.306 296.996L815.695 293.275ZM826.116 239.695C826.554 236.996 825.964 231.2 823.981 222.119C822.097 213.491 819.309 203.338 816.382 192.635C813.488 182.056 810.469 170.98 808.277 160.928C806.128 151.072 804.563 141.31 805.016 133.607L822.985 134.664C822.688 139.711 823.748 147.387 825.864 157.093C827.938 166.604 830.825 177.215 833.744 187.886C836.629 198.434 839.56 209.093 841.566 218.278C843.474 227.009 844.947 236.025 843.884 242.576L826.116 239.695ZM805.016 133.607C805.56 124.349 810.017 117.457 815.389 112.231C820.515 107.245 827.008 103.288 832.312 99.9917C838.041 96.4315 842.551 93.5455 845.762 90.2792C848.688 87.3033 850 84.5452 850 81.1357H868C868 90.4763 863.875 97.5307 858.598 102.898C853.606 107.976 847.147 111.965 841.813 115.28C836.055 118.859 831.392 121.776 827.94 125.134C824.734 128.252 823.19 131.172 822.985 134.664L805.016 133.607Z" fill="black"/>
<path d="M1378 244.136L1369.24 246.215L1378 244.136ZM1346.5 144.636L1355.38 146.081L1346.5 144.636ZM1365.97 26.3561C1365.54 21.4042 1361.17 17.739 1356.22 18.1696C1351.27 18.6002 1347.6 22.9635 1348.03 27.9154L1365.97 26.3561ZM1373.01 310.124C1376.02 312.136 1381.99 314.259 1387.58 310.056C1391.99 306.742 1393.41 301.224 1393.95 296.669C1395.11 286.831 1393.38 269.942 1386.76 242.057L1369.24 246.215C1375.82 273.93 1376.84 288.124 1376.07 294.553C1375.65 298.131 1374.94 297.042 1376.77 295.666C1379.78 293.4 1382.73 294.97 1382.99 295.147L1373.01 310.124ZM1386.76 242.057C1382.45 223.922 1377.15 212.856 1371.3 205.389C1365.6 198.117 1359.15 194.379 1356.51 192.335C1355.12 191.251 1354.41 190.491 1353.9 189.639C1353.38 188.769 1352.72 187.237 1352.33 184.244C1351.49 177.884 1352.02 166.785 1355.38 146.081L1337.62 143.191C1334.23 163.987 1333.26 177.388 1334.48 186.606C1335.12 191.402 1336.39 195.428 1338.47 198.896C1340.56 202.382 1343.13 204.739 1345.49 206.562C1350.35 210.33 1353.27 211.561 1357.13 216.492C1360.85 221.228 1365.3 229.6 1369.24 246.215L1386.76 242.057ZM1355.38 146.081C1366.23 79.4053 1367.06 38.9511 1365.97 26.3561L1348.03 27.9154C1348.94 38.3203 1348.37 77.0662 1337.62 143.191L1355.38 146.081Z" fill="black"/>
<path d="M387 244.136L395.757 246.215L387 244.136ZM418.5 144.636L409.617 146.081L418.5 144.636ZM399.034 26.3561C399.464 21.4042 403.828 17.739 408.78 18.1696C413.732 18.6002 417.397 22.9635 416.966 27.9154L399.034 26.3561ZM391.993 310.124C388.976 312.136 383.01 314.259 377.417 310.056C373.007 306.742 371.589 301.224 371.05 296.669C369.886 286.831 371.623 269.942 378.244 242.057L395.757 246.215C389.177 273.93 388.165 288.124 388.925 294.553C389.349 298.131 390.062 297.042 388.231 295.666C385.215 293.4 382.275 294.97 382.008 295.147L391.993 310.124ZM378.244 242.057C382.549 223.922 387.847 212.856 393.697 205.389C399.396 198.117 405.848 194.379 408.487 192.335C409.885 191.251 410.587 190.491 411.098 189.639C411.62 188.769 412.275 187.237 412.672 184.244C413.514 177.884 412.984 166.785 409.617 146.081L427.383 143.191C430.766 163.987 431.736 177.388 430.516 186.606C429.881 191.402 428.615 195.428 426.535 198.896C424.444 202.382 421.866 204.739 419.513 206.562C414.652 210.33 411.729 211.561 407.866 216.492C404.154 221.228 399.701 229.6 395.757 246.215L378.244 242.057ZM409.617 146.081C398.772 79.4053 397.939 38.9511 399.034 26.3561L416.966 27.9154C416.061 38.3203 416.628 77.0662 427.383 143.191L409.617 146.081Z" fill="black"/>
<path d="M1592 170.136C1592 165.165 1587.97 161.136 1583 161.136C1578.03 161.136 1574 165.165 1574 170.136H1592ZM1606.02 285.057C1601.33 275.824 1592 251.825 1592 230.636H1574C1574 255.846 1584.67 282.781 1589.98 293.215L1606.02 285.057ZM1592 230.636C1592 230.59 1592 230.545 1592 230.5C1592 230.454 1592 230.409 1592 230.364C1592 230.318 1592 230.273 1592 230.228C1592 230.182 1592 230.137 1592 230.091C1592 230.046 1592 230 1592 229.955C1592 229.91 1592 229.864 1592 229.819C1592 229.773 1592 229.728 1592 229.682C1592 229.637 1592 229.591 1592 229.546C1592 229.5 1592 229.455 1592 229.409C1592 229.364 1592 229.318 1592 229.272C1592 229.227 1592 229.181 1592 229.136C1592 229.09 1592 229.044 1592 228.999C1592 228.953 1592 228.908 1592 228.862C1592 228.816 1592 228.771 1592 228.725C1592 228.679 1592 228.634 1592 228.588C1592 228.542 1592 228.497 1592 228.451C1592 228.405 1592 228.359 1592 228.314C1592 228.268 1592 228.222 1592 228.176C1592 228.131 1592 228.085 1592 228.039C1592 227.993 1592 227.948 1592 227.902C1592 227.856 1592 227.81 1592 227.764C1592 227.718 1592 227.673 1592 227.627C1592 227.581 1592 227.535 1592 227.489C1592 227.443 1592 227.397 1592 227.352C1592 227.306 1592 227.26 1592 227.214C1592 227.168 1592 227.122 1592 227.076C1592 227.03 1592 226.984 1592 226.938C1592 226.892 1592 226.846 1592 226.8C1592 226.754 1592 226.709 1592 226.663C1592 226.617 1592 226.571 1592 226.525C1592 226.479 1592 226.433 1592 226.387C1592 226.34 1592 226.294 1592 226.248C1592 226.202 1592 226.156 1592 226.11C1592 226.064 1592 226.018 1592 225.972C1592 225.926 1592 225.88 1592 225.834C1592 225.788 1592 225.742 1592 225.696C1592 225.649 1592 225.603 1592 225.557C1592 225.511 1592 225.465 1592 225.419C1592 225.373 1592 225.326 1592 225.28C1592 225.234 1592 225.188 1592 225.142C1592 225.096 1592 225.049 1592 225.003C1592 224.957 1592 224.911 1592 224.865C1592 224.818 1592 224.772 1592 224.726C1592 224.68 1592 224.634 1592 224.587C1592 224.541 1592 224.495 1592 224.449C1592 224.402 1592 224.356 1592 224.31C1592 224.264 1592 224.217 1592 224.171C1592 224.125 1592 224.079 1592 224.032C1592 223.986 1592 223.94 1592 223.893C1592 223.847 1592 223.801 1592 223.754C1592 223.708 1592 223.662 1592 223.615C1592 223.569 1592 223.523 1592 223.476C1592 223.43 1592 223.384 1592 223.337C1592 223.291 1592 223.245 1592 223.198C1592 223.152 1592 223.106 1592 223.059C1592 223.013 1592 222.966 1592 222.92C1592 222.874 1592 222.827 1592 222.781C1592 222.735 1592 222.688 1592 222.642C1592 222.595 1592 222.549 1592 222.502C1592 222.456 1592 222.41 1592 222.363C1592 222.317 1592 222.27 1592 222.224C1592 222.177 1592 222.131 1592 222.085C1592 222.038 1592 221.992 1592 221.945C1592 221.899 1592 221.852 1592 221.806C1592 221.759 1592 221.713 1592 221.666C1592 221.62 1592 221.574 1592 221.527C1592 221.481 1592 221.434 1592 221.388C1592 221.341 1592 221.295 1592 221.248C1592 221.202 1592 221.155 1592 221.109C1592 221.062 1592 221.016 1592 220.969C1592 220.923 1592 220.876 1592 220.83C1592 220.783 1592 220.737 1592 220.69C1592 220.643 1592 220.597 1592 220.55C1592 220.504 1592 220.457 1592 220.411C1592 220.364 1592 220.318 1592 220.271C1592 220.225 1592 220.178 1592 220.132C1592 220.085 1592 220.039 1592 219.992C1592 219.945 1592 219.899 1592 219.852C1592 219.806 1592 219.759 1592 219.713C1592 219.666 1592 219.62 1592 219.573C1592 219.526 1592 219.48 1592 219.433C1592 219.387 1592 219.34 1592 219.294C1592 219.247 1592 219.2 1592 219.154C1592 219.107 1592 219.061 1592 219.014C1592 218.968 1592 218.921 1592 218.874C1592 218.828 1592 218.781 1592 218.735C1592 218.688 1592 218.642 1592 218.595C1592 218.548 1592 218.502 1592 218.455C1592 218.409 1592 218.362 1592 218.315C1592 218.269 1592 218.222 1592 218.176C1592 218.129 1592 218.083 1592 218.036C1592 217.989 1592 217.943 1592 217.896C1592 217.85 1592 217.803 1592 217.756C1592 217.71 1592 217.663 1592 217.617C1592 217.57 1592 217.524 1592 217.477C1592 217.43 1592 217.384 1592 217.337C1592 217.291 1592 217.244 1592 217.197C1592 217.151 1592 217.104 1592 217.058C1592 217.011 1592 216.965 1592 216.918C1592 216.871 1592 216.825 1592 216.778C1592 216.732 1592 216.685 1592 216.639C1592 216.592 1592 216.545 1592 216.499C1592 216.452 1592 216.406 1592 216.359C1592 216.313 1592 216.266 1592 216.219C1592 216.173 1592 216.126 1592 216.08C1592 216.033 1592 215.987 1592 215.94C1592 215.893 1592 215.847 1592 215.8C1592 215.754 1592 215.707 1592 215.661C1592 215.614 1592 215.568 1592 215.521C1592 215.475 1592 215.428 1592 215.381C1592 215.335 1592 215.288 1592 215.242C1592 215.195 1592 215.149 1592 215.102C1592 215.056 1592 215.009 1592 214.963C1592 214.916 1592 214.87 1592 214.823C1592 214.777 1592 214.73 1592 214.684C1592 214.637 1592 214.591 1592 214.544C1592 214.498 1592 214.451 1592 214.405C1592 214.358 1592 214.312 1592 214.265C1592 214.219 1592 214.172 1592 214.126C1592 214.079 1592 214.033 1592 213.986C1592 213.94 1592 213.893 1592 213.847C1592 213.8 1592 213.754 1592 213.707C1592 213.661 1592 213.614 1592 213.568C1592 213.522 1592 213.475 1592 213.429C1592 213.382 1592 213.336 1592 213.289C1592 213.243 1592 213.197 1592 213.15C1592 213.104 1592 213.057 1592 213.011C1592 212.964 1592 212.918 1592 212.872C1592 212.825 1592 212.779 1592 212.732C1592 212.686 1592 212.64 1592 212.593C1592 212.547 1592 212.501 1592 212.454C1592 212.408 1592 212.362 1592 212.315C1592 212.269 1592 212.222 1592 212.176C1592 212.13 1592 212.083 1592 212.037C1592 211.991 1592 211.944 1592 211.898C1592 211.852 1592 211.805 1592 211.759C1592 211.713 1592 211.667 1592 211.62C1592 211.574 1592 211.528 1592 211.481C1592 211.435 1592 211.389 1592 211.343C1592 211.296 1592 211.25 1592 211.204C1592 211.158 1592 211.111 1592 211.065C1592 211.019 1592 210.973 1592 210.926C1592 210.88 1592 210.834 1592 210.788C1592 210.742 1592 210.695 1592 210.649C1592 210.603 1592 210.557 1592 210.511C1592 210.464 1592 210.418 1592 210.372C1592 210.326 1592 210.28 1592 210.234C1592 210.187 1592 210.141 1592 210.095C1592 210.049 1592 210.003 1592 209.957C1592 209.911 1592 209.865 1592 209.819C1592 209.772 1592 209.726 1592 209.68C1592 209.634 1592 209.588 1592 209.542C1592 209.496 1592 209.45 1592 209.404C1592 209.358 1592 209.312 1592 209.266C1592 209.22 1592 209.174 1592 209.128C1592 209.082 1592 209.036 1592 208.99C1592 208.944 1592 208.898 1592 208.852C1592 208.806 1592 208.76 1592 208.714C1592 208.668 1592 208.622 1592 208.576C1592 208.53 1592 208.484 1592 208.438C1592 208.392 1592 208.347 1592 208.301C1592 208.255 1592 208.209 1592 208.163C1592 208.117 1592 208.071 1592 208.025C1592 207.98 1592 207.934 1592 207.888C1592 207.842 1592 207.796 1592 207.75C1592 207.705 1592 207.659 1592 207.613C1592 207.567 1592 207.521 1592 207.476C1592 207.43 1592 207.384 1592 207.338C1592 207.293 1592 207.247 1592 207.201C1592 207.156 1592 207.11 1592 207.064C1592 207.018 1592 206.973 1592 206.927C1592 206.881 1592 206.836 1592 206.79C1592 206.744 1592 206.699 1592 206.653C1592 206.608 1592 206.562 1592 206.516C1592 206.471 1592 206.425 1592 206.38C1592 206.334 1592 206.288 1592 206.243C1592 206.197 1592 206.152 1592 206.106C1592 206.061 1592 206.015 1592 205.97C1592 205.924 1592 205.879 1592 205.833C1592 205.788 1592 205.742 1592 205.697C1592 205.651 1592 205.606 1592 205.561C1592 205.515 1592 205.47 1592 205.424C1592 205.379 1592 205.333 1592 205.288C1592 205.243 1592 205.197 1592 205.152C1592 205.107 1592 205.061 1592 205.016C1592 204.971 1592 204.925 1592 204.88C1592 204.835 1592 204.79 1592 204.744C1592 204.699 1592 204.654 1592 204.609C1592 204.563 1592 204.518 1592 204.473C1592 204.428 1592 204.382 1592 204.337C1592 204.292 1592 204.247 1592 204.202C1592 204.157 1592 204.112 1592 204.066C1592 204.021 1592 203.976 1592 203.931C1592 203.886 1592 203.841 1592 203.796C1592 203.751 1592 203.706 1592 203.661C1592 203.616 1592 203.571 1592 203.526C1592 203.481 1592 203.436 1592 203.391C1592 203.346 1592 203.301 1592 203.256C1592 203.211 1592 203.166 1592 203.121C1592 203.076 1592 203.031 1592 202.986C1592 202.942 1592 202.897 1592 202.852C1592 202.807 1592 202.762 1592 202.717C1592 202.673 1592 202.628 1592 202.583C1592 202.538 1592 202.493 1592 202.449C1592 202.404 1592 202.359 1592 202.315C1592 202.27 1592 202.225 1592 202.18C1592 202.136 1592 202.091 1592 202.046C1592 202.002 1592 201.957 1592 201.913C1592 201.868 1592 201.823 1592 201.779C1592 201.734 1592 201.69 1592 201.645C1592 201.601 1592 201.556 1592 201.512C1592 201.467 1592 201.423 1592 201.378C1592 201.334 1592 201.289 1592 201.245C1592 201.2 1592 201.156 1592 201.111C1592 201.067 1592 201.023 1592 200.978C1592 200.934 1592 200.89 1592 200.845C1592 200.801 1592 200.757 1592 200.712C1592 200.668 1592 200.624 1592 200.58C1592 200.535 1592 200.491 1592 200.447C1592 200.403 1592 200.358 1592 200.314C1592 200.27 1592 200.226 1592 200.182C1592 200.138 1592 200.093 1592 200.049C1592 200.005 1592 199.961 1592 199.917C1592 199.873 1592 199.829 1592 199.785C1592 199.741 1592 199.697 1592 199.653C1592 199.609 1592 199.565 1592 199.521C1592 199.477 1592 199.433 1592 199.389C1592 199.345 1592 199.301 1592 199.258C1592 199.214 1592 199.17 1592 199.126C1592 199.082 1592 199.038 1592 198.995C1592 198.951 1592 198.907 1592 198.863C1592 198.82 1592 198.776 1592 198.732C1592 198.688 1592 198.645 1592 198.601C1592 198.557 1592 198.514 1592 198.47C1592 198.427 1592 198.383 1592 198.339C1592 198.296 1592 198.252 1592 198.209C1592 198.165 1592 198.122 1592 198.078C1592 198.035 1592 197.991 1592 197.948C1592 197.904 1592 197.861 1592 197.817C1592 197.774 1592 197.731 1592 197.687C1592 197.644 1592 197.601 1592 197.557C1592 197.514 1592 197.471 1592 197.427C1592 197.384 1592 197.341 1592 197.298C1592 197.254 1592 197.211 1592 197.168C1592 197.125 1592 197.082 1592 197.039C1592 196.995 1592 196.952 1592 196.909C1592 196.866 1592 196.823 1592 196.78C1592 196.737 1592 196.694 1592 196.651C1592 196.608 1592 196.565 1592 196.522C1592 196.479 1592 196.436 1592 196.393C1592 196.35 1592 196.307 1592 196.264C1592 196.222 1592 196.179 1592 196.136C1592 196.093 1592 196.05 1592 196.008C1592 195.965 1592 195.922 1592 195.879C1592 195.837 1592 195.794 1592 195.751C1592 195.709 1592 195.666 1592 195.623C1592 195.581 1592 195.538 1592 195.495C1592 195.453 1592 195.41 1592 195.368C1592 195.325 1592 195.283 1592 195.24C1592 195.198 1592 195.155 1592 195.113C1592 195.07 1592 195.028 1592 194.986C1592 194.943 1592 194.901 1592 194.859C1592 194.816 1592 194.774 1592 194.732C1592 194.689 1592 194.647 1592 194.605C1592 194.563 1592 194.52 1592 194.478C1592 194.436 1592 194.394 1592 194.352C1592 194.31 1592 194.268 1592 194.226C1592 194.183 1592 194.141 1592 194.099C1592 194.057 1592 194.015 1592 193.973C1592 193.931 1592 193.889 1592 193.848C1592 193.806 1592 193.764 1592 193.722C1592 193.68 1592 193.638 1592 193.596C1592 193.555 1592 193.513 1592 193.471C1592 193.429 1592 193.388 1592 193.346C1592 193.304 1592 193.262 1592 193.221C1592 193.179 1592 193.137 1592 193.096C1592 193.054 1592 193.013 1592 192.971C1592 192.93 1592 192.888 1592 192.847C1592 192.805 1592 192.764 1592 192.722C1592 192.681 1592 192.639 1592 192.598C1592 192.557 1592 192.515 1592 192.474C1592 192.433 1592 192.391 1592 192.35C1592 192.309 1592 192.268 1592 192.226C1592 192.185 1592 192.144 1592 192.103C1592 192.062 1592 192.021 1592 191.979C1592 191.938 1592 191.897 1592 191.856C1592 191.815 1592 191.774 1592 191.733C1592 191.692 1592 191.651 1592 191.61C1592 191.569 1592 191.529 1592 191.488C1592 191.447 1592 191.406 1592 191.365C1592 191.324 1592 191.284 1592 191.243C1592 191.202 1592 191.161 1592 191.121C1592 191.08 1592 191.039 1592 190.999C1592 190.958 1592 190.917 1592 190.877C1592 190.836 1592 190.796 1592 190.755C1592 190.715 1592 190.674 1592 190.634C1592 190.593 1592 190.553 1592 190.513C1592 190.472 1592 190.432 1592 190.391C1592 190.351 1592 190.311 1592 190.271C1592 190.23 1592 190.19 1592 190.15C1592 190.11 1592 190.069 1592 190.029C1592 189.989 1592 189.949 1592 189.909C1592 189.869 1592 189.829 1592 189.789C1592 189.749 1592 189.709 1592 189.669C1592 189.629 1592 189.589 1592 189.549C1592 189.509 1592 189.469 1592 189.429C1592 189.39 1592 189.35 1592 189.31C1592 189.27 1592 189.23 1592 189.191C1592 189.151 1592 189.111 1592 189.072C1592 189.032 1592 188.993 1592 188.953C1592 188.913 1592 188.874 1592 188.834C1592 188.795 1592 188.755 1592 188.716C1592 188.676 1592 188.637 1592 188.598C1592 188.558 1592 188.519 1592 188.48C1592 188.44 1592 188.401 1592 188.362C1592 188.322 1592 188.283 1592 188.244C1592 188.205 1592 188.166 1592 188.127C1592 188.087 1592 188.048 1592 188.009C1592 187.97 1592 187.931 1592 187.892C1592 187.853 1592 187.814 1592 187.775C1592 187.736 1592 187.698 1592 187.659C1592 187.62 1592 187.581 1592 187.542C1592 187.503 1592 187.465 1592 187.426C1592 187.387 1592 187.349 1592 187.31C1592 187.271 1592 187.233 1592 187.194C1592 187.156 1592 187.117 1592 187.079C1592 187.04 1592 187.002 1592 186.963C1592 186.925 1592 186.886 1592 186.848C1592 186.81 1592 186.771 1592 186.733C1592 186.695 1592 186.656 1592 186.618C1592 186.58 1592 186.542 1592 186.503C1592 186.465 1592 186.427 1592 186.389C1592 186.351 1592 186.313 1592 186.275C1592 186.237 1592 186.199 1592 186.161C1592 186.123 1592 186.085 1592 186.047C1592 186.009 1592 185.972 1592 185.934C1592 185.896 1592 185.858 1592 185.82C1592 185.783 1592 185.745 1592 185.707C1592 185.67 1592 185.632 1592 185.595C1592 185.557 1592 185.519 1592 185.482C1592 185.444 1592 185.407 1592 185.369C1592 185.332 1592 185.295 1592 185.257C1592 185.22 1592 185.183 1592 185.145C1592 185.108 1592 185.071 1592 185.034C1592 184.996 1592 184.959 1592 184.922C1592 184.885 1592 184.848 1592 184.811C1592 184.774 1592 184.737 1592 184.7C1592 184.663 1592 184.626 1592 184.589C1592 184.552 1592 184.515 1592 184.478C1592 184.441 1592 184.404 1592 184.368C1592 184.331 1592 184.294 1592 184.258C1592 184.221 1592 184.184 1592 184.148C1592 184.111 1592 184.074 1592 184.038C1592 184.001 1592 183.965 1592 183.928C1592 183.892 1592 183.856 1592 183.819C1592 183.783 1592 183.746 1592 183.71C1592 183.674 1592 183.638 1592 183.601C1592 183.565 1592 183.529 1592 183.493C1592 183.457 1592 183.421 1592 183.384C1592 183.348 1592 183.312 1592 183.276C1592 183.24 1592 183.204 1592 183.169C1592 183.133 1592 183.097 1592 183.061C1592 183.025 1592 182.989 1592 182.954C1592 182.918 1592 182.882 1592 182.847C1592 182.811 1592 182.775 1592 182.74C1592 182.704 1592 182.669 1592 182.633C1592 182.597 1592 182.562 1592 182.527C1592 182.491 1592 182.456 1592 182.42C1592 182.385 1592 182.35 1592 182.315C1592 182.279 1592 182.244 1592 182.209C1592 182.174 1592 182.139 1592 182.103C1592 182.068 1592 182.033 1592 181.998C1592 181.963 1592 181.928 1592 181.893C1592 181.858 1592 181.824 1592 181.789C1592 181.754 1592 181.719 1592 181.684C1592 181.65 1592 181.615 1592 181.58C1592 181.546 1592 181.511 1592 181.476C1592 181.442 1592 181.407 1592 181.373C1592 181.338 1592 181.304 1592 181.269C1592 181.235 1592 181.2 1592 181.166C1592 181.132 1592 181.097 1592 181.063C1592 181.029 1592 180.995 1592 180.961C1592 180.926 1592 180.892 1592 180.858C1592 180.824 1592 180.79 1592 180.756C1592 180.722 1592 180.688 1592 180.654C1592 180.62 1592 180.586 1592 180.553C1592 180.519 1592 180.485 1592 180.451C1592 180.418 1592 180.384 1592 180.35C1592 180.317 1592 180.283 1592 180.249C1592 180.216 1592 180.182 1592 180.149C1592 180.115 1592 180.082 1592 180.049C1592 180.015 1592 179.982 1592 179.949C1592 179.915 1592 179.882 1592 179.849C1592 179.816 1592 179.782 1592 179.749C1592 179.716 1592 179.683 1592 179.65C1592 179.617 1592 179.584 1592 179.551C1592 179.518 1592 179.485 1592 179.452C1592 179.42 1592 179.387 1592 179.354C1592 179.321 1592 179.289 1592 179.256C1592 179.223 1592 179.191 1592 179.158C1592 179.125 1592 179.093 1592 179.06C1592 179.028 1592 178.995 1592 178.963C1592 178.931 1592 178.898 1592 178.866C1592 178.834 1592 178.801 1592 178.769C1592 178.737 1592 178.705 1592 178.673C1592 178.641 1592 178.609 1592 178.577C1592 178.545 1592 178.513 1592 178.481C1592 178.449 1592 178.417 1592 178.385C1592 178.353 1592 178.321 1592 178.29C1592 178.258 1592 178.226 1592 178.195C1592 178.163 1592 178.131 1592 178.1C1592 178.068 1592 178.037 1592 178.005C1592 177.974 1592 177.942 1592 177.911C1592 177.88 1592 177.848 1592 177.817C1592 177.786 1592 177.755 1592 177.723C1592 177.692 1592 177.661 1592 177.63C1592 177.599 1592 177.568 1592 177.537C1592 177.506 1592 177.475 1592 177.444C1592 177.413 1592 177.382 1592 177.352C1592 177.321 1592 177.29 1592 177.259C1592 177.229 1592 177.198 1592 177.167C1592 177.137 1592 177.106 1592 177.076C1592 177.045 1592 177.015 1592 176.984C1592 176.954 1592 176.924 1592 176.893C1592 176.863 1592 176.833 1592 176.803C1592 176.772 1592 176.742 1592 176.712C1592 176.682 1592 176.652 1592 176.622C1592 176.592 1592 176.562 1592 176.532C1592 176.502 1592 176.472 1592 176.442C1592 176.413 1592 176.383 1592 176.353C1592 176.323 1592 176.294 1592 176.264C1592 176.235 1592 176.205 1592 176.176C1592 176.146 1592 176.117 1592 176.087C1592 176.058 1592 176.028 1592 175.999C1592 175.97 1592 175.941 1592 175.911C1592 175.882 1592 175.853 1592 175.824C1592 175.795 1592 175.766 1592 175.737C1592 175.708 1592 175.679 1592 175.65C1592 175.621 1592 175.592 1592 175.563C1592 175.535 1592 175.506 1592 175.477C1592 175.448 1592 175.42 1592 175.391C1592 175.363 1592 175.334 1592 175.306C1592 175.277 1592 175.249 1592 175.22C1592 175.192 1592 175.164 1592 175.135C1592 175.107 1592 175.079 1592 175.051C1592 175.022 1592 174.994 1592 174.966C1592 174.938 1592 174.91 1592 174.882C1592 174.854 1592 174.826 1592 174.798C1592 174.771 1592 174.743 1592 174.715C1592 174.687 1592 174.66 1592 174.632C1592 174.604 1592 174.577 1592 174.549C1592 174.522 1592 174.494 1592 174.467C1592 174.439 1592 174.412 1592 174.385C1592 174.357 1592 174.33 1592 174.303C1592 174.275 1592 174.248 1592 174.221C1592 174.194 1592 174.167 1592 174.14C1592 174.113 1592 174.086 1592 174.059C1592 174.032 1592 174.005 1592 173.979C1592 173.952 1592 173.925 1592 173.898C1592 173.872 1592 173.845 1592 173.819C1592 173.792 1592 173.765 1592 173.739C1592 173.712 1592 173.686 1592 173.66C1592 173.633 1592 173.607 1592 173.581C1592 173.555 1592 173.528 1592 173.502C1592 173.476 1592 173.45 1592 173.424C1592 173.398 1592 173.372 1592 173.346C1592 173.32 1592 173.294 1592 173.269C1592 173.243 1592 173.217 1592 173.191C1592 173.166 1592 173.14 1592 173.114C1592 173.089 1592 173.063 1592 173.038C1592 173.012 1592 172.987 1592 172.962C1592 172.936 1592 172.911 1592 172.886C1592 172.86 1592 172.835 1592 172.81C1592 172.785 1592 172.76 1592 172.735C1592 172.71 1592 172.685 1592 172.66C1592 172.635 1592 172.61 1592 172.585C1592 172.561 1592 172.536 1592 172.511C1592 172.487 1592 172.462 1592 172.437C1592 172.413 1592 172.388 1592 172.364C1592 172.339 1592 172.315 1592 172.291C1592 172.266 1592 172.242 1592 172.218C1592 172.194 1592 172.169 1592 172.145C1592 172.121 1592 172.097 1592 172.073C1592 172.049 1592 172.025 1592 172.001C1592 171.978 1592 171.954 1592 171.93C1592 171.906 1592 171.882 1592 171.859C1592 171.835 1592 171.812 1592 171.788C1592 171.765 1592 171.741 1592 171.718C1592 171.694 1592 171.671 1592 171.648C1592 171.624 1592 171.601 1592 171.578C1592 171.555 1592 171.532 1592 171.509C1592 171.486 1592 171.463 1592 171.44C1592 171.417 1592 171.394 1592 171.371C1592 171.348 1592 171.325 1592 171.303C1592 171.28 1592 171.257 1592 171.235C1592 171.212 1592 171.19 1592 171.167C1592 171.145 1592 171.122 1592 171.1C1592 171.078 1592 171.055 1592 171.033C1592 171.011 1592 170.989 1592 170.967C1592 170.945 1592 170.923 1592 170.901C1592 170.879 1592 170.857 1592 170.835C1592 170.813 1592 170.791 1592 170.769C1592 170.748 1592 170.726 1592 170.704C1592 170.683 1592 170.661 1592 170.64C1592 170.618 1592 170.597 1592 170.575C1592 170.554 1592 170.533 1592 170.512C1592 170.49 1592 170.469 1592 170.448C1592 170.427 1592 170.406 1592 170.385C1592 170.364 1592 170.343 1592 170.322C1592 170.301 1592 170.28 1592 170.26C1592 170.239 1592 170.218 1592 170.197C1592 170.177 1592 170.156 1592 170.136H1574C1574 170.156 1574 170.177 1574 170.197C1574 170.218 1574 170.239 1574 170.26C1574 170.28 1574 170.301 1574 170.322C1574 170.343 1574 170.364 1574 170.385C1574 170.406 1574 170.427 1574 170.448C1574 170.469 1574 170.49 1574 170.512C1574 170.533 1574 170.554 1574 170.575C1574 170.597 1574 170.618 1574 170.64C1574 170.661 1574 170.683 1574 170.704C1574 170.726 1574 170.748 1574 170.769C1574 170.791 1574 170.813 1574 170.835C1574 170.857 1574 170.879 1574 170.901C1574 170.923 1574 170.945 1574 170.967C1574 170.989 1574 171.011 1574 171.033C1574 171.055 1574 171.078 1574 171.1C1574 171.122 1574 171.145 1574 171.167C1574 171.19 1574 171.212 1574 171.235C1574 171.257 1574 171.28 1574 171.303C1574 171.325 1574 171.348 1574 171.371C1574 171.394 1574 171.417 1574 171.44C1574 171.463 1574 171.486 1574 171.509C1574 171.532 1574 171.555 1574 171.578C1574 171.601 1574 171.624 1574 171.648C1574 171.671 1574 171.694 1574 171.718C1574 171.741 1574 171.765 1574 171.788C1574 171.812 1574 171.835 1574 171.859C1574 171.882 1574 171.906 1574 171.93C1574 171.954 1574 171.978 1574 172.001C1574 172.025 1574 172.049 1574 172.073C1574 172.097 1574 172.121 1574 172.145C1574 172.169 1574 172.194 1574 172.218C1574 172.242 1574 172.266 1574 172.291C1574 172.315 1574 172.339 1574 172.364C1574 172.388 1574 172.413 1574 172.437C1574 172.462 1574 172.487 1574 172.511C1574 172.536 1574 172.561 1574 172.585C1574 172.61 1574 172.635 1574 172.66C1574 172.685 1574 172.71 1574 172.735C1574 172.76 1574 172.785 1574 172.81C1574 172.835 1574 172.86 1574 172.886C1574 172.911 1574 172.936 1574 172.962C1574 172.987 1574 173.012 1574 173.038C1574 173.063 1574 173.089 1574 173.114C1574 173.14 1574 173.166 1574 173.191C1574 173.217 1574 173.243 1574 173.269C1574 173.294 1574 173.32 1574 173.346C1574 173.372 1574 173.398 1574 173.424C1574 173.45 1574 173.476 1574 173.502C1574 173.528 1574 173.555 1574 173.581C1574 173.607 1574 173.633 1574 173.66C1574 173.686 1574 173.712 1574 173.739C1574 173.765 1574 173.792 1574 173.819C1574 173.845 1574 173.872 1574 173.898C1574 173.925 1574 173.952 1574 173.979C1574 174.005 1574 174.032 1574 174.059C1574 174.086 1574 174.113 1574 174.14C1574 174.167 1574 174.194 1574 174.221C1574 174.248 1574 174.275 1574 174.303C1574 174.33 1574 174.357 1574 174.385C1574 174.412 1574 174.439 1574 174.467C1574 174.494 1574 174.522 1574 174.549C1574 174.577 1574 174.604 1574 174.632C1574 174.66 1574 174.687 1574 174.715C1574 174.743 1574 174.771 1574 174.798C1574 174.826 1574 174.854 1574 174.882C1574 174.91 1574 174.938 1574 174.966C1574 174.994 1574 175.022 1574 175.051C1574 175.079 1574 175.107 1574 175.135C1574 175.164 1574 175.192 1574 175.22C1574 175.249 1574 175.277 1574 175.306C1574 175.334 1574 175.363 1574 175.391C1574 175.42 1574 175.448 1574 175.477C1574 175.506 1574 175.535 1574 175.563C1574 175.592 1574 175.621 1574 175.65C1574 175.679 1574 175.708 1574 175.737C1574 175.766 1574 175.795 1574 175.824C1574 175.853 1574 175.882 1574 175.911C1574 175.941 1574 175.97 1574 175.999C1574 176.028 1574 176.058 1574 176.087C1574 176.117 1574 176.146 1574 176.176C1574 176.205 1574 176.235 1574 176.264C1574 176.294 1574 176.323 1574 176.353C1574 176.383 1574 176.413 1574 176.442C1574 176.472 1574 176.502 1574 176.532C1574 176.562 1574 176.592 1574 176.622C1574 176.652 1574 176.682 1574 176.712C1574 176.742 1574 176.772 1574 176.803C1574 176.833 1574 176.863 1574 176.893C1574 176.924 1574 176.954 1574 176.984C1574 177.015 1574 177.045 1574 177.076C1574 177.106 1574 177.137 1574 177.167C1574 177.198 1574 177.229 1574 177.259C1574 177.29 1574 177.321 1574 177.352C1574 177.382 1574 177.413 1574 177.444C1574 177.475 1574 177.506 1574 177.537C1574 177.568 1574 177.599 1574 177.63C1574 177.661 1574 177.692 1574 177.723C1574 177.755 1574 177.786 1574 177.817C1574 177.848 1574 177.88 1574 177.911C1574 177.942 1574 177.974 1574 178.005C1574 178.037 1574 178.068 1574 178.1C1574 178.131 1574 178.163 1574 178.195C1574 178.226 1574 178.258 1574 178.29C1574 178.321 1574 178.353 1574 178.385C1574 178.417 1574 178.449 1574 178.481C1574 178.513 1574 178.545 1574 178.577C1574 178.609 1574 178.641 1574 178.673C1574 178.705 1574 178.737 1574 178.769C1574 178.801 1574 178.834 1574 178.866C1574 178.898 1574 178.931 1574 178.963C1574 178.995 1574 179.028 1574 179.06C1574 179.093 1574 179.125 1574 179.158C1574 179.191 1574 179.223 1574 179.256C1574 179.289 1574 179.321 1574 179.354C1574 179.387 1574 179.42 1574 179.452C1574 179.485 1574 179.518 1574 179.551C1574 179.584 1574 179.617 1574 179.65C1574 179.683 1574 179.716 1574 179.749C1574 179.782 1574 179.816 1574 179.849C1574 179.882 1574 179.915 1574 179.949C1574 179.982 1574 180.015 1574 180.049C1574 180.082 1574 180.115 1574 180.149C1574 180.182 1574 180.216 1574 180.249C1574 180.283 1574 180.317 1574 180.35C1574 180.384 1574 180.418 1574 180.451C1574 180.485 1574 180.519 1574 180.553C1574 180.586 1574 180.62 1574 180.654C1574 180.688 1574 180.722 1574 180.756C1574 180.79 1574 180.824 1574 180.858C1574 180.892 1574 180.926 1574 180.961C1574 180.995 1574 181.029 1574 181.063C1574 181.097 1574 181.132 1574 181.166C1574 181.2 1574 181.235 1574 181.269C1574 181.304 1574 181.338 1574 181.373C1574 181.407 1574 181.442 1574 181.476C1574 181.511 1574 181.546 1574 181.58C1574 181.615 1574 181.65 1574 181.684C1574 181.719 1574 181.754 1574 181.789C1574 181.824 1574 181.858 1574 181.893C1574 181.928 1574 181.963 1574 181.998C1574 182.033 1574 182.068 1574 182.103C1574 182.139 1574 182.174 1574 182.209C1574 182.244 1574 182.279 1574 182.315C1574 182.35 1574 182.385 1574 182.42C1574 182.456 1574 182.491 1574 182.527C1574 182.562 1574 182.597 1574 182.633C1574 182.669 1574 182.704 1574 182.74C1574 182.775 1574 182.811 1574 182.847C1574 182.882 1574 182.918 1574 182.954C1574 182.989 1574 183.025 1574 183.061C1574 183.097 1574 183.133 1574 183.169C1574 183.204 1574 183.24 1574 183.276C1574 183.312 1574 183.348 1574 183.384C1574 183.421 1574 183.457 1574 183.493C1574 183.529 1574 183.565 1574 183.601C1574 183.638 1574 183.674 1574 183.71C1574 183.746 1574 183.783 1574 183.819C1574 183.856 1574 183.892 1574 183.928C1574 183.965 1574 184.001 1574 184.038C1574 184.074 1574 184.111 1574 184.148C1574 184.184 1574 184.221 1574 184.258C1574 184.294 1574 184.331 1574 184.368C1574 184.404 1574 184.441 1574 184.478C1574 184.515 1574 184.552 1574 184.589C1574 184.626 1574 184.663 1574 184.7C1574 184.737 1574 184.774 1574 184.811C1574 184.848 1574 184.885 1574 184.922C1574 184.959 1574 184.996 1574 185.034C1574 185.071 1574 185.108 1574 185.145C1574 185.183 1574 185.22 1574 185.257C1574 185.295 1574 185.332 1574 185.369C1574 185.407 1574 185.444 1574 185.482C1574 185.519 1574 185.557 1574 185.595C1574 185.632 1574 185.67 1574 185.707C1574 185.745 1574 185.783 1574 185.82C1574 185.858 1574 185.896 1574 185.934C1574 185.972 1574 186.009 1574 186.047C1574 186.085 1574 186.123 1574 186.161C1574 186.199 1574 186.237 1574 186.275C1574 186.313 1574 186.351 1574 186.389C1574 186.427 1574 186.465 1574 186.503C1574 186.542 1574 186.58 1574 186.618C1574 186.656 1574 186.695 1574 186.733C1574 186.771 1574 186.81 1574 186.848C1574 186.886 1574 186.925 1574 186.963C1574 187.002 1574 187.04 1574 187.079C1574 187.117 1574 187.156 1574 187.194C1574 187.233 1574 187.271 1574 187.31C1574 187.349 1574 187.387 1574 187.426C1574 187.465 1574 187.503 1574 187.542C1574 187.581 1574 187.62 1574 187.659C1574 187.698 1574 187.736 1574 187.775C1574 187.814 1574 187.853 1574 187.892C1574 187.931 1574 187.97 1574 188.009C1574 188.048 1574 188.087 1574 188.127C1574 188.166 1574 188.205 1574 188.244C1574 188.283 1574 188.322 1574 188.362C1574 188.401 1574 188.44 1574 188.48C1574 188.519 1574 188.558 1574 188.598C1574 188.637 1574 188.676 1574 188.716C1574 188.755 1574 188.795 1574 188.834C1574 188.874 1574 188.913 1574 188.953C1574 188.993 1574 189.032 1574 189.072C1574 189.111 1574 189.151 1574 189.191C1574 189.23 1574 189.27 1574 189.31C1574 189.35 1574 189.39 1574 189.429C1574 189.469 1574 189.509 1574 189.549C1574 189.589 1574 189.629 1574 189.669C1574 189.709 1574 189.749 1574 189.789C1574 189.829 1574 189.869 1574 189.909C1574 189.949 1574 189.989 1574 190.029C1574 190.069 1574 190.11 1574 190.15C1574 190.19 1574 190.23 1574 190.271C1574 190.311 1574 190.351 1574 190.391C1574 190.432 1574 190.472 1574 190.513C1574 190.553 1574 190.593 1574 190.634C1574 190.674 1574 190.715 1574 190.755C1574 190.796 1574 190.836 1574 190.877C1574 190.917 1574 190.958 1574 190.999C1574 191.039 1574 191.08 1574 191.121C1574 191.161 1574 191.202 1574 191.243C1574 191.284 1574 191.324 1574 191.365C1574 191.406 1574 191.447 1574 191.488C1574 191.529 1574 191.569 1574 191.61C1574 191.651 1574 191.692 1574 191.733C1574 191.774 1574 191.815 1574 191.856C1574 191.897 1574 191.938 1574 191.979C1574 192.021 1574 192.062 1574 192.103C1574 192.144 1574 192.185 1574 192.226C1574 192.268 1574 192.309 1574 192.35C1574 192.391 1574 192.433 1574 192.474C1574 192.515 1574 192.557 1574 192.598C1574 192.639 1574 192.681 1574 192.722C1574 192.764 1574 192.805 1574 192.847C1574 192.888 1574 192.93 1574 192.971C1574 193.013 1574 193.054 1574 193.096C1574 193.137 1574 193.179 1574 193.221C1574 193.262 1574 193.304 1574 193.346C1574 193.388 1574 193.429 1574 193.471C1574 193.513 1574 193.555 1574 193.596C1574 193.638 1574 193.68 1574 193.722C1574 193.764 1574 193.806 1574 193.848C1574 193.889 1574 193.931 1574 193.973C1574 194.015 1574 194.057 1574 194.099C1574 194.141 1574 194.183 1574 194.226C1574 194.268 1574 194.31 1574 194.352C1574 194.394 1574 194.436 1574 194.478C1574 194.52 1574 194.563 1574 194.605C1574 194.647 1574 194.689 1574 194.732C1574 194.774 1574 194.816 1574 194.859C1574 194.901 1574 194.943 1574 194.986C1574 195.028 1574 195.07 1574 195.113C1574 195.155 1574 195.198 1574 195.24C1574 195.283 1574 195.325 1574 195.368C1574 195.41 1574 195.453 1574 195.495C1574 195.538 1574 195.581 1574 195.623C1574 195.666 1574 195.709 1574 195.751C1574 195.794 1574 195.837 1574 195.879C1574 195.922 1574 195.965 1574 196.008C1574 196.05 1574 196.093 1574 196.136C1574 196.179 1574 196.222 1574 196.264C1574 196.307 1574 196.35 1574 196.393C1574 196.436 1574 196.479 1574 196.522C1574 196.565 1574 196.608 1574 196.651C1574 196.694 1574 196.737 1574 196.78C1574 196.823 1574 196.866 1574 196.909C1574 196.952 1574 196.995 1574 197.039C1574 197.082 1574 197.125 1574 197.168C1574 197.211 1574 197.254 1574 197.298C1574 197.341 1574 197.384 1574 197.427C1574 197.471 1574 197.514 1574 197.557C1574 197.601 1574 197.644 1574 197.687C1574 197.731 1574 197.774 1574 197.817C1574 197.861 1574 197.904 1574 197.948C1574 197.991 1574 198.035 1574 198.078C1574 198.122 1574 198.165 1574 198.209C1574 198.252 1574 198.296 1574 198.339C1574 198.383 1574 198.427 1574 198.47C1574 198.514 1574 198.557 1574 198.601C1574 198.645 1574 198.688 1574 198.732C1574 198.776 1574 198.82 1574 198.863C1574 198.907 1574 198.951 1574 198.995C1574 199.038 1574 199.082 1574 199.126C1574 199.17 1574 199.214 1574 199.258C1574 199.301 1574 199.345 1574 199.389C1574 199.433 1574 199.477 1574 199.521C1574 199.565 1574 199.609 1574 199.653C1574 199.697 1574 199.741 1574 199.785C1574 199.829 1574 199.873 1574 199.917C1574 199.961 1574 200.005 1574 200.049C1574 200.093 1574 200.138 1574 200.182C1574 200.226 1574 200.27 1574 200.314C1574 200.358 1574 200.403 1574 200.447C1574 200.491 1574 200.535 1574 200.58C1574 200.624 1574 200.668 1574 200.712C1574 200.757 1574 200.801 1574 200.845C1574 200.89 1574 200.934 1574 200.978C1574 201.023 1574 201.067 1574 201.111C1574 201.156 1574 201.2 1574 201.245C1574 201.289 1574 201.334 1574 201.378C1574 201.423 1574 201.467 1574 201.512C1574 201.556 1574 201.601 1574 201.645C1574 201.69 1574 201.734 1574 201.779C1574 201.823 1574 201.868 1574 201.913C1574 201.957 1574 202.002 1574 202.046C1574 202.091 1574 202.136 1574 202.18C1574 202.225 1574 202.27 1574 202.315C1574 202.359 1574 202.404 1574 202.449C1574 202.493 1574 202.538 1574 202.583C1574 202.628 1574 202.673 1574 202.717C1574 202.762 1574 202.807 1574 202.852C1574 202.897 1574 202.942 1574 202.986C1574 203.031 1574 203.076 1574 203.121C1574 203.166 1574 203.211 1574 203.256C1574 203.301 1574 203.346 1574 203.391C1574 203.436 1574 203.481 1574 203.526C1574 203.571 1574 203.616 1574 203.661C1574 203.706 1574 203.751 1574 203.796C1574 203.841 1574 203.886 1574 203.931C1574 203.976 1574 204.021 1574 204.066C1574 204.112 1574 204.157 1574 204.202C1574 204.247 1574 204.292 1574 204.337C1574 204.382 1574 204.428 1574 204.473C1574 204.518 1574 204.563 1574 204.609C1574 204.654 1574 204.699 1574 204.744C1574 204.79 1574 204.835 1574 204.88C1574 204.925 1574 204.971 1574 205.016C1574 205.061 1574 205.107 1574 205.152C1574 205.197 1574 205.243 1574 205.288C1574 205.333 1574 205.379 1574 205.424C1574 205.47 1574 205.515 1574 205.561C1574 205.606 1574 205.651 1574 205.697C1574 205.742 1574 205.788 1574 205.833C1574 205.879 1574 205.924 1574 205.97C1574 206.015 1574 206.061 1574 206.106C1574 206.152 1574 206.197 1574 206.243C1574 206.288 1574 206.334 1574 206.38C1574 206.425 1574 206.471 1574 206.516C1574 206.562 1574 206.608 1574 206.653C1574 206.699 1574 206.744 1574 206.79C1574 206.836 1574 206.881 1574 206.927C1574 206.973 1574 207.018 1574 207.064C1574 207.11 1574 207.156 1574 207.201C1574 207.247 1574 207.293 1574 207.338C1574 207.384 1574 207.43 1574 207.476C1574 207.521 1574 207.567 1574 207.613C1574 207.659 1574 207.705 1574 207.75C1574 207.796 1574 207.842 1574 207.888C1574 207.934 1574 207.98 1574 208.025C1574 208.071 1574 208.117 1574 208.163C1574 208.209 1574 208.255 1574 208.301C1574 208.347 1574 208.392 1574 208.438C1574 208.484 1574 208.53 1574 208.576C1574 208.622 1574 208.668 1574 208.714C1574 208.76 1574 208.806 1574 208.852C1574 208.898 1574 208.944 1574 208.99C1574 209.036 1574 209.082 1574 209.128C1574 209.174 1574 209.22 1574 209.266C1574 209.312 1574 209.358 1574 209.404C1574 209.45 1574 209.496 1574 209.542C1574 209.588 1574 209.634 1574 209.68C1574 209.726 1574 209.772 1574 209.819C1574 209.865 1574 209.911 1574 209.957C1574 210.003 1574 210.049 1574 210.095C1574 210.141 1574 210.187 1574 210.234C1574 210.28 1574 210.326 1574 210.372C1574 210.418 1574 210.464 1574 210.511C1574 210.557 1574 210.603 1574 210.649C1574 210.695 1574 210.742 1574 210.788C1574 210.834 1574 210.88 1574 210.926C1574 210.973 1574 211.019 1574 211.065C1574 211.111 1574 211.158 1574 211.204C1574 211.25 1574 211.296 1574 211.343C1574 211.389 1574 211.435 1574 211.481C1574 211.528 1574 211.574 1574 211.62C1574 211.667 1574 211.713 1574 211.759C1574 211.805 1574 211.852 1574 211.898C1574 211.944 1574 211.991 1574 212.037C1574 212.083 1574 212.13 1574 212.176C1574 212.222 1574 212.269 1574 212.315C1574 212.362 1574 212.408 1574 212.454C1574 212.501 1574 212.547 1574 212.593C1574 212.64 1574 212.686 1574 212.732C1574 212.779 1574 212.825 1574 212.872C1574 212.918 1574 212.964 1574 213.011C1574 213.057 1574 213.104 1574 213.15C1574 213.197 1574 213.243 1574 213.289C1574 213.336 1574 213.382 1574 213.429C1574 213.475 1574 213.522 1574 213.568C1574 213.614 1574 213.661 1574 213.707C1574 213.754 1574 213.8 1574 213.847C1574 213.893 1574 213.94 1574 213.986C1574 214.033 1574 214.079 1574 214.126C1574 214.172 1574 214.219 1574 214.265C1574 214.312 1574 214.358 1574 214.405C1574 214.451 1574 214.498 1574 214.544C1574 214.591 1574 214.637 1574 214.684C1574 214.73 1574 214.777 1574 214.823C1574 214.87 1574 214.916 1574 214.963C1574 215.009 1574 215.056 1574 215.102C1574 215.149 1574 215.195 1574 215.242C1574 215.288 1574 215.335 1574 215.381C1574 215.428 1574 215.475 1574 215.521C1574 215.568 1574 215.614 1574 215.661C1574 215.707 1574 215.754 1574 215.8C1574 215.847 1574 215.893 1574 215.94C1574 215.987 1574 216.033 1574 216.08C1574 216.126 1574 216.173 1574 216.219C1574 216.266 1574 216.313 1574 216.359C1574 216.406 1574 216.452 1574 216.499C1574 216.545 1574 216.592 1574 216.639C1574 216.685 1574 216.732 1574 216.778C1574 216.825 1574 216.871 1574 216.918C1574 216.965 1574 217.011 1574 217.058C1574 217.104 1574 217.151 1574 217.197C1574 217.244 1574 217.291 1574 217.337C1574 217.384 1574 217.43 1574 217.477C1574 217.524 1574 217.57 1574 217.617C1574 217.663 1574 217.71 1574 217.756C1574 217.803 1574 217.85 1574 217.896C1574 217.943 1574 217.989 1574 218.036C1574 218.083 1574 218.129 1574 218.176C1574 218.222 1574 218.269 1574 218.315C1574 218.362 1574 218.409 1574 218.455C1574 218.502 1574 218.548 1574 218.595C1574 218.642 1574 218.688 1574 218.735C1574 218.781 1574 218.828 1574 218.874C1574 218.921 1574 218.968 1574 219.014C1574 219.061 1574 219.107 1574 219.154C1574 219.2 1574 219.247 1574 219.294C1574 219.34 1574 219.387 1574 219.433C1574 219.48 1574 219.526 1574 219.573C1574 219.62 1574 219.666 1574 219.713C1574 219.759 1574 219.806 1574 219.852C1574 219.899 1574 219.945 1574 219.992C1574 220.039 1574 220.085 1574 220.132C1574 220.178 1574 220.225 1574 220.271C1574 220.318 1574 220.364 1574 220.411C1574 220.457 1574 220.504 1574 220.55C1574 220.597 1574 220.643 1574 220.69C1574 220.737 1574 220.783 1574 220.83C1574 220.876 1574 220.923 1574 220.969C1574 221.016 1574 221.062 1574 221.109C1574 221.155 1574 221.202 1574 221.248C1574 221.295 1574 221.341 1574 221.388C1574 221.434 1574 221.481 1574 221.527C1574 221.574 1574 221.62 1574 221.666C1574 221.713 1574 221.759 1574 221.806C1574 221.852 1574 221.899 1574 221.945C1574 221.992 1574 222.038 1574 222.085C1574 222.131 1574 222.177 1574 222.224C1574 222.27 1574 222.317 1574 222.363C1574 222.41 1574 222.456 1574 222.502C1574 222.549 1574 222.595 1574 222.642C1574 222.688 1574 222.735 1574 222.781C1574 222.827 1574 222.874 1574 222.92C1574 222.966 1574 223.013 1574 223.059C1574 223.106 1574 223.152 1574 223.198C1574 223.245 1574 223.291 1574 223.337C1574 223.384 1574 223.43 1574 223.476C1574 223.523 1574 223.569 1574 223.615C1574 223.662 1574 223.708 1574 223.754C1574 223.801 1574 223.847 1574 223.893C1574 223.94 1574 223.986 1574 224.032C1574 224.079 1574 224.125 1574 224.171C1574 224.217 1574 224.264 1574 224.31C1574 224.356 1574 224.402 1574 224.449C1574 224.495 1574 224.541 1574 224.587C1574 224.634 1574 224.68 1574 224.726C1574 224.772 1574 224.818 1574 224.865C1574 224.911 1574 224.957 1574 225.003C1574 225.049 1574 225.096 1574 225.142C1574 225.188 1574 225.234 1574 225.28C1574 225.326 1574 225.373 1574 225.419C1574 225.465 1574 225.511 1574 225.557C1574 225.603 1574 225.649 1574 225.696C1574 225.742 1574 225.788 1574 225.834C1574 225.88 1574 225.926 1574 225.972C1574 226.018 1574 226.064 1574 226.11C1574 226.156 1574 226.202 1574 226.248C1574 226.294 1574 226.34 1574 226.387C1574 226.433 1574 226.479 1574 226.525C1574 226.571 1574 226.617 1574 226.663C1574 226.709 1574 226.754 1574 226.8C1574 226.846 1574 226.892 1574 226.938C1574 226.984 1574 227.03 1574 227.076C1574 227.122 1574 227.168 1574 227.214C1574 227.26 1574 227.306 1574 227.352C1574 227.397 1574 227.443 1574 227.489C1574 227.535 1574 227.581 1574 227.627C1574 227.673 1574 227.718 1574 227.764C1574 227.81 1574 227.856 1574 227.902C1574 227.948 1574 227.993 1574 228.039C1574 228.085 1574 228.131 1574 228.176C1574 228.222 1574 228.268 1574 228.314C1574 228.359 1574 228.405 1574 228.451C1574 228.497 1574 228.542 1574 228.588C1574 228.634 1574 228.679 1574 228.725C1574 228.771 1574 228.816 1574 228.862C1574 228.908 1574 228.953 1574 228.999C1574 229.044 1574 229.09 1574 229.136C1574 229.181 1574 229.227 1574 229.272C1574 229.318 1574 229.364 1574 229.409C1574 229.455 1574 229.5 1574 229.546C1574 229.591 1574 229.637 1574 229.682C1574 229.728 1574 229.773 1574 229.819C1574 229.864 1574 229.91 1574 229.955C1574 230 1574 230.046 1574 230.091C1574 230.137 1574 230.182 1574 230.228C1574 230.273 1574 230.318 1574 230.364C1574 230.409 1574 230.454 1574 230.5C1574 230.545 1574 230.59 1574 230.636H1592Z" fill="black"/>
<path d="M173 170.136C173 165.165 177.029 161.136 182 161.136C186.971 161.136 191 165.165 191 170.136H173ZM158.978 285.057C163.672 275.824 173 251.825 173 230.636H191C191 255.846 180.328 282.781 175.022 293.215L158.978 285.057ZM173 230.636C173 230.59 173 230.545 173 230.5C173 230.454 173 230.409 173 230.364C173 230.318 173 230.273 173 230.228C173 230.182 173 230.137 173 230.091C173 230.046 173 230 173 229.955C173 229.91 173 229.864 173 229.819C173 229.773 173 229.728 173 229.682C173 229.637 173 229.591 173 229.546C173 229.5 173 229.455 173 229.409C173 229.364 173 229.318 173 229.272C173 229.227 173 229.181 173 229.136C173 229.09 173 229.044 173 228.999C173 228.953 173 228.908 173 228.862C173 228.816 173 228.771 173 228.725C173 228.679 173 228.634 173 228.588C173 228.542 173 228.497 173 228.451C173 228.405 173 228.359 173 228.314C173 228.268 173 228.222 173 228.176C173 228.131 173 228.085 173 228.039C173 227.993 173 227.948 173 227.902C173 227.856 173 227.81 173 227.764C173 227.718 173 227.673 173 227.627C173 227.581 173 227.535 173 227.489C173 227.443 173 227.397 173 227.352C173 227.306 173 227.26 173 227.214C173 227.168 173 227.122 173 227.076C173 227.03 173 226.984 173 226.938C173 226.892 173 226.846 173 226.8C173 226.754 173 226.709 173 226.663C173 226.617 173 226.571 173 226.525C173 226.479 173 226.433 173 226.387C173 226.34 173 226.294 173 226.248C173 226.202 173 226.156 173 226.11C173 226.064 173 226.018 173 225.972C173 225.926 173 225.88 173 225.834C173 225.788 173 225.742 173 225.696C173 225.649 173 225.603 173 225.557C173 225.511 173 225.465 173 225.419C173 225.373 173 225.326 173 225.28C173 225.234 173 225.188 173 225.142C173 225.096 173 225.049 173 225.003C173 224.957 173 224.911 173 224.865C173 224.818 173 224.772 173 224.726C173 224.68 173 224.634 173 224.587C173 224.541 173 224.495 173 224.449C173 224.402 173 224.356 173 224.31C173 224.264 173 224.217 173 224.171C173 224.125 173 224.079 173 224.032C173 223.986 173 223.94 173 223.893C173 223.847 173 223.801 173 223.754C173 223.708 173 223.662 173 223.615C173 223.569 173 223.523 173 223.476C173 223.43 173 223.384 173 223.337C173 223.291 173 223.245 173 223.198C173 223.152 173 223.106 173 223.059C173 223.013 173 222.966 173 222.92C173 222.874 173 222.827 173 222.781C173 222.735 173 222.688 173 222.642C173 222.595 173 222.549 173 222.502C173 222.456 173 222.41 173 222.363C173 222.317 173 222.27 173 222.224C173 222.177 173 222.131 173 222.085C173 222.038 173 221.992 173 221.945C173 221.899 173 221.852 173 221.806C173 221.759 173 221.713 173 221.666C173 221.62 173 221.574 173 221.527C173 221.481 173 221.434 173 221.388C173 221.341 173 221.295 173 221.248C173 221.202 173 221.155 173 221.109C173 221.062 173 221.016 173 220.969C173 220.923 173 220.876 173 220.83C173 220.783 173 220.737 173 220.69C173 220.643 173 220.597 173 220.55C173 220.504 173 220.457 173 220.411C173 220.364 173 220.318 173 220.271C173 220.225 173 220.178 173 220.132C173 220.085 173 220.039 173 219.992C173 219.945 173 219.899 173 219.852C173 219.806 173 219.759 173 219.713C173 219.666 173 219.62 173 219.573C173 219.526 173 219.48 173 219.433C173 219.387 173 219.34 173 219.294C173 219.247 173 219.2 173 219.154C173 219.107 173 219.061 173 219.014C173 218.968 173 218.921 173 218.874C173 218.828 173 218.781 173 218.735C173 218.688 173 218.642 173 218.595C173 218.548 173 218.502 173 218.455C173 218.409 173 218.362 173 218.315C173 218.269 173 218.222 173 218.176C173 218.129 173 218.083 173 218.036C173 217.989 173 217.943 173 217.896C173 217.85 173 217.803 173 217.756C173 217.71 173 217.663 173 217.617C173 217.57 173 217.524 173 217.477C173 217.43 173 217.384 173 217.337C173 217.291 173 217.244 173 217.197C173 217.151 173 217.104 173 217.058C173 217.011 173 216.965 173 216.918C173 216.871 173 216.825 173 216.778C173 216.732 173 216.685 173 216.639C173 216.592 173 216.545 173 216.499C173 216.452 173 216.406 173 216.359C173 216.313 173 216.266 173 216.219C173 216.173 173 216.126 173 216.08C173 216.033 173 215.987 173 215.94C173 215.893 173 215.847 173 215.8C173 215.754 173 215.707 173 215.661C173 215.614 173 215.568 173 215.521C173 215.475 173 215.428 173 215.381C173 215.335 173 215.288 173 215.242C173 215.195 173 215.149 173 215.102C173 215.056 173 215.009 173 214.963C173 214.916 173 214.87 173 214.823C173 214.777 173 214.73 173 214.684C173 214.637 173 214.591 173 214.544C173 214.498 173 214.451 173 214.405C173 214.358 173 214.312 173 214.265C173 214.219 173 214.172 173 214.126C173 214.079 173 214.033 173 213.986C173 213.94 173 213.893 173 213.847C173 213.8 173 213.754 173 213.707C173 213.661 173 213.614 173 213.568C173 213.522 173 213.475 173 213.429C173 213.382 173 213.336 173 213.289C173 213.243 173 213.197 173 213.15C173 213.104 173 213.057 173 213.011C173 212.964 173 212.918 173 212.872C173 212.825 173 212.779 173 212.732C173 212.686 173 212.64 173 212.593C173 212.547 173 212.501 173 212.454C173 212.408 173 212.362 173 212.315C173 212.269 173 212.222 173 212.176C173 212.13 173 212.083 173 212.037C173 211.991 173 211.944 173 211.898C173 211.852 173 211.805 173 211.759C173 211.713 173 211.667 173 211.62C173 211.574 173 211.528 173 211.481C173 211.435 173 211.389 173 211.343C173 211.296 173 211.25 173 211.204C173 211.158 173 211.111 173 211.065C173 211.019 173 210.973 173 210.926C173 210.88 173 210.834 173 210.788C173 210.742 173 210.695 173 210.649C173 210.603 173 210.557 173 210.511C173 210.464 173 210.418 173 210.372C173 210.326 173 210.28 173 210.234C173 210.187 173 210.141 173 210.095C173 210.049 173 210.003 173 209.957C173 209.911 173 209.865 173 209.819C173 209.772 173 209.726 173 209.68C173 209.634 173 209.588 173 209.542C173 209.496 173 209.45 173 209.404C173 209.358 173 209.312 173 209.266C173 209.22 173 209.174 173 209.128C173 209.082 173 209.036 173 208.99C173 208.944 173 208.898 173 208.852C173 208.806 173 208.76 173 208.714C173 208.668 173 208.622 173 208.576C173 208.53 173 208.484 173 208.438C173 208.392 173 208.347 173 208.301C173 208.255 173 208.209 173 208.163C173 208.117 173 208.071 173 208.025C173 207.98 173 207.934 173 207.888C173 207.842 173 207.796 173 207.75C173 207.705 173 207.659 173 207.613C173 207.567 173 207.521 173 207.476C173 207.43 173 207.384 173 207.338C173 207.293 173 207.247 173 207.201C173 207.156 173 207.11 173 207.064C173 207.018 173 206.973 173 206.927C173 206.881 173 206.836 173 206.79C173 206.744 173 206.699 173 206.653C173 206.608 173 206.562 173 206.516C173 206.471 173 206.425 173 206.38C173 206.334 173 206.288 173 206.243C173 206.197 173 206.152 173 206.106C173 206.061 173 206.015 173 205.97C173 205.924 173 205.879 173 205.833C173 205.788 173 205.742 173 205.697C173 205.651 173 205.606 173 205.561C173 205.515 173 205.47 173 205.424C173 205.379 173 205.333 173 205.288C173 205.243 173 205.197 173 205.152C173 205.107 173 205.061 173 205.016C173 204.971 173 204.925 173 204.88C173 204.835 173 204.79 173 204.744C173 204.699 173 204.654 173 204.609C173 204.563 173 204.518 173 204.473C173 204.428 173 204.382 173 204.337C173 204.292 173 204.247 173 204.202C173 204.157 173 204.112 173 204.066C173 204.021 173 203.976 173 203.931C173 203.886 173 203.841 173 203.796C173 203.751 173 203.706 173 203.661C173 203.616 173 203.571 173 203.526C173 203.481 173 203.436 173 203.391C173 203.346 173 203.301 173 203.256C173 203.211 173 203.166 173 203.121C173 203.076 173 203.031 173 202.986C173 202.942 173 202.897 173 202.852C173 202.807 173 202.762 173 202.717C173 202.673 173 202.628 173 202.583C173 202.538 173 202.493 173 202.449C173 202.404 173 202.359 173 202.315C173 202.27 173 202.225 173 202.18C173 202.136 173 202.091 173 202.046C173 202.002 173 201.957 173 201.913C173 201.868 173 201.823 173 201.779C173 201.734 173 201.69 173 201.645C173 201.601 173 201.556 173 201.512C173 201.467 173 201.423 173 201.378C173 201.334 173 201.289 173 201.245C173 201.2 173 201.156 173 201.111C173 201.067 173 201.023 173 200.978C173 200.934 173 200.89 173 200.845C173 200.801 173 200.757 173 200.712C173 200.668 173 200.624 173 200.58C173 200.535 173 200.491 173 200.447C173 200.403 173 200.358 173 200.314C173 200.27 173 200.226 173 200.182C173 200.138 173 200.093 173 200.049C173 200.005 173 199.961 173 199.917C173 199.873 173 199.829 173 199.785C173 199.741 173 199.697 173 199.653C173 199.609 173 199.565 173 199.521C173 199.477 173 199.433 173 199.389C173 199.345 173 199.301 173 199.258C173 199.214 173 199.17 173 199.126C173 199.082 173 199.038 173 198.995C173 198.951 173 198.907 173 198.863C173 198.82 173 198.776 173 198.732C173 198.688 173 198.645 173 198.601C173 198.557 173 198.514 173 198.47C173 198.427 173 198.383 173 198.339C173 198.296 173 198.252 173 198.209C173 198.165 173 198.122 173 198.078C173 198.035 173 197.991 173 197.948C173 197.904 173 197.861 173 197.817C173 197.774 173 197.731 173 197.687C173 197.644 173 197.601 173 197.557C173 197.514 173 197.471 173 197.427C173 197.384 173 197.341 173 197.298C173 197.254 173 197.211 173 197.168C173 197.125 173 197.082 173 197.039C173 196.995 173 196.952 173 196.909C173 196.866 173 196.823 173 196.78C173 196.737 173 196.694 173 196.651C173 196.608 173 196.565 173 196.522C173 196.479 173 196.436 173 196.393C173 196.35 173 196.307 173 196.264C173 196.222 173 196.179 173 196.136C173 196.093 173 196.05 173 196.008C173 195.965 173 195.922 173 195.879C173 195.837 173 195.794 173 195.751C173 195.709 173 195.666 173 195.623C173 195.581 173 195.538 173 195.495C173 195.453 173 195.41 173 195.368C173 195.325 173 195.283 173 195.24C173 195.198 173 195.155 173 195.113C173 195.07 173 195.028 173 194.986C173 194.943 173 194.901 173 194.859C173 194.816 173 194.774 173 194.732C173 194.689 173 194.647 173 194.605C173 194.563 173 194.52 173 194.478C173 194.436 173 194.394 173 194.352C173 194.31 173 194.268 173 194.226C173 194.183 173 194.141 173 194.099C173 194.057 173 194.015 173 193.973C173 193.931 173 193.889 173 193.848C173 193.806 173 193.764 173 193.722C173 193.68 173 193.638 173 193.596C173 193.555 173 193.513 173 193.471C173 193.429 173 193.388 173 193.346C173 193.304 173 193.262 173 193.221C173 193.179 173 193.137 173 193.096C173 193.054 173 193.013 173 192.971C173 192.93 173 192.888 173 192.847C173 192.805 173 192.764 173 192.722C173 192.681 173 192.639 173 192.598C173 192.557 173 192.515 173 192.474C173 192.433 173 192.391 173 192.35C173 192.309 173 192.268 173 192.226C173 192.185 173 192.144 173 192.103C173 192.062 173 192.021 173 191.979C173 191.938 173 191.897 173 191.856C173 191.815 173 191.774 173 191.733C173 191.692 173 191.651 173 191.61C173 191.569 173 191.529 173 191.488C173 191.447 173 191.406 173 191.365C173 191.324 173 191.284 173 191.243C173 191.202 173 191.161 173 191.121C173 191.08 173 191.039 173 190.999C173 190.958 173 190.917 173 190.877C173 190.836 173 190.796 173 190.755C173 190.715 173 190.674 173 190.634C173 190.593 173 190.553 173 190.513C173 190.472 173 190.432 173 190.391C173 190.351 173 190.311 173 190.271C173 190.23 173 190.19 173 190.15C173 190.11 173 190.069 173 190.029C173 189.989 173 189.949 173 189.909C173 189.869 173 189.829 173 189.789C173 189.749 173 189.709 173 189.669C173 189.629 173 189.589 173 189.549C173 189.509 173 189.469 173 189.429C173 189.39 173 189.35 173 189.31C173 189.27 173 189.23 173 189.191C173 189.151 173 189.111 173 189.072C173 189.032 173 188.993 173 188.953C173 188.913 173 188.874 173 188.834C173 188.795 173 188.755 173 188.716C173 188.676 173 188.637 173 188.598C173 188.558 173 188.519 173 188.48C173 188.44 173 188.401 173 188.362C173 188.322 173 188.283 173 188.244C173 188.205 173 188.166 173 188.127C173 188.087 173 188.048 173 188.009C173 187.97 173 187.931 173 187.892C173 187.853 173 187.814 173 187.775C173 187.736 173 187.698 173 187.659C173 187.62 173 187.581 173 187.542C173 187.503 173 187.465 173 187.426C173 187.387 173 187.349 173 187.31C173 187.271 173 187.233 173 187.194C173 187.156 173 187.117 173 187.079C173 187.04 173 187.002 173 186.963C173 186.925 173 186.886 173 186.848C173 186.81 173 186.771 173 186.733C173 186.695 173 186.656 173 186.618C173 186.58 173 186.542 173 186.503C173 186.465 173 186.427 173 186.389C173 186.351 173 186.313 173 186.275C173 186.237 173 186.199 173 186.161C173 186.123 173 186.085 173 186.047C173 186.009 173 185.972 173 185.934C173 185.896 173 185.858 173 185.82C173 185.783 173 185.745 173 185.707C173 185.67 173 185.632 173 185.595C173 185.557 173 185.519 173 185.482C173 185.444 173 185.407 173 185.369C173 185.332 173 185.295 173 185.257C173 185.22 173 185.183 173 185.145C173 185.108 173 185.071 173 185.034C173 184.996 173 184.959 173 184.922C173 184.885 173 184.848 173 184.811C173 184.774 173 184.737 173 184.7C173 184.663 173 184.626 173 184.589C173 184.552 173 184.515 173 184.478C173 184.441 173 184.404 173 184.368C173 184.331 173 184.294 173 184.258C173 184.221 173 184.184 173 184.148C173 184.111 173 184.074 173 184.038C173 184.001 173 183.965 173 183.928C173 183.892 173 183.856 173 183.819C173 183.783 173 183.746 173 183.71C173 183.674 173 183.638 173 183.601C173 183.565 173 183.529 173 183.493C173 183.457 173 183.421 173 183.384C173 183.348 173 183.312 173 183.276C173 183.24 173 183.204 173 183.169C173 183.133 173 183.097 173 183.061C173 183.025 173 182.989 173 182.954C173 182.918 173 182.882 173 182.847C173 182.811 173 182.775 173 182.74C173 182.704 173 182.669 173 182.633C173 182.597 173 182.562 173 182.527C173 182.491 173 182.456 173 182.42C173 182.385 173 182.35 173 182.315C173 182.279 173 182.244 173 182.209C173 182.174 173 182.139 173 182.103C173 182.068 173 182.033 173 181.998C173 181.963 173 181.928 173 181.893C173 181.858 173 181.824 173 181.789C173 181.754 173 181.719 173 181.684C173 181.65 173 181.615 173 181.58C173 181.546 173 181.511 173 181.476C173 181.442 173 181.407 173 181.373C173 181.338 173 181.304 173 181.269C173 181.235 173 181.2 173 181.166C173 181.132 173 181.097 173 181.063C173 181.029 173 180.995 173 180.961C173 180.926 173 180.892 173 180.858C173 180.824 173 180.79 173 180.756C173 180.722 173 180.688 173 180.654C173 180.62 173 180.586 173 180.553C173 180.519 173 180.485 173 180.451C173 180.418 173 180.384 173 180.35C173 180.317 173 180.283 173 180.249C173 180.216 173 180.182 173 180.149C173 180.115 173 180.082 173 180.049C173 180.015 173 179.982 173 179.949C173 179.915 173 179.882 173 179.849C173 179.816 173 179.782 173 179.749C173 179.716 173 179.683 173 179.65C173 179.617 173 179.584 173 179.551C173 179.518 173 179.485 173 179.452C173 179.42 173 179.387 173 179.354C173 179.321 173 179.289 173 179.256C173 179.223 173 179.191 173 179.158C173 179.125 173 179.093 173 179.06C173 179.028 173 178.995 173 178.963C173 178.931 173 178.898 173 178.866C173 178.834 173 178.801 173 178.769C173 178.737 173 178.705 173 178.673C173 178.641 173 178.609 173 178.577C173 178.545 173 178.513 173 178.481C173 178.449 173 178.417 173 178.385C173 178.353 173 178.321 173 178.29C173 178.258 173 178.226 173 178.195C173 178.163 173 178.131 173 178.1C173 178.068 173 178.037 173 178.005C173 177.974 173 177.942 173 177.911C173 177.88 173 177.848 173 177.817C173 177.786 173 177.755 173 177.723C173 177.692 173 177.661 173 177.63C173 177.599 173 177.568 173 177.537C173 177.506 173 177.475 173 177.444C173 177.413 173 177.382 173 177.352C173 177.321 173 177.29 173 177.259C173 177.229 173 177.198 173 177.167C173 177.137 173 177.106 173 177.076C173 177.045 173 177.015 173 176.984C173 176.954 173 176.924 173 176.893C173 176.863 173 176.833 173 176.803C173 176.772 173 176.742 173 176.712C173 176.682 173 176.652 173 176.622C173 176.592 173 176.562 173 176.532C173 176.502 173 176.472 173 176.442C173 176.413 173 176.383 173 176.353C173 176.323 173 176.294 173 176.264C173 176.235 173 176.205 173 176.176C173 176.146 173 176.117 173 176.087C173 176.058 173 176.028 173 175.999C173 175.97 173 175.941 173 175.911C173 175.882 173 175.853 173 175.824C173 175.795 173 175.766 173 175.737C173 175.708 173 175.679 173 175.65C173 175.621 173 175.592 173 175.563C173 175.535 173 175.506 173 175.477C173 175.448 173 175.42 173 175.391C173 175.363 173 175.334 173 175.306C173 175.277 173 175.249 173 175.22C173 175.192 173 175.164 173 175.135C173 175.107 173 175.079 173 175.051C173 175.022 173 174.994 173 174.966C173 174.938 173 174.91 173 174.882C173 174.854 173 174.826 173 174.798C173 174.771 173 174.743 173 174.715C173 174.687 173 174.66 173 174.632C173 174.604 173 174.577 173 174.549C173 174.522 173 174.494 173 174.467C173 174.439 173 174.412 173 174.385C173 174.357 173 174.33 173 174.303C173 174.275 173 174.248 173 174.221C173 174.194 173 174.167 173 174.14C173 174.113 173 174.086 173 174.059C173 174.032 173 174.005 173 173.979C173 173.952 173 173.925 173 173.898C173 173.872 173 173.845 173 173.819C173 173.792 173 173.765 173 173.739C173 173.712 173 173.686 173 173.66C173 173.633 173 173.607 173 173.581C173 173.555 173 173.528 173 173.502C173 173.476 173 173.45 173 173.424C173 173.398 173 173.372 173 173.346C173 173.32 173 173.294 173 173.269C173 173.243 173 173.217 173 173.191C173 173.166 173 173.14 173 173.114C173 173.089 173 173.063 173 173.038C173 173.012 173 172.987 173 172.962C173 172.936 173 172.911 173 172.886C173 172.86 173 172.835 173 172.81C173 172.785 173 172.76 173 172.735C173 172.71 173 172.685 173 172.66C173 172.635 173 172.61 173 172.585C173 172.561 173 172.536 173 172.511C173 172.487 173 172.462 173 172.437C173 172.413 173 172.388 173 172.364C173 172.339 173 172.315 173 172.291C173 172.266 173 172.242 173 172.218C173 172.194 173 172.169 173 172.145C173 172.121 173 172.097 173 172.073C173 172.049 173 172.025 173 172.001C173 171.978 173 171.954 173 171.93C173 171.906 173 171.882 173 171.859C173 171.835 173 171.812 173 171.788C173 171.765 173 171.741 173 171.718C173 171.694 173 171.671 173 171.648C173 171.624 173 171.601 173 171.578C173 171.555 173 171.532 173 171.509C173 171.486 173 171.463 173 171.44C173 171.417 173 171.394 173 171.371C173 171.348 173 171.325 173 171.303C173 171.28 173 171.257 173 171.235C173 171.212 173 171.19 173 171.167C173 171.145 173 171.122 173 171.1C173 171.078 173 171.055 173 171.033C173 171.011 173 170.989 173 170.967C173 170.945 173 170.923 173 170.901C173 170.879 173 170.857 173 170.835C173 170.813 173 170.791 173 170.769C173 170.748 173 170.726 173 170.704C173 170.683 173 170.661 173 170.64C173 170.618 173 170.597 173 170.575C173 170.554 173 170.533 173 170.512C173 170.49 173 170.469 173 170.448C173 170.427 173 170.406 173 170.385C173 170.364 173 170.343 173 170.322C173 170.301 173 170.28 173 170.26C173 170.239 173 170.218 173 170.197C173 170.177 173 170.156 173 170.136H191C191 170.156 191 170.177 191 170.197C191 170.218 191 170.239 191 170.26C191 170.28 191 170.301 191 170.322C191 170.343 191 170.364 191 170.385C191 170.406 191 170.427 191 170.448C191 170.469 191 170.49 191 170.512C191 170.533 191 170.554 191 170.575C191 170.597 191 170.618 191 170.64C191 170.661 191 170.683 191 170.704C191 170.726 191 170.748 191 170.769C191 170.791 191 170.813 191 170.835C191 170.857 191 170.879 191 170.901C191 170.923 191 170.945 191 170.967C191 170.989 191 171.011 191 171.033C191 171.055 191 171.078 191 171.1C191 171.122 191 171.145 191 171.167C191 171.19 191 171.212 191 171.235C191 171.257 191 171.28 191 171.303C191 171.325 191 171.348 191 171.371C191 171.394 191 171.417 191 171.44C191 171.463 191 171.486 191 171.509C191 171.532 191 171.555 191 171.578C191 171.601 191 171.624 191 171.648C191 171.671 191 171.694 191 171.718C191 171.741 191 171.765 191 171.788C191 171.812 191 171.835 191 171.859C191 171.882 191 171.906 191 171.93C191 171.954 191 171.978 191 172.001C191 172.025 191 172.049 191 172.073C191 172.097 191 172.121 191 172.145C191 172.169 191 172.194 191 172.218C191 172.242 191 172.266 191 172.291C191 172.315 191 172.339 191 172.364C191 172.388 191 172.413 191 172.437C191 172.462 191 172.487 191 172.511C191 172.536 191 172.561 191 172.585C191 172.61 191 172.635 191 172.66C191 172.685 191 172.71 191 172.735C191 172.76 191 172.785 191 172.81C191 172.835 191 172.86 191 172.886C191 172.911 191 172.936 191 172.962C191 172.987 191 173.012 191 173.038C191 173.063 191 173.089 191 173.114C191 173.14 191 173.166 191 173.191C191 173.217 191 173.243 191 173.269C191 173.294 191 173.32 191 173.346C191 173.372 191 173.398 191 173.424C191 173.45 191 173.476 191 173.502C191 173.528 191 173.555 191 173.581C191 173.607 191 173.633 191 173.66C191 173.686 191 173.712 191 173.739C191 173.765 191 173.792 191 173.819C191 173.845 191 173.872 191 173.898C191 173.925 191 173.952 191 173.979C191 174.005 191 174.032 191 174.059C191 174.086 191 174.113 191 174.14C191 174.167 191 174.194 191 174.221C191 174.248 191 174.275 191 174.303C191 174.33 191 174.357 191 174.385C191 174.412 191 174.439 191 174.467C191 174.494 191 174.522 191 174.549C191 174.577 191 174.604 191 174.632C191 174.66 191 174.687 191 174.715C191 174.743 191 174.771 191 174.798C191 174.826 191 174.854 191 174.882C191 174.91 191 174.938 191 174.966C191 174.994 191 175.022 191 175.051C191 175.079 191 175.107 191 175.135C191 175.164 191 175.192 191 175.22C191 175.249 191 175.277 191 175.306C191 175.334 191 175.363 191 175.391C191 175.42 191 175.448 191 175.477C191 175.506 191 175.535 191 175.563C191 175.592 191 175.621 191 175.65C191 175.679 191 175.708 191 175.737C191 175.766 191 175.795 191 175.824C191 175.853 191 175.882 191 175.911C191 175.941 191 175.97 191 175.999C191 176.028 191 176.058 191 176.087C191 176.117 191 176.146 191 176.176C191 176.205 191 176.235 191 176.264C191 176.294 191 176.323 191 176.353C191 176.383 191 176.413 191 176.442C191 176.472 191 176.502 191 176.532C191 176.562 191 176.592 191 176.622C191 176.652 191 176.682 191 176.712C191 176.742 191 176.772 191 176.803C191 176.833 191 176.863 191 176.893C191 176.924 191 176.954 191 176.984C191 177.015 191 177.045 191 177.076C191 177.106 191 177.137 191 177.167C191 177.198 191 177.229 191 177.259C191 177.29 191 177.321 191 177.352C191 177.382 191 177.413 191 177.444C191 177.475 191 177.506 191 177.537C191 177.568 191 177.599 191 177.63C191 177.661 191 177.692 191 177.723C191 177.755 191 177.786 191 177.817C191 177.848 191 177.88 191 177.911C191 177.942 191 177.974 191 178.005C191 178.037 191 178.068 191 178.1C191 178.131 191 178.163 191 178.195C191 178.226 191 178.258 191 178.29C191 178.321 191 178.353 191 178.385C191 178.417 191 178.449 191 178.481C191 178.513 191 178.545 191 178.577C191 178.609 191 178.641 191 178.673C191 178.705 191 178.737 191 178.769C191 178.801 191 178.834 191 178.866C191 178.898 191 178.931 191 178.963C191 178.995 191 179.028 191 179.06C191 179.093 191 179.125 191 179.158C191 179.191 191 179.223 191 179.256C191 179.289 191 179.321 191 179.354C191 179.387 191 179.42 191 179.452C191 179.485 191 179.518 191 179.551C191 179.584 191 179.617 191 179.65C191 179.683 191 179.716 191 179.749C191 179.782 191 179.816 191 179.849C191 179.882 191 179.915 191 179.949C191 179.982 191 180.015 191 180.049C191 180.082 191 180.115 191 180.149C191 180.182 191 180.216 191 180.249C191 180.283 191 180.317 191 180.35C191 180.384 191 180.418 191 180.451C191 180.485 191 180.519 191 180.553C191 180.586 191 180.62 191 180.654C191 180.688 191 180.722 191 180.756C191 180.79 191 180.824 191 180.858C191 180.892 191 180.926 191 180.961C191 180.995 191 181.029 191 181.063C191 181.097 191 181.132 191 181.166C191 181.2 191 181.235 191 181.269C191 181.304 191 181.338 191 181.373C191 181.407 191 181.442 191 181.476C191 181.511 191 181.546 191 181.58C191 181.615 191 181.65 191 181.684C191 181.719 191 181.754 191 181.789C191 181.824 191 181.858 191 181.893C191 181.928 191 181.963 191 181.998C191 182.033 191 182.068 191 182.103C191 182.139 191 182.174 191 182.209C191 182.244 191 182.279 191 182.315C191 182.35 191 182.385 191 182.42C191 182.456 191 182.491 191 182.527C191 182.562 191 182.597 191 182.633C191 182.669 191 182.704 191 182.74C191 182.775 191 182.811 191 182.847C191 182.882 191 182.918 191 182.954C191 182.989 191 183.025 191 183.061C191 183.097 191 183.133 191 183.169C191 183.204 191 183.24 191 183.276C191 183.312 191 183.348 191 183.384C191 183.421 191 183.457 191 183.493C191 183.529 191 183.565 191 183.601C191 183.638 191 183.674 191 183.71C191 183.746 191 183.783 191 183.819C191 183.856 191 183.892 191 183.928C191 183.965 191 184.001 191 184.038C191 184.074 191 184.111 191 184.148C191 184.184 191 184.221 191 184.258C191 184.294 191 184.331 191 184.368C191 184.404 191 184.441 191 184.478C191 184.515 191 184.552 191 184.589C191 184.626 191 184.663 191 184.7C191 184.737 191 184.774 191 184.811C191 184.848 191 184.885 191 184.922C191 184.959 191 184.996 191 185.034C191 185.071 191 185.108 191 185.145C191 185.183 191 185.22 191 185.257C191 185.295 191 185.332 191 185.369C191 185.407 191 185.444 191 185.482C191 185.519 191 185.557 191 185.595C191 185.632 191 185.67 191 185.707C191 185.745 191 185.783 191 185.82C191 185.858 191 185.896 191 185.934C191 185.972 191 186.009 191 186.047C191 186.085 191 186.123 191 186.161C191 186.199 191 186.237 191 186.275C191 186.313 191 186.351 191 186.389C191 186.427 191 186.465 191 186.503C191 186.542 191 186.58 191 186.618C191 186.656 191 186.695 191 186.733C191 186.771 191 186.81 191 186.848C191 186.886 191 186.925 191 186.963C191 187.002 191 187.04 191 187.079C191 187.117 191 187.156 191 187.194C191 187.233 191 187.271 191 187.31C191 187.349 191 187.387 191 187.426C191 187.465 191 187.503 191 187.542C191 187.581 191 187.62 191 187.659C191 187.698 191 187.736 191 187.775C191 187.814 191 187.853 191 187.892C191 187.931 191 187.97 191 188.009C191 188.048 191 188.087 191 188.127C191 188.166 191 188.205 191 188.244C191 188.283 191 188.322 191 188.362C191 188.401 191 188.44 191 188.48C191 188.519 191 188.558 191 188.598C191 188.637 191 188.676 191 188.716C191 188.755 191 188.795 191 188.834C191 188.874 191 188.913 191 188.953C191 188.993 191 189.032 191 189.072C191 189.111 191 189.151 191 189.191C191 189.23 191 189.27 191 189.31C191 189.35 191 189.39 191 189.429C191 189.469 191 189.509 191 189.549C191 189.589 191 189.629 191 189.669C191 189.709 191 189.749 191 189.789C191 189.829 191 189.869 191 189.909C191 189.949 191 189.989 191 190.029C191 190.069 191 190.11 191 190.15C191 190.19 191 190.23 191 190.271C191 190.311 191 190.351 191 190.391C191 190.432 191 190.472 191 190.513C191 190.553 191 190.593 191 190.634C191 190.674 191 190.715 191 190.755C191 190.796 191 190.836 191 190.877C191 190.917 191 190.958 191 190.999C191 191.039 191 191.08 191 191.121C191 191.161 191 191.202 191 191.243C191 191.284 191 191.324 191 191.365C191 191.406 191 191.447 191 191.488C191 191.529 191 191.569 191 191.61C191 191.651 191 191.692 191 191.733C191 191.774 191 191.815 191 191.856C191 191.897 191 191.938 191 191.979C191 192.021 191 192.062 191 192.103C191 192.144 191 192.185 191 192.226C191 192.268 191 192.309 191 192.35C191 192.391 191 192.433 191 192.474C191 192.515 191 192.557 191 192.598C191 192.639 191 192.681 191 192.722C191 192.764 191 192.805 191 192.847C191 192.888 191 192.93 191 192.971C191 193.013 191 193.054 191 193.096C191 193.137 191 193.179 191 193.221C191 193.262 191 193.304 191 193.346C191 193.388 191 193.429 191 193.471C191 193.513 191 193.555 191 193.596C191 193.638 191 193.68 191 193.722C191 193.764 191 193.806 191 193.848C191 193.889 191 193.931 191 193.973C191 194.015 191 194.057 191 194.099C191 194.141 191 194.183 191 194.226C191 194.268 191 194.31 191 194.352C191 194.394 191 194.436 191 194.478C191 194.52 191 194.563 191 194.605C191 194.647 191 194.689 191 194.732C191 194.774 191 194.816 191 194.859C191 194.901 191 194.943 191 194.986C191 195.028 191 195.07 191 195.113C191 195.155 191 195.198 191 195.24C191 195.283 191 195.325 191 195.368C191 195.41 191 195.453 191 195.495C191 195.538 191 195.581 191 195.623C191 195.666 191 195.709 191 195.751C191 195.794 191 195.837 191 195.879C191 195.922 191 195.965 191 196.008C191 196.05 191 196.093 191 196.136C191 196.179 191 196.222 191 196.264C191 196.307 191 196.35 191 196.393C191 196.436 191 196.479 191 196.522C191 196.565 191 196.608 191 196.651C191 196.694 191 196.737 191 196.78C191 196.823 191 196.866 191 196.909C191 196.952 191 196.995 191 197.039C191 197.082 191 197.125 191 197.168C191 197.211 191 197.254 191 197.298C191 197.341 191 197.384 191 197.427C191 197.471 191 197.514 191 197.557C191 197.601 191 197.644 191 197.687C191 197.731 191 197.774 191 197.817C191 197.861 191 197.904 191 197.948C191 197.991 191 198.035 191 198.078C191 198.122 191 198.165 191 198.209C191 198.252 191 198.296 191 198.339C191 198.383 191 198.427 191 198.47C191 198.514 191 198.557 191 198.601C191 198.645 191 198.688 191 198.732C191 198.776 191 198.82 191 198.863C191 198.907 191 198.951 191 198.995C191 199.038 191 199.082 191 199.126C191 199.17 191 199.214 191 199.258C191 199.301 191 199.345 191 199.389C191 199.433 191 199.477 191 199.521C191 199.565 191 199.609 191 199.653C191 199.697 191 199.741 191 199.785C191 199.829 191 199.873 191 199.917C191 199.961 191 200.005 191 200.049C191 200.093 191 200.138 191 200.182C191 200.226 191 200.27 191 200.314C191 200.358 191 200.403 191 200.447C191 200.491 191 200.535 191 200.58C191 200.624 191 200.668 191 200.712C191 200.757 191 200.801 191 200.845C191 200.89 191 200.934 191 200.978C191 201.023 191 201.067 191 201.111C191 201.156 191 201.2 191 201.245C191 201.289 191 201.334 191 201.378C191 201.423 191 201.467 191 201.512C191 201.556 191 201.601 191 201.645C191 201.69 191 201.734 191 201.779C191 201.823 191 201.868 191 201.913C191 201.957 191 202.002 191 202.046C191 202.091 191 202.136 191 202.18C191 202.225 191 202.27 191 202.315C191 202.359 191 202.404 191 202.449C191 202.493 191 202.538 191 202.583C191 202.628 191 202.673 191 202.717C191 202.762 191 202.807 191 202.852C191 202.897 191 202.942 191 202.986C191 203.031 191 203.076 191 203.121C191 203.166 191 203.211 191 203.256C191 203.301 191 203.346 191 203.391C191 203.436 191 203.481 191 203.526C191 203.571 191 203.616 191 203.661C191 203.706 191 203.751 191 203.796C191 203.841 191 203.886 191 203.931C191 203.976 191 204.021 191 204.066C191 204.112 191 204.157 191 204.202C191 204.247 191 204.292 191 204.337C191 204.382 191 204.428 191 204.473C191 204.518 191 204.563 191 204.609C191 204.654 191 204.699 191 204.744C191 204.79 191 204.835 191 204.88C191 204.925 191 204.971 191 205.016C191 205.061 191 205.107 191 205.152C191 205.197 191 205.243 191 205.288C191 205.333 191 205.379 191 205.424C191 205.47 191 205.515 191 205.561C191 205.606 191 205.651 191 205.697C191 205.742 191 205.788 191 205.833C191 205.879 191 205.924 191 205.97C191 206.015 191 206.061 191 206.106C191 206.152 191 206.197 191 206.243C191 206.288 191 206.334 191 206.38C191 206.425 191 206.471 191 206.516C191 206.562 191 206.608 191 206.653C191 206.699 191 206.744 191 206.79C191 206.836 191 206.881 191 206.927C191 206.973 191 207.018 191 207.064C191 207.11 191 207.156 191 207.201C191 207.247 191 207.293 191 207.338C191 207.384 191 207.43 191 207.476C191 207.521 191 207.567 191 207.613C191 207.659 191 207.705 191 207.75C191 207.796 191 207.842 191 207.888C191 207.934 191 207.98 191 208.025C191 208.071 191 208.117 191 208.163C191 208.209 191 208.255 191 208.301C191 208.347 191 208.392 191 208.438C191 208.484 191 208.53 191 208.576C191 208.622 191 208.668 191 208.714C191 208.76 191 208.806 191 208.852C191 208.898 191 208.944 191 208.99C191 209.036 191 209.082 191 209.128C191 209.174 191 209.22 191 209.266C191 209.312 191 209.358 191 209.404C191 209.45 191 209.496 191 209.542C191 209.588 191 209.634 191 209.68C191 209.726 191 209.772 191 209.819C191 209.865 191 209.911 191 209.957C191 210.003 191 210.049 191 210.095C191 210.141 191 210.187 191 210.234C191 210.28 191 210.326 191 210.372C191 210.418 191 210.464 191 210.511C191 210.557 191 210.603 191 210.649C191 210.695 191 210.742 191 210.788C191 210.834 191 210.88 191 210.926C191 210.973 191 211.019 191 211.065C191 211.111 191 211.158 191 211.204C191 211.25 191 211.296 191 211.343C191 211.389 191 211.435 191 211.481C191 211.528 191 211.574 191 211.62C191 211.667 191 211.713 191 211.759C191 211.805 191 211.852 191 211.898C191 211.944 191 211.991 191 212.037C191 212.083 191 212.13 191 212.176C191 212.222 191 212.269 191 212.315C191 212.362 191 212.408 191 212.454C191 212.501 191 212.547 191 212.593C191 212.64 191 212.686 191 212.732C191 212.779 191 212.825 191 212.872C191 212.918 191 212.964 191 213.011C191 213.057 191 213.104 191 213.15C191 213.197 191 213.243 191 213.289C191 213.336 191 213.382 191 213.429C191 213.475 191 213.522 191 213.568C191 213.614 191 213.661 191 213.707C191 213.754 191 213.8 191 213.847C191 213.893 191 213.94 191 213.986C191 214.033 191 214.079 191 214.126C191 214.172 191 214.219 191 214.265C191 214.312 191 214.358 191 214.405C191 214.451 191 214.498 191 214.544C191 214.591 191 214.637 191 214.684C191 214.73 191 214.777 191 214.823C191 214.87 191 214.916 191 214.963C191 215.009 191 215.056 191 215.102C191 215.149 191 215.195 191 215.242C191 215.288 191 215.335 191 215.381C191 215.428 191 215.475 191 215.521C191 215.568 191 215.614 191 215.661C191 215.707 191 215.754 191 215.8C191 215.847 191 215.893 191 215.94C191 215.987 191 216.033 191 216.08C191 216.126 191 216.173 191 216.219C191 216.266 191 216.313 191 216.359C191 216.406 191 216.452 191 216.499C191 216.545 191 216.592 191 216.639C191 216.685 191 216.732 191 216.778C191 216.825 191 216.871 191 216.918C191 216.965 191 217.011 191 217.058C191 217.104 191 217.151 191 217.197C191 217.244 191 217.291 191 217.337C191 217.384 191 217.43 191 217.477C191 217.524 191 217.57 191 217.617C191 217.663 191 217.71 191 217.756C191 217.803 191 217.85 191 217.896C191 217.943 191 217.989 191 218.036C191 218.083 191 218.129 191 218.176C191 218.222 191 218.269 191 218.315C191 218.362 191 218.409 191 218.455C191 218.502 191 218.548 191 218.595C191 218.642 191 218.688 191 218.735C191 218.781 191 218.828 191 218.874C191 218.921 191 218.968 191 219.014C191 219.061 191 219.107 191 219.154C191 219.2 191 219.247 191 219.294C191 219.34 191 219.387 191 219.433C191 219.48 191 219.526 191 219.573C191 219.62 191 219.666 191 219.713C191 219.759 191 219.806 191 219.852C191 219.899 191 219.945 191 219.992C191 220.039 191 220.085 191 220.132C191 220.178 191 220.225 191 220.271C191 220.318 191 220.364 191 220.411C191 220.457 191 220.504 191 220.55C191 220.597 191 220.643 191 220.69C191 220.737 191 220.783 191 220.83C191 220.876 191 220.923 191 220.969C191 221.016 191 221.062 191 221.109C191 221.155 191 221.202 191 221.248C191 221.295 191 221.341 191 221.388C191 221.434 191 221.481 191 221.527C191 221.574 191 221.62 191 221.666C191 221.713 191 221.759 191 221.806C191 221.852 191 221.899 191 221.945C191 221.992 191 222.038 191 222.085C191 222.131 191 222.177 191 222.224C191 222.27 191 222.317 191 222.363C191 222.41 191 222.456 191 222.502C191 222.549 191 222.595 191 222.642C191 222.688 191 222.735 191 222.781C191 222.827 191 222.874 191 222.92C191 222.966 191 223.013 191 223.059C191 223.106 191 223.152 191 223.198C191 223.245 191 223.291 191 223.337C191 223.384 191 223.43 191 223.476C191 223.523 191 223.569 191 223.615C191 223.662 191 223.708 191 223.754C191 223.801 191 223.847 191 223.893C191 223.94 191 223.986 191 224.032C191 224.079 191 224.125 191 224.171C191 224.217 191 224.264 191 224.31C191 224.356 191 224.402 191 224.449C191 224.495 191 224.541 191 224.587C191 224.634 191 224.68 191 224.726C191 224.772 191 224.818 191 224.865C191 224.911 191 224.957 191 225.003C191 225.049 191 225.096 191 225.142C191 225.188 191 225.234 191 225.28C191 225.326 191 225.373 191 225.419C191 225.465 191 225.511 191 225.557C191 225.603 191 225.649 191 225.696C191 225.742 191 225.788 191 225.834C191 225.88 191 225.926 191 225.972C191 226.018 191 226.064 191 226.11C191 226.156 191 226.202 191 226.248C191 226.294 191 226.34 191 226.387C191 226.433 191 226.479 191 226.525C191 226.571 191 226.617 191 226.663C191 226.709 191 226.754 191 226.8C191 226.846 191 226.892 191 226.938C191 226.984 191 227.03 191 227.076C191 227.122 191 227.168 191 227.214C191 227.26 191 227.306 191 227.352C191 227.397 191 227.443 191 227.489C191 227.535 191 227.581 191 227.627C191 227.673 191 227.718 191 227.764C191 227.81 191 227.856 191 227.902C191 227.948 191 227.993 191 228.039C191 228.085 191 228.131 191 228.176C191 228.222 191 228.268 191 228.314C191 228.359 191 228.405 191 228.451C191 228.497 191 228.542 191 228.588C191 228.634 191 228.679 191 228.725C191 228.771 191 228.816 191 228.862C191 228.908 191 228.953 191 228.999C191 229.044 191 229.09 191 229.136C191 229.181 191 229.227 191 229.272C191 229.318 191 229.364 191 229.409C191 229.455 191 229.5 191 229.546C191 229.591 191 229.637 191 229.682C191 229.728 191 229.773 191 229.819C191 229.864 191 229.91 191 229.955C191 230 191 230.046 191 230.091C191 230.137 191 230.182 191 230.228C191 230.273 191 230.318 191 230.364C191 230.409 191 230.454 191 230.5C191 230.545 191 230.59 191 230.636H173Z" fill="black"/>
<path d="M1089.89 18.0285C1084.98 18.7925 1080.38 15.4303 1079.62 10.5188C1078.85 5.60729 1082.21 1.00638 1087.13 0.242369L1089.89 18.0285ZM1105.01 46.6354L1096.1 45.3322L1105.01 46.6354ZM1088.51 197.636L1079.88 200.2L1088.51 197.636ZM1087.13 0.242369C1093.89 -0.809121 1102.78 1.45059 1108.75 9.99323C1114.44 18.1381 1116.46 30.5511 1113.91 47.9386L1096.1 45.3322C1098.36 29.9197 1095.88 22.9994 1093.99 20.3026C1092.39 18.0036 1090.63 17.9133 1089.89 18.0285L1087.13 0.242369ZM1113.91 47.9386C1112.33 58.7626 1109.39 70.318 1106.28 82.0306C1103.13 93.8956 1099.79 106.002 1097.13 118.562C1091.82 143.634 1089.51 169.411 1097.14 195.071L1079.88 200.2C1071.01 170.361 1073.95 141.138 1079.52 114.834C1082.3 101.707 1085.8 89.0317 1088.88 77.4122C1092.01 65.6403 1094.69 55.0082 1096.1 45.3322L1113.91 47.9386ZM1097.14 195.071C1110.62 240.418 1114.01 284.396 1114.01 301.136L1096.01 301.136C1096.01 285.876 1092.8 243.653 1079.88 200.2L1097.14 195.071Z" fill="black"/>
<path d="M675.108 18.0285C680.019 18.7925 684.62 15.4303 685.384 10.5188C686.148 5.60729 682.786 1.00638 677.874 0.242369L675.108 18.0285ZM659.991 46.6354L668.896 45.3322L659.991 46.6354ZM676.491 197.636L685.118 200.2L676.491 197.636ZM677.874 0.242369C671.115 -0.809121 662.22 1.45059 656.251 9.99323C650.56 18.1381 648.541 30.5511 651.086 47.9386L668.896 45.3322C666.641 29.9197 669.122 22.9994 671.006 20.3026C672.612 18.0036 674.367 17.9133 675.108 18.0285L677.874 0.242369ZM651.086 47.9386C652.67 58.7626 655.613 70.318 658.722 82.0306C661.872 93.8956 665.215 106.002 667.874 118.562C673.181 143.634 675.493 169.411 667.864 195.071L685.118 200.2C693.989 170.361 691.051 141.138 685.483 114.834C682.705 101.707 679.204 89.0317 676.119 77.4122C672.994 65.6403 670.312 55.0082 668.896 45.3322L651.086 47.9386ZM667.864 195.071C654.383 240.418 650.991 284.396 650.991 301.136L668.991 301.136C668.991 285.876 672.199 243.653 685.118 200.2L667.864 195.071Z" fill="black"/>
</svg>
