<svg width="5667" height="288" viewBox="0 0 5667 288" fill="none" xmlns="http://www.w3.org/2000/svg">
<path d="M4750.58 263.9C5047.75 263.9 5484.68 157.073 5666 103.659V7.2374H1V103.659C155.153 157.073 537.753 263.9 834.926 263.9C1206.39 263.9 1650.85 103.659 1958.83 103.659C2266.8 103.659 2593.27 263.9 2946.74 263.9C3300.21 263.9 3617.68 103.659 3907.66 103.659C4197.63 103.659 4379.11 263.9 4750.58 263.9Z" fill="#B52D2D" fill-opacity="0.49" stroke="black"/>
<path d="M4750.58 287C5047.75 287 5484.68 180.015 5666 126.523V31.6204H1V126.523C155.153 180.015 537.753 287 834.926 287C1206.39 287 1650.85 126.523 1958.83 126.523C2266.8 126.523 2593.27 287 2946.74 287C3300.21 287 3617.68 126.523 3907.66 126.523C4197.63 126.523 4379.11 287 4750.58 287Z" fill="#B52D2D" fill-opacity="0.49" stroke="black"/>
<path d="M4750.5 252.992C5047.7 252.992 5484.67 128.938 5666 66.9115V0.499985H0.5V66.9115C154.667 128.938 537.3 252.992 834.5 252.992C1206 252.992 1650.5 66.9115 1958.5 66.9115C2266.5 66.9115 2593 252.992 2946.5 252.992C3300 252.992 3617.5 66.9115 3907.5 66.9115C4197.5 66.9115 4379 252.992 4750.5 252.992Z" fill="#591313" stroke="black"/>
</svg>
