<svg width="38" height="71" viewBox="0 0 38 71" fill="none" xmlns="http://www.w3.org/2000/svg">
<path d="M21.7002 3C21.7002 1.61929 20.5809 0.5 19.2002 0.5C17.8195 0.5 16.7002 1.61929 16.7002 3L21.7002 3ZM17.4324 69.7678C18.4087 70.7441 19.9916 70.7441 20.968 69.7678L36.8779 53.8579C37.8542 52.8816 37.8542 51.2986 36.8779 50.3223C35.9016 49.346 34.3186 49.346 33.3423 50.3223L19.2002 64.4645L5.05806 50.3223C4.08175 49.346 2.49883 49.346 1.52252 50.3223C0.546213 51.2986 0.546213 52.8816 1.52252 53.8579L17.4324 69.7678ZM16.7002 3L16.7002 68L21.7002 68L21.7002 3L16.7002 3Z" fill="white"/>
</svg>
