<svg width="482" height="610" viewBox="0 0 482 610" fill="none" xmlns="http://www.w3.org/2000/svg">
<mask id="path-1-inside-1_6_1893" fill="white">
<rect width="482" height="610" rx="10"/>
</mask>
<rect width="482" height="610" rx="10" fill="#004612"/>
<path d="M382.154 332.256C382.154 332.256 305.011 282.069 264.224 259.616C223.438 237.164 105.415 197.597 105.415 197.597L122.691 231.671C122.691 231.671 209.378 334.862 243.445 344.375C277.507 353.881 382.154 332.256 382.154 332.256" fill="#AF1D23"/>
<path d="M257.686 364.146L348.709 89.049L314.666 81.036L229.429 361.185L257.686 364.146" fill="#E87F34"/>
<path d="M130.847 135.005L135.898 244.76L155.825 245.376L160.864 129.524L130.847 135.005Z" fill="#E87F34"/>
<path d="M162.876 108.179L206.524 222.613L229.966 190.492L193.671 91.917L162.876 108.179" fill="#E59832"/>
<path d="M187.798 173.515L186.56 170.267L187.798 173.515ZM176.556 144.045L171.859 131.733L176.556 144.045Z" fill="url(#paint0_radial_6_1893)"/>
<path d="M187.798 173.515L186.56 170.267C187.387 166.03 187.928 163.181 188.071 162.292C189.054 156.07 185.098 150.054 180.594 145.631C179.853 144.903 178.429 144.393 176.556 144.045L171.859 131.733L172.643 132.28C175.747 134.252 178.777 135.105 181.688 135.105C190.255 135.105 197.864 127.708 203.786 119.384L207.196 128.653L187.798 173.515" fill="#D36D1F"/>
<path d="M254.189 203.022L276.585 115.707L310.591 133.742L276.063 215.527L254.189 203.022Z" fill="#E59832"/>
<path d="M291.256 344.73L348.996 184.794L322.916 180.29L262.079 338.185L291.256 344.73" fill="#F3B43F"/>
<path d="M225.528 308.124L401.552 188.421L425 226.62L231.053 348.948L225.528 308.124" fill="#E87F34"/>
<path d="M310.698 250.204L328.503 238.098L310.698 250.204Z" fill="#E28024"/>
<path d="M283.406 309.156C291.854 290.735 302.306 268.065 310.698 250.204L328.504 238.098C328.51 240.99 328.634 243.871 328.933 246.726L315.943 290.368C311.955 294.58 307.998 298.767 304.166 302.83L296.103 307.918C292.632 307.645 289.148 307.178 285.652 306.525C285.123 307.551 284.389 308.472 283.406 309.156V309.156ZM246.744 302.917C247.018 302.351 247.285 301.791 247.559 301.231L250.284 298.456C249.687 300.366 248.48 302.021 246.744 302.917ZM257.165 297.84C255.672 297.237 254.191 296.621 252.71 295.986L260.953 287.581L257.165 297.84" fill="#D55D21"/>
<path d="M247.56 301.23L250.285 298.456L247.56 301.23ZM252.711 295.986L260.954 287.581L252.711 295.986ZM281.97 230.768C281.97 230.768 281.97 230.768 281.963 230.768C280.713 226.127 279.606 221.25 278.803 216.261L291.774 204.254L290.779 206.947C290.779 206.947 290.779 206.947 290.779 206.941L281.97 230.768V230.768ZM323.254 224.118C324.355 221.965 325.114 220.597 325.444 220.211C328.984 215.981 329.071 209.697 324.361 203.314C322.594 200.919 317.661 200.166 312.192 200.166C305.362 200.166 297.691 201.336 294.294 201.914L317.86 180.097L319.11 178.933L312.367 171.76L326.283 156.835L348.363 133.145L380.184 166.117L368.526 177.994L351.249 171.754L341.065 205.971L323.254 224.118" fill="url(#paint1_linear_6_1893)"/>
<path d="M247.557 301.23C253.218 289.534 258.071 279.605 258.593 278.828C258.599 278.821 258.599 278.821 258.606 278.815V278.809L258.612 278.803C258.612 278.803 258.612 278.797 258.618 278.797C258.618 278.79 258.618 278.79 258.618 278.79C258.624 278.784 258.624 278.784 258.624 278.784C258.624 278.778 258.63 278.778 258.63 278.778C258.63 278.772 258.637 278.765 258.643 278.759V278.753L258.649 278.747V278.741C258.655 278.741 258.655 278.734 258.655 278.734C258.662 278.728 258.662 278.722 258.662 278.722H258.668C258.668 278.716 258.668 278.709 258.674 278.703C260.124 276.364 265.15 263.654 264.342 256.313C263.819 251.541 253.983 247.864 246.163 246.49L278.8 216.261C279.602 221.25 280.71 226.127 281.96 230.768C281.966 230.768 281.966 230.768 281.966 230.768L274.327 251.417L260.951 287.581L252.708 295.986C252.03 295.7 251.358 295.407 250.686 295.109C250.754 296.247 250.611 297.392 250.282 298.456L247.557 301.23V301.23ZM221.291 281.752C222.709 276.501 224.19 271.02 225.689 265.452L229.652 261.781C227.126 267.66 224.202 274.672 221.291 281.752Z" fill="url(#paint2_linear_6_1893)"/>
<path d="M328.52 338.496L401.178 293.15L382.515 262.865L311.288 323.441L328.52 338.496Z" fill="#E87F34"/>
<path d="M232.405 222.556L248.549 96.1097L283.469 101.572L258.465 224.821L232.405 222.556" fill="#F3B43F"/>
<path d="M244.791 193.79C245.96 189.255 246.732 186.15 246.962 184.999C248.81 175.854 245.04 172.899 239.403 167.742L240.399 159.94L243.665 153.65C248.835 157.918 254.614 161.128 262.976 161.228C263.268 161.228 263.56 161.234 263.859 161.234C266.323 161.234 268.873 161.116 271.436 160.861L269.533 170.267L244.791 193.79" fill="#E28024"/>
<path d="M351.247 171.754L389.85 185.702L332.945 312.59L311.687 304.664L351.247 171.754" fill="#F3B43F"/>
<path d="M197.496 224.516C196.992 224.292 196.501 224.037 196.028 223.745C187.797 218.631 185.128 208.708 182.074 199.955C181.763 199.078 181.464 198.2 181.171 197.323C182.31 191.643 183.38 186.281 184.326 181.534L187.797 173.515L207.195 128.653V128.647L212.85 115.57L243.029 139.323L248.765 143.833L243.664 153.65L240.398 159.94L236.995 166.497C235.259 165.968 232.982 165.763 230.444 165.763C220.272 165.763 205.944 169.135 205.944 169.135L197.496 224.516" fill="url(#paint3_linear_6_1893)"/>
<path d="M181.345 254.104C179.889 252.4 178.52 250.571 177.239 248.593C175.615 246.085 174.053 243.329 172.467 240.505C175.185 227.055 178.383 211.228 181.17 197.323C181.463 198.2 181.761 199.078 182.073 199.955C185.127 208.708 187.796 218.631 196.027 223.745C196.5 224.037 196.991 224.292 197.495 224.516L194.95 241.171L181.345 254.104" fill="url(#paint4_linear_6_1893)"/>
<path d="M294.123 340.76L391.473 267.225C391.473 267.225 399.424 255.467 396.68 250.409C393.931 245.351 374.508 234.041 368.703 236.797C362.899 239.553 269.456 339.84 269.456 339.84L294.123 340.76Z" fill="#F3AB2E"/>
<path d="M317.958 315.627C313.274 315.627 308.844 314.32 304.676 312.093C310.965 306.432 317.274 300.77 323.06 294.593C337.157 279.531 353.189 268.588 368.636 255.977C369.619 256.886 370.839 257.707 372.338 258.416C377.321 260.787 382.56 262.603 387.468 265.135C388.737 265.788 390.062 266.547 391.419 267.269L342.059 304.547C341.754 304.553 341.45 304.559 341.145 304.565C336.342 309.318 330.681 313.294 324.055 314.893C321.977 315.39 319.943 315.627 317.958 315.627" fill="url(#paint5_linear_6_1893)"/>
<path d="M323.058 294.593C337.174 279.512 353.231 268.557 368.703 255.921C363.465 251.038 365.07 243.678 368.224 237.121C359.341 243.373 269.456 339.84 269.456 339.84L277.662 340.145C290.21 322.725 308.339 310.307 323.058 294.593" fill="#E2731F"/>
<path d="M150.183 283.737L291.411 149.464L319.108 178.934L176.897 310.637L150.183 283.737" fill="#F3B43F"/>
<path d="M225.69 265.452L229.653 261.782L225.69 265.452ZM246.164 246.49L257.954 235.572C251.82 233.077 246.892 227.919 244.584 219.004C243.993 216.734 243.539 214.413 243.203 212.049C251.726 203.047 260.15 193.933 269.046 185.372C276.039 178.647 283.33 173.739 289.919 167.555C293.085 171.518 296.998 174.896 301.714 177.453C305.409 179.456 309.553 180.433 313.671 180.433C315.077 180.433 316.477 180.321 317.858 180.097L294.292 201.915C293.172 202.108 292.519 202.238 292.519 202.238L291.772 204.254L278.801 216.261L246.164 246.49V246.49ZM244.79 193.79L269.531 170.267L283.629 156.861C283.648 156.892 283.66 156.923 283.672 156.954C283.66 156.923 283.648 156.892 283.629 156.861L244.79 193.79ZM283.71 157.041C283.71 157.041 283.71 157.035 283.703 157.035C283.71 157.035 283.71 157.041 283.71 157.041Z" fill="url(#paint6_linear_6_1893)"/>
<path d="M225.69 265.452C227.992 256.91 230.344 248.157 232.609 239.715C232.615 239.696 232.621 239.684 232.621 239.665C232.758 239.167 232.895 238.664 233.025 238.166C233.038 238.135 233.044 238.104 233.05 238.072C233.075 237.973 233.106 237.867 233.131 237.768C233.137 237.737 233.15 237.712 233.156 237.681C233.181 237.575 233.212 237.469 233.243 237.363C233.249 237.345 233.255 237.32 233.255 237.301C233.287 237.189 233.318 237.077 233.349 236.971C233.349 236.953 233.355 236.928 233.361 236.909C233.386 236.828 233.405 236.754 233.423 236.679C233.467 236.511 233.517 236.337 233.56 236.163C233.591 236.057 233.616 235.957 233.647 235.852C233.654 235.814 233.666 235.783 233.672 235.746C233.685 235.708 233.697 235.665 233.703 235.628C233.728 235.54 233.753 235.453 233.778 235.366C233.79 235.317 233.803 235.267 233.815 235.217C233.871 235.018 233.921 234.813 233.977 234.614C233.983 234.582 233.996 234.545 234.002 234.514C235.676 228.274 237.274 222.271 238.755 216.728C240.242 215.172 241.723 213.611 243.203 212.049C243.539 214.413 243.993 216.734 244.584 219.004C246.892 227.919 251.82 233.077 257.954 235.572L246.164 246.49C243.987 246.11 241.965 245.905 240.341 245.905C238.649 245.905 237.393 246.129 236.858 246.602C236.043 247.324 233.249 253.402 229.653 261.782L225.69 265.452" fill="url(#paint7_linear_6_1893)"/>
<path d="M230.481 225.176C243.551 212.161 255.77 198.145 269.046 185.372C276.051 178.635 283.349 173.726 289.943 167.53C287.361 164.307 285.246 160.718 283.629 156.861L150.183 283.737L169.058 302.742C185.184 273.534 206.802 248.754 230.481 225.176" fill="#E2731F"/>
<path d="M185.545 302.805L205.944 169.135C205.944 169.135 233.772 162.585 239.402 167.742C245.039 172.899 248.809 175.854 246.961 185C245.113 194.145 209.428 325.587 209.428 325.587L185.545 302.805" fill="#F3B43F"/>
<path d="M218.524 288.508C218.126 288.011 217.778 287.488 217.473 286.947C216.938 287.028 216.397 287.071 215.849 287.071C215.55 287.071 215.246 287.059 214.941 287.028C209.031 286.462 203.313 283.892 198.921 279.948C204.881 250.042 209.69 220.653 218.63 191.519C220.845 192.334 223.346 192.608 225.878 192.608C229.679 192.608 233.555 191.986 236.647 191.631C239.708 191.277 243.092 190.138 246.147 188.434C244.249 196.067 239.49 214.028 234.003 234.514C233.997 234.545 233.984 234.583 233.978 234.614C233.922 234.813 233.872 235.018 233.816 235.217C233.804 235.267 233.791 235.317 233.779 235.367C233.754 235.454 233.729 235.541 233.704 235.628C233.698 235.665 233.685 235.709 233.673 235.746C233.667 235.777 233.654 235.814 233.648 235.852C233.617 235.958 233.592 236.057 233.561 236.163C233.518 236.337 233.468 236.511 233.424 236.679C233.405 236.754 233.387 236.829 233.362 236.909C233.356 236.928 233.349 236.953 233.349 236.972C233.318 237.077 233.287 237.189 233.256 237.301C233.25 237.32 233.25 237.339 233.244 237.364C233.213 237.469 233.181 237.575 233.157 237.681C233.15 237.712 233.144 237.737 233.132 237.768C233.107 237.867 233.076 237.973 233.051 238.073C233.045 238.104 233.038 238.129 233.026 238.166C232.895 238.664 232.759 239.168 232.622 239.665C232.622 239.678 232.615 239.703 232.609 239.715C230.345 248.157 227.993 256.911 225.691 265.452C224.192 271.02 222.711 276.501 221.293 281.752C220.366 284.01 219.439 286.275 218.524 288.508V288.508ZM191.12 266.286L205.366 172.955C206.001 175.369 206.355 177.826 207.643 180.085C209.404 183.17 211.712 185.796 214.051 188.458C214.057 188.465 214.07 188.477 214.082 188.489C214.07 188.477 214.057 188.465 214.051 188.458C211.712 185.796 209.404 183.17 207.643 180.085C206.355 177.826 206.001 175.369 205.366 172.955L191.12 266.286ZM214.107 188.527C214.107 188.521 214.101 188.521 214.101 188.514C214.101 188.521 214.107 188.521 214.107 188.527Z" fill="url(#paint8_linear_6_1893)"/>
<path d="M198.896 280.072C204.868 250.117 209.677 220.678 218.636 191.495C216.894 190.854 215.314 189.896 214.051 188.458C211.711 185.796 209.403 183.17 207.643 180.085C206.355 177.826 206 175.369 205.366 172.955L185.545 302.805L192.146 309.101C193.807 298.295 197.471 287.239 198.896 280.072" fill="#E2731F"/>
<path d="M244.217 332.84L292.519 202.238C292.519 202.238 319.649 196.931 324.359 203.314C329.068 209.697 328.981 215.981 325.441 220.211C321.895 224.435 268.113 342.608 268.113 342.608C268.113 342.608 243.993 353.943 244.217 332.84" fill="#F3B43F"/>
<path d="M273.72 312.298C271.991 312.298 270.224 311.987 268.413 311.309C267.779 311.073 267.169 310.786 266.584 310.457C267.953 307.327 269.34 304.198 270.74 301.075C272.899 295.737 274.964 290.387 276.881 285.024C281.864 271.064 286.524 256.923 290.779 242.72C292.739 236.169 295.999 228.455 297.784 221.045C298.139 221.219 298.512 221.375 298.904 221.512C301.311 222.351 303.987 222.694 306.761 222.694C313.119 222.694 320.012 220.908 325.487 219.359L326.209 219.104L325.444 220.211C323.136 222.955 299.594 273.869 283.407 309.156C283.295 309.231 283.183 309.306 283.064 309.374C280.029 311.209 276.937 312.298 273.72 312.298V312.298ZM257.166 297.84L274.33 251.417L281.97 230.769L290.779 206.942C290.779 206.948 290.779 206.948 290.779 206.948C290.779 206.966 290.779 206.991 290.779 207.01C290.779 206.991 290.779 206.966 290.779 206.942L257.166 297.84ZM290.779 207.078C290.779 207.072 290.779 207.066 290.779 207.06C290.779 207.066 290.779 207.072 290.779 207.078Z" fill="url(#paint9_linear_6_1893)"/>
<path d="M270.738 301.075C272.897 295.737 274.962 290.387 276.878 285.024C281.862 271.064 286.521 256.923 290.777 242.72C292.743 236.15 296.015 228.411 297.794 220.983C292.643 218.5 290.814 212.59 290.777 206.941L244.217 332.841C244.13 340.966 247.657 344.269 252.018 345.277C257.935 330.402 264.193 315.676 270.738 301.075" fill="#E2731F"/>
<path d="M205.927 319.789C205.927 319.789 233.96 249.178 236.859 246.602C239.758 244.033 263.523 248.829 264.344 256.313C265.166 263.797 259.921 276.868 258.596 278.828C257.271 280.788 228.498 340.816 228.498 340.816C228.498 340.816 205.155 331.317 205.927 319.789" fill="#F3B43F"/>
<path d="M243.715 303.626C243.055 303.626 242.346 303.539 241.6 303.346C234.694 301.586 229.176 298.407 224.149 294.058C228.871 285.249 234.01 276.912 239.665 268.675C243.348 271.587 248.337 273.316 252.418 274.368C253.83 274.729 255.212 274.897 256.549 274.897C257.968 274.897 259.342 274.704 260.643 274.343C259.84 276.421 259.106 278.013 258.677 278.704C258.671 278.71 258.671 278.716 258.671 278.723H258.664C258.664 278.723 258.664 278.729 258.658 278.735C258.658 278.735 258.658 278.741 258.652 278.741V278.747L258.646 278.754V278.76C258.639 278.766 258.633 278.772 258.633 278.779C258.633 278.779 258.627 278.779 258.627 278.785C258.627 278.785 258.627 278.785 258.621 278.791C258.621 278.791 258.621 278.791 258.621 278.797C258.615 278.797 258.615 278.804 258.615 278.804L258.608 278.81V278.816C258.602 278.822 258.602 278.822 258.596 278.828C258.073 279.606 253.221 289.535 247.56 301.231C247.286 301.791 247.018 302.351 246.745 302.917C245.867 303.365 244.853 303.626 243.715 303.626V303.626ZM235.129 262.672C235.123 262.666 235.123 262.659 235.117 262.647C235.123 262.659 235.123 262.666 235.129 262.672ZM235.098 262.603C235.092 262.585 235.086 262.56 235.08 262.541C235.086 262.56 235.092 262.585 235.098 262.603ZM235.073 262.522C235.067 262.504 235.061 262.485 235.055 262.467C235.061 262.485 235.067 262.504 235.073 262.522ZM235.049 262.448C235.042 262.423 235.03 262.398 235.024 262.373C234.476 260.712 234.24 258.945 234.24 257.141C234.24 258.945 234.476 260.712 235.024 262.373C235.03 262.398 235.042 262.423 235.049 262.448Z" fill="url(#paint10_linear_6_1893)"/>
<path d="M218.853 304.503C224.975 291.712 231.825 280.091 239.676 268.657C237.554 266.983 235.862 264.924 235.022 262.373C233.554 257.9 234.294 252.649 235.962 247.99C230.356 258.249 205.926 319.789 205.926 319.789C205.795 321.774 206.411 323.69 207.462 325.512C211.021 318.29 215.612 311.278 218.853 304.503" fill="#E2731F"/>
<path d="M144.16 252.531C144.16 252.531 141.547 149.327 143.992 146.981C146.437 144.642 176.087 141.214 180.592 145.631C185.096 150.055 189.052 156.071 188.07 162.292C187.087 168.513 166.208 271.443 166.208 271.443C166.208 271.443 147.364 258.186 144.16 252.531Z" fill="#F3B43F"/>
<path d="M172.468 240.505C172.002 239.665 171.529 238.819 171.05 237.973C165.818 236.424 160.075 234.645 154.507 232.523C156.106 202.829 157.556 165.856 154.955 164.594C150.009 162.186 148.964 157.42 146.451 153.072C145.456 151.355 144.51 149.632 143.72 147.852C143.154 150.751 142.955 160.774 142.955 173.546C142.955 160.774 143.154 150.751 143.72 147.852C144.51 149.632 145.456 151.355 146.451 153.072C148.964 157.42 150.009 162.186 154.955 164.594C156.641 165.415 158.402 165.726 160.181 165.726C163.012 165.726 165.886 164.936 168.561 164.133C174.639 162.317 181.682 162.547 188.096 161.918L188.071 162.292C187.928 163.181 187.387 166.031 186.559 170.267C185.95 173.359 185.191 177.192 184.326 181.534C183.38 186.281 182.31 191.643 181.172 197.323C178.384 211.228 175.187 227.055 172.468 240.505" fill="url(#paint11_linear_6_1893)"/>
<path d="M154.955 164.594C150.009 162.186 148.964 157.421 146.45 153.072C145.455 151.355 144.509 149.632 143.719 147.852C141.766 157.844 144.161 252.531 144.161 252.531C147.365 258.186 152.273 269.502 152.273 269.502C152.273 269.502 159.316 166.715 154.955 164.594Z" fill="#E2731F"/>
<path d="M279.871 328.697C278.204 328.536 276.499 328.33 274.745 328.075C276.039 325.244 277.482 322.084 279.043 318.681L296.102 307.918C296.979 307.987 297.856 308.043 298.734 308.086L298.995 308.323C291.635 316.137 284.985 323.229 279.871 328.697" fill="#DF8A31"/>
<path d="M279.043 318.681C279.043 318.674 279.037 318.681 279.043 318.681L296.102 307.918L279.043 318.681Z" fill="#D46329"/>
<path d="M279.043 318.681C280.412 315.682 281.88 312.484 283.405 309.156C284.388 308.472 285.122 307.551 285.65 306.524C289.147 307.178 292.631 307.644 296.102 307.918L279.043 318.681" fill="#C54B1F"/>
<path d="M279.871 328.697C284.984 323.229 291.635 316.137 298.995 308.323C291.635 316.143 284.984 323.229 279.871 328.697ZM315.997 324.23L342.058 304.546L333.722 310.849L331.924 312.205L315.997 324.23Z" fill="#E08425"/>
<path d="M289.159 329.165C288.381 329.165 287.603 329.152 286.807 329.133C292.406 323.149 298.528 317.624 304.675 312.094C308.843 314.321 313.272 315.627 317.957 315.627C319.941 315.627 321.976 315.391 324.054 314.893C330.679 313.294 336.341 309.319 341.143 304.566C341.448 304.56 341.753 304.553 342.058 304.547L315.997 324.231C309.303 327 300.45 329.165 289.159 329.165" fill="url(#paint12_linear_6_1893)"/>
<path d="M286.807 329.133C284.586 329.071 282.272 328.934 279.871 328.698C284.984 323.229 291.635 316.143 298.995 308.323L299.629 308.895C301.265 310.096 302.945 311.172 304.675 312.093C298.528 317.624 292.406 323.148 286.807 329.133Z" fill="#D05B1D"/>
<path d="M248.448 321.4C245.549 320.374 242.556 319.235 239.477 317.972C241.841 313.07 244.348 307.869 246.743 302.917C248.479 302.021 249.686 300.366 250.283 298.456L252.709 295.986C254.19 296.621 255.671 297.237 257.164 297.84L248.448 321.4" fill="#C54B1F"/>
<path d="M250.284 298.456L252.71 295.986L250.284 298.456Z" fill="url(#paint13_linear_6_1893)"/>
<path d="M250.284 298.456C250.614 297.392 250.757 296.248 250.688 295.109C251.36 295.408 252.032 295.7 252.71 295.986L250.284 298.456" fill="url(#paint14_linear_6_1893)"/>
<path d="M274.745 328.075C277.178 322.75 280.139 316.267 283.405 309.156C281.881 312.485 280.413 315.682 279.044 318.681C279.038 318.681 279.044 318.675 279.044 318.681C277.483 322.084 276.039 325.245 274.745 328.075ZM248.448 321.4C248.448 321.394 248.454 321.4 248.448 321.4L257.164 297.84L248.448 321.4Z" fill="#DF8A31"/>
<path d="M274.746 328.075C270.229 327.416 265.42 326.433 260.3 325.07C262.359 320.187 264.456 315.315 266.583 310.457C267.168 310.786 267.778 311.073 268.412 311.309C270.223 311.987 271.989 312.298 273.719 312.298C276.935 312.298 280.027 311.209 283.063 309.374C283.181 309.306 283.293 309.231 283.405 309.156C280.139 316.267 277.178 322.75 274.746 328.075" fill="url(#paint15_linear_6_1893)"/>
<path d="M260.3 325.07C256.523 324.062 252.573 322.849 248.448 321.4L257.164 297.84C257.282 297.883 257.394 297.933 257.513 297.983C257.114 300.602 258.016 303.377 260.094 305.28C262.098 307.116 264.169 309.119 266.583 310.456C264.455 315.315 262.359 320.186 260.3 325.07Z" fill="#D05B1D"/>
<path d="M239.477 317.972C235.893 316.504 232.192 314.861 228.372 313.039C224.49 311.191 220.869 309.256 217.472 307.253C217.951 306.332 218.418 305.418 218.853 304.503C220.558 300.938 222.325 297.461 224.148 294.058C229.174 298.406 234.693 301.585 241.598 303.346C242.345 303.539 243.054 303.626 243.713 303.626C244.852 303.626 245.866 303.365 246.743 302.917C244.348 307.869 241.841 313.07 239.477 317.972" fill="url(#paint16_linear_6_1893)"/>
<path d="M212.247 303.999C206.038 299.924 200.7 295.625 196.121 291.27C197.235 287.027 198.28 283.182 198.896 280.072C198.908 280.034 198.914 279.991 198.921 279.947C203.313 283.892 209.03 286.461 214.94 287.027C215.245 287.058 215.55 287.071 215.849 287.071C216.396 287.071 216.937 287.027 217.472 286.946C217.777 287.488 218.126 288.01 218.524 288.508C216.284 294.007 214.125 299.339 212.247 303.999" fill="url(#paint17_linear_6_1893)"/>
<path d="M174.303 260.805C172.573 256.935 171.342 253.42 170.464 250.434C171.086 247.336 171.765 244.001 172.468 240.505C174.054 243.33 175.616 246.086 177.239 248.593C178.521 250.571 179.89 252.4 181.345 254.105L174.303 260.805" fill="url(#paint18_linear_6_1893)"/>
<path d="M188.532 283.245C187.089 281.553 185.757 279.867 184.513 278.193C186.479 275.412 188.501 272.669 190.56 269.956L188.532 283.245" fill="url(#paint19_linear_6_1893)"/>
<path d="M184.513 278.193C179.953 272.041 176.668 266.093 174.304 260.805L181.346 254.105C184.233 257.477 187.437 260.369 190.896 262.976L190.883 264.525C190.939 265.116 191.02 265.707 191.12 266.286L190.56 269.956C188.501 272.669 186.479 275.412 184.513 278.193" fill="#D05B1D"/>
<path d="M188.531 283.245L190.559 269.956L191.119 266.286L188.531 283.245" fill="#DF8A31"/>
<path d="M196.121 291.27C193.315 288.601 190.796 285.92 188.531 283.245L191.119 266.286C192.059 271.661 194.945 276.37 198.921 279.948C198.914 279.991 198.908 280.035 198.896 280.072C198.28 283.183 197.235 287.027 196.121 291.27" fill="#D05B1D"/>
<path d="M212.246 303.999C214.125 299.339 216.284 294.007 218.523 288.508H218.529C216.284 294.007 214.125 299.339 212.246 303.999" fill="#DF8A31"/>
<path d="M217.472 307.253C215.668 306.189 213.926 305.1 212.246 303.999C214.125 299.339 216.284 294.008 218.529 288.508C218.654 288.664 218.785 288.819 218.921 288.968C220.626 290.804 222.356 292.502 224.147 294.057C222.324 297.46 220.558 300.938 218.853 304.503C218.417 305.417 217.951 306.332 217.472 307.253" fill="#D05B1D"/>
<path d="M170.465 250.434C168.63 244.219 168.337 240.306 168.337 240.306L154.371 235.118C154.414 234.259 154.464 233.394 154.507 232.523C160.075 234.645 165.818 236.424 171.05 237.973C171.529 238.819 172.001 239.665 172.468 240.505C171.765 244.002 171.087 247.336 170.465 250.434" fill="url(#paint20_linear_6_1893)"/>
<path d="M135.128 227.969L134.848 221.916L135.128 227.969Z" fill="#9F1B20"/>
<path d="M143.682 231.148L135.128 227.969L134.848 221.916C137.355 224.038 140.342 225.947 143.614 227.677C143.633 228.859 143.657 230.022 143.682 231.148" fill="#D46329"/>
<path d="M143.682 231.148C143.657 230.022 143.632 228.859 143.613 227.677C143.638 228.859 143.657 230.022 143.682 231.148Z" fill="#DF8A31"/>
<path d="M154.37 235.117L143.682 231.148C143.657 230.022 143.638 228.859 143.613 227.677C147.01 229.475 150.718 231.08 154.507 232.523C154.463 233.394 154.413 234.259 154.37 235.117" fill="#D05B1D"/>
<path d="M105.415 197.597C105.415 197.597 91.3053 359.623 57.6235 427.316L74.9558 452.86C74.9558 452.86 182.683 494.866 245.213 529.008C245.213 529.008 328.54 382.803 382.154 332.255L332.944 312.59C332.944 312.59 305.005 349.575 228.372 313.038C171.752 286.05 168.337 240.305 168.337 240.305L128.004 225.325L105.415 197.597Z" fill="#EE263E"/>
<path d="M74.9558 452.86L57.6235 427.316C91.3053 359.623 105.415 197.597 105.415 197.597L128.004 225.325C125.342 259.187 118.884 299.955 108.264 340.256C102.746 361.178 81.8116 438.097 74.9558 452.86Z" fill="#D21E27"/>
<path d="M242.408 519.876C212.876 505.076 90.6661 451.579 87.1138 449.894C98.1751 416.753 134.694 282.729 136.523 236.212C145.942 238.794 155.249 241.731 164.344 245.121C162.783 268.445 166.248 291.936 171.057 314.874C177.222 344.275 183.381 374.33 200.944 399.315C213.554 417.244 239.851 433.32 262.248 433.32C262.335 433.32 262.428 433.32 262.522 433.32C277.446 433.233 291.164 428.747 304.658 422.868C304.658 422.868 262.254 487.003 242.408 519.876Z" fill="#D31E27"/>
<path d="M259.814 389.927C258.47 389.927 257.12 389.809 255.795 389.635C252.965 389.255 250.059 388.583 247.807 386.823C245.555 385.068 244.143 381.97 245.095 379.276C246.183 376.191 249.698 374.816 252.853 373.951C255.447 373.242 258.147 372.626 260.816 372.626C261.998 372.626 263.168 372.744 264.318 373.03C268.089 373.957 271.566 377.118 271.635 381C271.697 384.421 269.071 387.476 265.923 388.82C263.995 389.635 261.917 389.927 259.814 389.927" fill="#F47060"/>
<path d="M306.941 382.555C303.898 382.555 300.837 382.107 297.857 381.466C294.479 380.745 291.083 379.749 288.227 377.796C285.378 375.842 283.113 372.781 282.827 369.335C282.491 365.241 284.961 361.365 288.071 358.684C292.258 355.076 297.795 353.135 303.314 353.135C305.777 353.135 308.241 353.52 310.574 354.317C314.935 355.804 318.773 358.684 321.548 362.354C324.578 366.373 325.853 372.402 322.326 376.477C319.707 379.507 315.607 381.435 311.725 382.144C310.138 382.43 308.539 382.555 306.941 382.555Z" fill="#F47060"/>
<rect width="482" height="610" rx="10" stroke="#093414" stroke-width="30" mask="url(#path-1-inside-1_6_1893)"/>
<defs>
<radialGradient id="paint0_radial_6_1893" cx="0" cy="0" r="1" gradientUnits="userSpaceOnUse" gradientTransform="translate(-43.3597 724.494) scale(1605.28 1605.28)">
<stop stop-color="#E6B05F"/>
<stop offset="0.877005" stop-color="#DDA458"/>
<stop offset="1" stop-color="#DA9F54"/>
</radialGradient>
<linearGradient id="paint1_linear_6_1893" x1="320" y1="142.408" x2="224.098" y2="373.153" gradientUnits="userSpaceOnUse">
<stop stop-color="#F8A42E"/>
<stop offset="1" stop-color="#F27120"/>
</linearGradient>
<linearGradient id="paint2_linear_6_1893" x1="319.997" y1="142.408" x2="224.095" y2="373.153" gradientUnits="userSpaceOnUse">
<stop stop-color="#EE761D"/>
<stop offset="1" stop-color="#DE541D"/>
</linearGradient>
<linearGradient id="paint3_linear_6_1893" x1="239.595" y1="105.162" x2="137.649" y2="350.449" gradientUnits="userSpaceOnUse">
<stop stop-color="#F8A42E"/>
<stop offset="1" stop-color="#F27120"/>
</linearGradient>
<linearGradient id="paint4_linear_6_1893" x1="239.594" y1="105.162" x2="137.648" y2="350.449" gradientUnits="userSpaceOnUse">
<stop stop-color="#EE761D"/>
<stop offset="1" stop-color="#DE541D"/>
</linearGradient>
<linearGradient id="paint5_linear_6_1893" x1="334.276" y1="287.376" x2="403.768" y2="252.366" gradientUnits="userSpaceOnUse">
<stop stop-color="#F8A42E"/>
<stop offset="1" stop-color="#F27120"/>
</linearGradient>
<linearGradient id="paint6_linear_6_1893" x1="185.178" y1="211.813" x2="280.532" y2="258.212" gradientUnits="userSpaceOnUse">
<stop stop-color="#F8A42E"/>
<stop offset="1" stop-color="#F27120"/>
</linearGradient>
<linearGradient id="paint7_linear_6_1893" x1="185.178" y1="211.813" x2="280.532" y2="258.212" gradientUnits="userSpaceOnUse">
<stop stop-color="#EE761D"/>
<stop offset="1" stop-color="#DE541D"/>
</linearGradient>
<linearGradient id="paint8_linear_6_1893" x1="242.787" y1="164.121" x2="173.081" y2="331.839" gradientUnits="userSpaceOnUse">
<stop stop-color="#F8A42E"/>
<stop offset="1" stop-color="#F27120"/>
</linearGradient>
<linearGradient id="paint9_linear_6_1893" x1="316.945" y1="192.682" x2="247.239" y2="360.399" gradientUnits="userSpaceOnUse">
<stop stop-color="#F8A42E"/>
<stop offset="1" stop-color="#F27120"/>
</linearGradient>
<linearGradient id="paint10_linear_6_1893" x1="242.477" y1="273.945" x2="217.568" y2="336.601" gradientUnits="userSpaceOnUse">
<stop stop-color="#F8A42E"/>
<stop offset="1" stop-color="#F27120"/>
</linearGradient>
<linearGradient id="paint11_linear_6_1893" x1="178.198" y1="153.75" x2="108.492" y2="321.468" gradientUnits="userSpaceOnUse">
<stop stop-color="#F8A42E"/>
<stop offset="1" stop-color="#F27120"/>
</linearGradient>
<linearGradient id="paint12_linear_6_1893" x1="334.275" y1="287.376" x2="403.767" y2="252.367" gradientUnits="userSpaceOnUse">
<stop stop-color="#ED8023"/>
<stop offset="1" stop-color="#DC5A1D"/>
</linearGradient>
<linearGradient id="paint13_linear_6_1893" x1="319.998" y1="142.41" x2="224.095" y2="373.152" gradientUnits="userSpaceOnUse">
<stop stop-color="#ED8023"/>
<stop offset="1" stop-color="#DC5A1D"/>
</linearGradient>
<linearGradient id="paint14_linear_6_1893" x1="319.998" y1="142.412" x2="224.097" y2="373.152" gradientUnits="userSpaceOnUse">
<stop stop-color="#D95E1C"/>
<stop offset="1" stop-color="#CB4420"/>
</linearGradient>
<linearGradient id="paint15_linear_6_1893" x1="316.944" y1="192.682" x2="247.237" y2="360.399" gradientUnits="userSpaceOnUse">
<stop stop-color="#ED8023"/>
<stop offset="1" stop-color="#DC5A1D"/>
</linearGradient>
<linearGradient id="paint16_linear_6_1893" x1="242.475" y1="273.945" x2="217.567" y2="336.601" gradientUnits="userSpaceOnUse">
<stop stop-color="#ED8023"/>
<stop offset="1" stop-color="#DC5A1D"/>
</linearGradient>
<linearGradient id="paint17_linear_6_1893" x1="242.787" y1="164.12" x2="173.08" y2="331.838" gradientUnits="userSpaceOnUse">
<stop stop-color="#ED8023"/>
<stop offset="1" stop-color="#DC5A1D"/>
</linearGradient>
<linearGradient id="paint18_linear_6_1893" x1="239.595" y1="105.163" x2="137.649" y2="350.449" gradientUnits="userSpaceOnUse">
<stop stop-color="#D95E1C"/>
<stop offset="1" stop-color="#CB4420"/>
</linearGradient>
<linearGradient id="paint19_linear_6_1893" x1="185.179" y1="211.812" x2="280.533" y2="258.211" gradientUnits="userSpaceOnUse">
<stop stop-color="#D95E1C"/>
<stop offset="1" stop-color="#CB4420"/>
</linearGradient>
<linearGradient id="paint20_linear_6_1893" x1="178.198" y1="153.75" x2="108.491" y2="321.468" gradientUnits="userSpaceOnUse">
<stop stop-color="#ED8023"/>
<stop offset="1" stop-color="#DC5A1D"/>
</linearGradient>
</defs>
</svg>
