<svg width="482" height="610" viewBox="0 0 482 610" fill="none" xmlns="http://www.w3.org/2000/svg">
<mask id="path-1-inside-1_6_1998" fill="white">
<rect width="482" height="610" rx="10"/>
</mask>
<rect width="482" height="610" rx="10" fill="#004612"/>
<path d="M284.13 480.582C298.27 474.755 311.431 467.786 324.787 460.39C336.771 453.75 350.701 448.371 360.815 439.259L372 467.275C372 467.275 347.592 492.867 326.524 501.377C305.463 509.893 285.012 513.899 285.012 513.899L264.407 486.57C271.005 485.163 277.504 483.307 284.13 480.582Z" fill="#CCD3CD"/>
<path d="M329.15 458.058C339.011 452.938 349.65 448.218 358.195 441.417C359.385 445.143 360.604 448.869 361.872 452.574C364.029 458.864 366.13 465.083 367.734 471.519C362.719 476.359 353.81 484.505 343.956 491.438C340.832 479.665 335.67 468.424 329.15 458.058Z" fill="#A6AFB1"/>
<path d="M276.574 502.707L270.278 494.358L276.574 502.707ZM367.883 456.951L361.86 441.857L367.883 456.951Z" fill="url(#paint0_radial_6_1998)"/>
<path d="M276.574 502.707C290.918 498.532 307.195 496.179 320.789 489.463C327.303 486.248 333.655 482.725 339.798 478.873C338.18 474.81 336.338 470.839 334.3 466.959C330.006 469.915 325.188 472.961 319.781 476.064C295.842 489.806 279.845 493.672 270.278 494.358L276.574 502.707ZM364.444 460.221C365.6 459.143 366.742 458.05 367.883 456.951L361.86 441.857C361.104 442.859 360.27 443.91 359.352 445.002C360.172 447.531 361.012 450.059 361.874 452.573C362.749 455.13 363.618 457.672 364.444 460.221" fill="#A3ABA9"/>
<path d="M339.798 478.874C345.786 475.112 351.571 471.036 357.111 466.624C359.64 464.614 362.063 462.45 364.444 460.222C363.618 457.673 362.749 455.131 361.874 452.574C361.013 450.06 360.172 447.531 359.353 445.003C354.219 451.11 346.34 458.674 334.3 466.96C336.338 470.84 338.18 474.811 339.798 478.874" fill="#869093"/>
<path d="M308.504 231.294C308.504 231.294 342.452 387.9 368.583 429.79C368.583 429.79 363.463 450.99 319.78 476.064C276.097 501.138 258.861 493.329 258.861 493.329C258.861 493.329 204.112 395.408 129.401 331.988C129.401 331.988 211.424 312.769 308.504 231.294Z" fill="#EE263E"/>
<path d="M194.972 345.463C194.972 345.463 204.826 380.076 256.9 351.256C308.974 322.435 346.892 367.68 343.615 407.693C340.337 447.713 298.699 484.028 259.288 464.2C259.288 464.2 290.834 473.375 306.936 443.069C323.044 412.756 294.938 394.238 261.901 392.473C228.857 390.708 198.985 395.562 194.972 345.463Z" fill="#E1F4ED"/>
<path d="M234.557 377.388C236.623 381.177 241.407 382.55 245.245 380.462C249.076 378.368 250.512 373.606 248.446 369.817C246.379 366.028 241.603 364.648 237.765 366.742C233.927 368.829 232.491 373.599 234.557 377.388" fill="#EE263E"/>
<path d="M290.615 489.75C297.066 487.502 304.588 484.273 313.301 479.636C312.902 479.083 311.585 477.017 309.54 473.732C300.246 478.453 292.429 481.485 285.944 483.39C288.822 487.285 290.496 489.568 290.615 489.75ZM266.515 457.21C273.288 449.169 278.926 440.331 283.058 430.763C275.669 418.724 267.58 405.507 259.525 392.361C241.196 391.535 224.016 392.305 211.927 383.999C230.368 408.631 251.002 436.338 266.515 457.21ZM199.446 367.343C197.758 362.966 196.47 357.79 195.636 351.662C193.248 352.089 190.866 352.474 188.506 352.803C191.889 357.286 195.566 362.175 199.446 367.343V367.343ZM221.102 362.721C226.173 362.721 232.182 361.733 239.284 359.282C235.761 353.525 232.392 348.027 229.269 342.921C219.232 346.332 208.502 349.231 197.863 351.256C201.246 356.263 208.131 362.714 221.102 362.721" fill="#EF354E"/>
<path d="M259.525 392.361C256.037 386.667 252.563 380.98 249.152 375.419C248.634 377.485 247.275 379.348 245.244 380.462C244.025 381.12 242.716 381.435 241.427 381.435C238.646 381.435 235.971 379.972 234.556 377.387C232.49 373.598 233.926 368.828 237.764 366.741C238.976 366.076 240.285 365.761 241.574 365.761C242.183 365.761 242.786 365.831 243.374 365.971C241.987 363.709 240.628 361.481 239.284 359.282C232.182 361.733 226.172 362.721 221.102 362.721C208.131 362.714 201.246 356.264 197.863 351.256C197.121 351.396 196.378 351.536 195.636 351.662C196.469 357.79 197.758 362.966 199.446 367.344C203.417 372.638 207.612 378.242 211.927 383.999C224.015 392.305 241.196 391.535 259.525 392.361" fill="#F9F8F3"/>
<path d="M241.427 381.436C242.716 381.436 244.025 381.121 245.244 380.463C247.275 379.349 248.634 377.486 249.152 375.42C247.205 372.226 245.272 369.067 243.374 365.972C242.786 365.832 242.183 365.762 241.574 365.762C240.285 365.762 238.975 366.077 237.764 366.742C233.926 368.829 232.49 373.599 234.556 377.388C235.971 379.972 238.646 381.436 241.427 381.436" fill="#EF354E"/>
<path d="M152.269 352.986C148.179 348.952 144.018 344.995 139.774 341.122C139.739 341.122 139.704 341.129 139.669 341.129C143.976 345.072 148.165 349.022 152.241 352.979C152.248 352.986 152.262 352.986 152.269 352.986" fill="url(#paint1_radial_6_1998)"/>
<path d="M168.302 354.317C174.745 354.317 181.56 353.778 188.508 352.804C183.339 345.948 178.85 340.023 175.348 335.442C161.165 338.944 149.384 340.576 139.775 341.122C144.019 344.995 148.18 348.952 152.27 352.987C157.229 353.897 162.615 354.317 168.302 354.317V354.317ZM229.27 342.922C238.501 339.784 247.144 336.219 254.596 332.521C260.956 329.363 267.021 325.931 272.701 322.352C269.192 314.626 265.354 307.013 261.355 299.498C252.264 305.599 242.038 311.314 230.587 316.279C225.733 318.381 221.048 320.314 216.516 322.093C219.934 327.675 224.298 334.805 229.27 342.922Z" fill="#CC1E25"/>
<path d="M319.199 277.254V277.247C316.496 266.167 314.198 256.375 312.433 248.713H312.426C314.198 256.375 316.496 266.167 319.199 277.254Z" fill="url(#paint2_radial_6_1998)"/>
<path d="M312.111 288.838C315.571 284.496 317.995 280.546 319.199 277.254C316.496 266.167 314.198 256.375 312.426 248.713C309.989 252.32 307.167 256.207 303.931 260.276C306.13 268.401 309.065 278.479 312.111 288.838" fill="#CC1E25"/>
<path d="M188.507 352.804C190.867 352.475 193.248 352.09 195.637 351.663C195.364 349.695 195.14 347.635 194.971 345.464C194.971 345.464 195.714 348.07 197.864 351.256C208.503 349.232 219.233 346.333 229.269 342.922C224.297 334.804 219.933 327.674 216.515 322.092C200.995 328.186 187.316 332.479 175.347 335.442C178.849 340.022 183.338 345.947 188.507 352.804Z" fill="#DB2028"/>
<path d="M195.637 351.663C196.38 351.537 197.122 351.396 197.865 351.256C195.715 348.07 194.972 345.464 194.972 345.464C195.14 347.635 195.364 349.695 195.637 351.663" fill="#D54854"/>
<path d="M267.449 374.838C270.684 380.784 278.578 382.724 285.085 379.18C291.584 375.636 294.231 367.946 290.989 362.007C287.753 356.068 279.86 354.128 273.36 357.665C266.853 361.215 264.206 368.899 267.449 374.838" fill="#EE263E"/>
<path d="M310.331 397.496C312.831 402.076 318.834 403.624 323.75 400.948C328.66 398.273 330.614 392.383 328.114 387.802C325.62 383.215 319.611 381.674 314.701 384.349C309.792 387.025 307.831 392.908 310.331 397.496Z" fill="#EE263E"/>
<path d="M319.389 427.214C320.726 429.672 324.032 430.456 326.771 428.964C329.509 427.473 330.637 424.272 329.299 421.814C327.961 419.362 324.655 418.578 321.924 420.07C319.185 421.561 318.051 424.762 319.389 427.214Z" fill="#EE263E"/>
<path d="M313.968 447.503C314.815 449.058 316.811 449.604 318.429 448.722C320.04 447.846 320.663 445.871 319.816 444.316C318.968 442.761 316.972 442.215 315.354 443.091C313.743 443.973 313.12 445.948 313.968 447.503Z" fill="#EE263E"/>
<path d="M212.895 375.132C213.792 376.771 215.767 377.416 217.308 376.575C218.849 375.735 219.381 373.725 218.485 372.086C217.595 370.447 215.62 369.803 214.079 370.643C212.531 371.484 212.006 373.494 212.895 375.132Z" fill="#EE263E"/>
<path d="M268.05 486.353C272.197 486.353 278.094 485.695 285.945 483.391C283.354 479.889 279.796 475.091 275.516 469.327C270.327 468.612 265.081 467.037 259.87 464.487C257.538 466.848 255.107 469.124 252.586 471.323C257.65 480.12 260.164 485.24 260.164 485.24C260.164 485.24 262.622 486.353 268.05 486.353V486.353ZM270.229 465.51C271.006 465.51 271.812 465.489 272.638 465.447C270.705 462.848 268.66 460.096 266.517 457.21C264.443 459.676 262.258 462.064 259.975 464.382C261.467 464.732 265.263 465.51 270.229 465.51" fill="#D11E29"/>
<path d="M275.516 469.327C274.592 468.08 273.632 466.785 272.638 465.447C271.811 465.489 271.006 465.51 270.228 465.51C265.262 465.51 261.466 464.733 259.975 464.382C259.94 464.417 259.905 464.453 259.87 464.488C265.08 467.037 270.326 468.613 275.516 469.327Z" fill="#C17473"/>
<path d="M309.538 473.732C312.578 472.184 315.786 470.454 319.147 468.521C343.738 454.409 355.694 441.57 361.409 433.285C360.869 431.688 331.026 360.025 326.277 339.139C323.882 328.598 317.803 308.217 312.108 288.837C303.977 299.042 290.109 311.39 272.698 322.351C275.751 329.053 278.553 335.847 281.004 342.739C283.736 342.34 286.404 342.144 289.003 342.144C323.7 342.144 346.168 376.505 343.612 407.693C341.616 432.087 325.353 455.109 304.04 464.872C306.204 468.381 308.06 471.372 309.538 473.732ZM297.961 455.018C301.232 451.957 304.292 448.042 306.933 443.069C317.922 422.387 308.333 407.203 290.642 399.071C289.948 410.361 287.294 420.944 283.057 430.763C288.513 439.665 293.59 447.923 297.961 455.018Z" fill="#D11E29"/>
<path d="M304.043 464.872C325.355 455.109 341.618 432.087 343.614 407.693C346.171 376.505 323.702 342.144 289.005 342.144C286.407 342.144 283.739 342.34 281.007 342.739C282.674 347.446 284.173 352.187 285.475 356.985C287.78 358.001 289.734 359.703 290.988 362.007C293.369 366.377 292.57 371.686 289.398 375.601C289.874 378.809 290.245 382.038 290.504 385.295C290.876 389.994 290.918 394.589 290.644 399.071C308.336 407.203 317.924 422.387 306.935 443.069C304.295 448.042 301.234 451.957 297.963 455.018C300.184 458.625 302.222 461.931 304.043 464.872V464.872ZM316.993 442.67C318.141 442.67 319.241 443.266 319.815 444.316C320.663 445.871 320.039 447.846 318.429 448.722C317.903 449.009 317.343 449.142 316.79 449.142C315.641 449.142 314.542 448.553 313.967 447.503C313.12 445.948 313.743 443.973 315.354 443.09C315.879 442.81 316.439 442.67 316.993 442.67V442.67ZM324.844 419.312C326.7 419.312 328.423 420.202 329.299 421.813C330.636 424.271 329.509 427.472 326.77 428.964C325.832 429.475 324.823 429.72 323.85 429.72C321.994 429.72 320.271 428.83 319.388 427.213C318.05 424.761 319.185 421.561 321.923 420.069C322.862 419.557 323.871 419.312 324.844 419.312V419.312ZM319.794 383.032C323.219 383.032 326.448 384.741 328.115 387.802C330.615 392.383 328.661 398.273 323.752 400.948C322.12 401.838 320.362 402.258 318.66 402.258C315.235 402.258 311.999 400.556 310.332 397.495C307.832 392.908 309.793 387.025 314.702 384.349C316.334 383.46 318.085 383.032 319.794 383.032" fill="#C17473"/>
<path d="M285.944 483.391C292.43 481.486 300.246 478.453 309.54 473.733C308.062 471.372 306.206 468.381 304.042 464.873C297.185 468.017 289.803 469.782 282.204 469.782C279.991 469.782 277.757 469.635 275.515 469.327C279.795 475.091 283.353 479.889 285.944 483.391ZM272.637 465.447C280.187 465.062 289.733 462.729 297.963 455.018C293.592 447.923 288.514 439.666 283.058 430.764C278.926 440.331 273.288 449.17 266.515 457.21C268.659 460.096 270.704 462.848 272.637 465.447" fill="#DF2331"/>
<path d="M282.205 469.782C289.805 469.782 297.187 468.017 304.043 464.873C302.222 461.931 300.184 458.625 297.964 455.018C289.735 462.729 280.188 465.062 272.638 465.447C273.633 466.785 274.592 468.08 275.517 469.327C277.758 469.635 279.992 469.782 282.205 469.782" fill="#D57375"/>
<path d="M272.699 322.351C290.111 311.39 303.978 299.043 312.11 288.838C309.063 278.479 306.129 268.401 303.929 260.276C293.956 272.778 280.053 286.947 261.353 299.498C265.352 307.013 269.19 314.626 272.699 322.351Z" fill="#AC1C22"/>
<path d="M289.398 375.602C292.57 371.687 293.369 366.378 290.987 362.008C289.734 359.703 287.78 358.001 285.475 356.986C287.135 363.1 288.466 369.306 289.398 375.602Z" fill="#D11E29"/>
<path d="M318.659 402.258C320.361 402.258 322.118 401.838 323.75 400.948C328.66 398.273 330.614 392.383 328.114 387.802C326.447 384.741 323.218 383.033 319.793 383.033C318.084 383.033 316.333 383.46 314.701 384.349C309.792 387.025 307.831 392.908 310.331 397.495C311.998 400.556 315.234 402.258 318.659 402.258" fill="#D11E29"/>
<path d="M323.85 429.72C324.824 429.72 325.832 429.475 326.771 428.964C329.509 427.472 330.637 424.271 329.299 421.813C328.424 420.202 326.701 419.313 324.845 419.313C323.871 419.313 322.862 419.558 321.924 420.069C319.185 421.561 318.051 424.762 319.389 427.213C320.271 428.831 321.994 429.72 323.85 429.72" fill="#D11E29"/>
<path d="M316.79 449.142C317.343 449.142 317.904 449.009 318.429 448.721C320.04 447.846 320.663 445.871 319.816 444.316C319.241 443.265 318.142 442.67 316.993 442.67C316.44 442.67 315.88 442.81 315.354 443.09C313.743 443.973 313.12 445.948 313.968 447.503C314.542 448.553 315.641 449.142 316.79 449.142" fill="#D11E29"/>
<path d="M325.075 226.217C325.075 226.217 301.241 285.679 230.586 316.279C160.625 346.571 124.072 342.362 110.827 339.035C110.827 339.035 122.293 318.941 124.254 298.763L287.317 218.386C287.317 218.386 312.475 227.484 325.075 226.217" fill="#D6D8D5"/>
<path d="M250.127 306.459C286.589 285.497 307.397 257.573 317.448 240.791C314.023 240.07 310.612 239.258 307.222 238.347C300.449 236.533 293.495 234.341 287.156 231.329C285.741 230.657 284.285 229.795 282.793 228.941C277.309 238.263 265.346 252.838 239.572 268.905C245.686 279.887 248.733 293.474 250.127 306.459Z" fill="#A7AAA7"/>
<path d="M171.871 336.261C186.376 332.892 203.522 327.52 223.56 319.235C219.007 307.783 214.252 296.43 209.216 285.189C193.906 292.319 180.976 296.906 170.183 299.722C170.548 305.416 170.744 311.145 170.891 316.902C171.066 323.353 171.451 329.803 171.871 336.261" fill="#F5F9F8"/>
<path d="M124.253 298.762C124.253 298.762 141.952 274.396 199.026 247.9C256.101 221.405 271.789 215.928 287.317 218.386C287.317 218.386 282.141 250.366 212.208 283.774C153.375 311.887 128.638 303.182 124.253 298.762" fill="#DBE0DA"/>
<path d="M145.846 278.906C153.907 286.267 162.844 292.837 171.739 299.274C141.524 307.461 127.453 301.984 124.253 298.762C124.253 298.762 130.122 290.736 145.846 278.906" fill="#F7FAFA"/>
<path d="M263.826 233.858C259.673 231.007 254.931 228.289 250.4 225.32C268.659 218.302 278.023 216.915 287.317 218.386C287.317 218.386 285.762 227.47 273.856 240.973C270.55 238.564 267.209 236.183 263.826 233.858Z" fill="#F7FAFA"/>
<path d="M139.227 288.95C139.227 288.95 191.728 230.678 270.108 224.536C270.108 224.536 257.998 248.272 207.388 274.319C165.94 295.653 139.227 288.95 139.227 288.95" fill="#939E9A"/>
<path d="M253.342 210.304C253.342 210.304 250.372 218.155 257.068 231.644C257.068 231.644 227.427 257.433 201.842 268.996C178.225 279.67 152.115 283.571 152.115 283.571C152.115 283.571 149.488 276.133 134.969 264.605L253.342 210.304" fill="#D6D8D5"/>
<path d="M217.57 260.563C232.37 251.584 246.272 240.602 252.94 235.111C250.972 232.835 249.018 230.531 247.113 228.198C245.873 226.686 244.703 225.082 243.576 223.429C237.23 230.117 227.096 238.83 211.281 248.271C213.466 252.362 215.532 256.515 217.57 260.563" fill="#A7AAA8"/>
<path d="M169.975 279.823C177.882 277.827 187.534 274.956 197.108 271.027C194.615 267.125 192.044 263.28 189.404 259.484C181.727 262.65 174.745 264.667 168.546 265.893C169.085 270.529 169.541 275.173 169.975 279.823" fill="#F5F9F8"/>
<path d="M134.969 264.604C134.969 264.604 163.18 237.359 191.21 224.283C219.232 211.207 237.526 208.489 253.341 210.303C253.341 210.303 244.929 230.131 203.256 252.845C161.59 275.558 135.718 265.213 135.718 265.213L134.969 264.604" fill="#DBE0DA"/>
<path d="M223.434 212.482C234.991 209.695 244.551 209.295 253.341 210.304C253.341 210.304 250.896 216.054 242.142 224.9C236.202 220.326 229.983 216.145 223.434 212.482Z" fill="#F7FAFA"/>
<path d="M152.359 249.533C154.587 251.333 156.849 253.084 159.055 254.884C163.187 258.274 167.257 261.712 171.27 265.214C148.808 270.32 135.718 265.214 135.718 265.214L134.969 264.605C134.969 264.605 141.931 257.888 152.359 249.533" fill="#F7FAFA"/>
<path d="M227.384 223.135C227.384 223.135 203.914 227.848 186.916 237.773C169.91 247.697 162.676 254.673 162.676 254.673C162.676 254.673 178.574 256.326 202.03 244.041C225.486 231.743 227.384 223.135 227.384 223.135" fill="#939E9A"/>
<path d="M272.95 126.755C272.95 126.755 280.794 140.44 269.609 147.031C269.609 147.031 262.577 140.98 265.659 134.137C268.741 127.294 269.525 127.525 272.95 126.755Z" fill="#9E9CA6"/>
<path d="M188.345 242.409C188.345 242.409 185.964 248.32 173.861 250.302L143.646 117.474C143.646 117.474 136.272 119.358 138.359 110.8C138.359 110.8 132.651 104.853 141.321 104.741C141.321 104.741 138.583 97.0019 146.077 98.3537C146.077 98.3537 143.324 93.598 154.243 96.7077C165.169 99.8174 272.952 126.754 272.952 126.754C272.952 126.754 262.502 136.406 269.611 147.03C269.611 147.03 158.985 114.168 158.705 116.08C158.432 117.992 181.488 217.139 188.345 242.409" fill="#C4CCCD"/>
<path d="M175.668 243.194C176.564 242.767 176.684 242.641 177.545 242.179C170.569 212.517 148.787 123.106 147.996 106.353C147.933 105.029 148.731 103.607 150.58 103.607C150.678 103.607 150.783 103.614 150.888 103.621C168.433 105.015 266.277 130.502 268.357 131.812C268.623 130.958 269.331 130.208 269.856 129.389C238.297 121.796 167.831 102.081 149.929 100.589C149.747 100.575 149.579 100.568 149.418 100.568C144.949 100.568 145.194 105.905 145.496 108.16C147.169 120.62 169.61 218.618 175.668 243.194" fill="#EEF6F5"/>
<rect width="482" height="610" rx="10" stroke="#093414" stroke-width="30" mask="url(#path-1-inside-1_6_1998)"/>
<defs>
<radialGradient id="paint0_radial_6_1998" cx="0" cy="0" r="1" gradientUnits="userSpaceOnUse" gradientTransform="translate(1083.28 1239.21) rotate(180) scale(1807.21 1807.21)">
<stop stop-color="#CACECD"/>
<stop offset="0.877005" stop-color="#C3BFB7"/>
<stop offset="1" stop-color="#BEBAAF"/>
</radialGradient>
<radialGradient id="paint1_radial_6_1998" cx="0" cy="0" r="1" gradientUnits="userSpaceOnUse" gradientTransform="translate(1083.28 1239.21) rotate(180) scale(1807.21 1807.2)">
<stop stop-color="#D94957"/>
<stop offset="0.877005" stop-color="#D24651"/>
<stop offset="1" stop-color="#CF454D"/>
</radialGradient>
<radialGradient id="paint2_radial_6_1998" cx="0" cy="0" r="1" gradientUnits="userSpaceOnUse" gradientTransform="translate(1083.29 1239.21) rotate(180) scale(1807.24 1807.21)">
<stop stop-color="#D94957"/>
<stop offset="0.877005" stop-color="#D24651"/>
<stop offset="1" stop-color="#CF454D"/>
</radialGradient>
</defs>
</svg>
