<svg width="113" height="114" viewBox="0 0 113 114" fill="none" xmlns="http://www.w3.org/2000/svg">
<rect width="113" height="108" fill="#FF3231"/>
<path d="M79.7716 38.8085C78.0501 39.65 76.1945 40.2029 74.2717 40.4674C76.2392 39.1931 77.7595 37.1736 78.4749 34.7453C76.6192 35.9474 74.5624 36.7889 72.3937 37.2698C70.6275 35.2021 68.1458 34 65.3288 34C60.0748 34 55.7822 38.6161 55.7822 44.3142C55.7822 45.1316 55.8716 45.925 56.0281 46.6703C48.0689 46.2376 40.9816 42.1263 36.2642 35.8993C35.437 37.414 34.9674 39.1931 34.9674 41.0685C34.9674 44.6508 36.6443 47.8244 39.2377 49.6275C37.6503 49.6275 36.1747 49.1467 34.878 48.4254V48.4975C34.878 53.4984 38.1869 57.6817 42.569 58.6194C41.1621 59.0334 39.6851 59.091 38.254 58.7877C38.8612 60.8372 40.0505 62.6306 41.6546 63.9157C43.2587 65.2009 45.197 65.9131 47.1969 65.9523C43.8067 68.8384 39.6044 70.3985 35.2805 70.3761C34.5203 70.3761 33.7602 70.328 33 70.2318C37.2479 73.165 42.3007 74.872 47.7112 74.872C65.3288 74.872 75.0095 59.1483 75.0095 45.5163C75.0095 45.0595 75.0095 44.6267 74.9872 44.1699C76.8652 42.7274 78.4749 40.9002 79.7716 38.8085Z" fill="#1F1F1F"/>
</svg>
