<svg width="113" height="114" viewBox="0 0 113 114" fill="none" xmlns="http://www.w3.org/2000/svg">
<rect width="113" height="108" fill="#FF3231"/>
<path fill-rule="evenodd" clip-rule="evenodd" d="M39.6612 34.2805C39.1079 34.0321 38.5024 33.9465 37.9075 34.0324C37.3126 34.1184 36.7503 34.3728 36.2789 34.7693C35.8075 35.1657 35.4444 35.6896 35.2273 36.2865C35.0102 36.8834 34.9471 37.5315 35.0445 38.1632L40.1225 71.0134C40.615 74.1821 43.8749 75.9993 46.5997 74.4209C48.879 73.1004 52.2642 71.0659 55.3092 68.9431C56.8317 67.8805 61.4954 64.4777 60.9222 62.0564C60.4297 59.9861 52.5934 52.2064 48.1155 47.581C46.3579 45.7639 47.1595 44.7156 49.2349 46.3871C54.3912 50.5372 62.6641 56.8484 65.4001 58.625C67.8137 60.1915 69.072 60.4589 70.5765 60.1915C73.3215 59.7044 75.8672 58.9498 77.9449 58.0304C80.7525 56.7887 80.616 52.672 77.9471 51.4733L39.6612 34.2805Z" fill="#1F1F1F"/>
</svg>
