<svg width="341" height="201" viewBox="0 0 341 201" fill="none" xmlns="http://www.w3.org/2000/svg">
<rect y="93" width="309" height="108" fill="url(#paint0_radial_402_2)"/>
<path d="M250.5 99.931C256.333 99.4595 267.7 93.8492 266.5 75.1796C266.337 72.6451 266.209 70.1731 266.111 67.7802L308.5 83.3122L313 75.1796L278.122 62.0599C282.788 59.7352 286.895 57.392 290 55.4316L341 25.931C339.833 11.5977 335.6 -12.169 328 7.431C322.796 20.8527 293.223 39.6856 265.837 54.4378C265.839 45.6892 266.204 39.0671 266.5 35.931H250.5V51.6695L238.222 47.0511C240.083 39.994 240.08 31.5631 239.5 25.931C240.117 34.1067 237.355 40.474 233.754 45.3705L219 39.8205L212 47.9531L226.31 53.1964C220.585 58.1352 216.937 59.931 225.5 59.931C229.109 59.931 231.865 58.4249 233.948 55.9952L250.5 62.0601V62.4132C243.637 65.8586 237.3 68.8787 232 71.2901C237.127 73.3748 243.622 73.3164 250.5 72.0112V75.1796C250.667 81.78 248.7 94.9807 239.5 94.9807C230.3 94.9807 243 98.2809 250.5 99.931Z" fill="#FF3231"/>
<path d="M60.5103 156.525C60.5103 157.687 60.2933 158.688 59.8594 159.528C59.4395 160.368 58.8726 161.082 58.1587 161.669C57.4448 162.257 56.619 162.74 55.6812 163.118C54.7573 163.482 53.7915 163.769 52.7837 163.979C51.7759 164.189 50.7611 164.329 49.7393 164.399C48.7314 164.469 47.7866 164.504 46.9048 164.504C46.0369 164.504 45.1341 164.469 44.1963 164.399C43.2725 164.343 42.3486 164.238 41.4248 164.084C40.501 163.93 39.5911 163.727 38.6953 163.475C37.7995 163.209 36.9526 162.88 36.1548 162.488L36.1128 135.445C36.8966 135.123 37.7295 134.836 38.6113 134.584C39.4932 134.319 40.389 134.102 41.2988 133.934C42.2227 133.752 43.1395 133.619 44.0493 133.535C44.9591 133.437 45.841 133.388 46.6948 133.388C47.6886 133.388 48.6895 133.451 49.6973 133.577C50.7191 133.703 51.6989 133.913 52.6367 134.207C53.5745 134.5 54.4494 134.885 55.2612 135.361C56.0731 135.823 56.7799 136.397 57.3818 137.083C57.9977 137.769 58.4736 138.567 58.8096 139.477C59.1595 140.386 59.3345 141.436 59.3345 142.626C59.3345 143.41 59.2225 144.145 58.9985 144.831C58.7746 145.516 58.4526 146.132 58.0327 146.678C57.6128 147.224 57.1019 147.693 56.5 148.085C55.8981 148.463 55.2192 148.743 54.4634 148.925C55.3732 149.163 56.1991 149.513 56.9409 149.975C57.6968 150.437 58.3337 150.996 58.8516 151.654C59.3835 152.312 59.7894 153.054 60.0693 153.88C60.3633 154.706 60.5103 155.588 60.5103 156.525ZM49.8442 144.558C49.8442 144.152 49.7603 143.809 49.5923 143.529C49.4243 143.235 49.2144 142.997 48.9624 142.815C48.7244 142.633 48.4585 142.5 48.1646 142.416C47.8846 142.332 47.6326 142.29 47.4087 142.29C47.1287 142.29 46.8558 142.332 46.5898 142.416C46.3239 142.5 46.0649 142.598 45.813 142.71L45.687 147.371C46.009 147.371 46.4079 147.343 46.8838 147.287C47.3597 147.231 47.8146 147.112 48.2485 146.93C48.6965 146.734 49.0744 146.454 49.3823 146.09C49.6903 145.712 49.8442 145.201 49.8442 144.558ZM46.8628 151.402C46.4569 151.402 46.0649 151.444 45.687 151.528L45.603 156.315C45.813 156.357 46.016 156.399 46.2119 156.441C46.4219 156.469 46.6248 156.483 46.8208 156.483C47.1147 156.483 47.4367 156.455 47.7866 156.399C48.1366 156.329 48.4655 156.203 48.7734 156.021C49.0814 155.826 49.3333 155.567 49.5293 155.245C49.7393 154.923 49.8442 154.496 49.8442 153.964C49.8442 153.432 49.7393 152.998 49.5293 152.662C49.3333 152.326 49.0884 152.067 48.7944 151.885C48.5005 151.689 48.1785 151.563 47.8286 151.507C47.4787 151.437 47.1567 151.402 46.8628 151.402ZM86.7554 140.652C86.7554 141.688 86.7064 142.829 86.6084 144.075C86.5104 145.32 86.3494 146.608 86.1255 147.938C85.9015 149.268 85.6076 150.618 85.2437 151.99C84.8937 153.348 84.4528 154.657 83.9209 155.917C83.389 157.176 82.7661 158.359 82.0522 159.465C81.3524 160.557 80.5405 161.515 79.6167 162.341C78.7069 163.153 77.6851 163.79 76.5513 164.252C75.4175 164.728 74.1577 164.966 72.772 164.966C71.1483 164.966 69.7345 164.7 68.5308 164.168C67.341 163.65 66.3192 162.95 65.4653 162.068C64.6115 161.173 63.9116 160.137 63.3657 158.961C62.8198 157.771 62.3929 156.518 62.085 155.203C61.777 153.873 61.5601 152.522 61.4341 151.15C61.3221 149.765 61.2661 148.435 61.2661 147.161C61.2661 145.201 61.3641 143.249 61.5601 141.303C61.756 139.344 62.036 137.391 62.3999 135.445L72.2261 135.823C71.8481 138.021 71.5192 140.232 71.2393 142.458C70.9733 144.67 70.8403 146.895 70.8403 149.135C70.8403 149.373 70.8473 149.73 70.8613 150.206C70.8893 150.667 70.9313 151.192 70.9873 151.78C71.0433 152.354 71.1203 152.949 71.2183 153.565C71.3302 154.167 71.4772 154.72 71.6592 155.224C71.8411 155.728 72.0581 156.14 72.3101 156.462C72.576 156.784 72.884 156.945 73.2339 156.945C73.6398 156.945 74.0037 156.756 74.3257 156.378C74.6476 155.986 74.9276 155.469 75.1655 154.825C75.4175 154.181 75.6344 153.439 75.8164 152.599C75.9984 151.759 76.1523 150.884 76.2783 149.975C76.4043 149.065 76.5023 148.155 76.5723 147.245C76.6562 146.335 76.7192 145.488 76.7612 144.705C76.8172 143.921 76.8522 143.228 76.8662 142.626C76.8802 142.024 76.8872 141.576 76.8872 141.282C76.8872 140.19 76.8662 139.106 76.8242 138.028C76.7962 136.936 76.7472 135.851 76.6772 134.773H86.5034C86.6714 136.705 86.7554 138.665 86.7554 140.652ZM115.163 135.571L103.615 151.696L103.069 164.84H93.1172L93.3691 151.78L87.3643 136.201L98.0723 134.857L99.752 143.928L105.085 134.857L115.163 135.571ZM127.782 166.897L127.992 158.625C127.544 158.541 127.089 158.443 126.627 158.331C126.165 158.205 125.71 158.079 125.262 157.953C124.828 157.813 124.408 157.673 124.002 157.533C123.597 157.393 123.233 157.253 122.911 157.113L123.625 151.948C124.506 152.396 125.493 152.732 126.585 152.956C127.677 153.18 128.762 153.292 129.839 153.292C130.035 153.292 130.273 153.285 130.553 153.271C130.847 153.257 131.127 153.222 131.393 153.166C131.659 153.096 131.883 152.991 132.065 152.851C132.261 152.711 132.359 152.522 132.359 152.284C132.359 152.032 132.219 151.843 131.939 151.717C131.673 151.577 131.351 151.479 130.973 151.423C130.609 151.353 130.238 151.311 129.86 151.297C129.482 151.283 129.195 151.276 129 151.276C128.09 151.276 127.264 151.157 126.522 150.919C125.78 150.681 125.136 150.346 124.59 149.912C124.058 149.464 123.646 148.932 123.352 148.316C123.058 147.7 122.911 147.007 122.911 146.237C122.911 145.523 123.03 144.859 123.268 144.243C123.52 143.627 123.862 143.067 124.296 142.563C124.744 142.059 125.269 141.618 125.871 141.24C126.487 140.848 127.152 140.526 127.866 140.274L127.53 131.414L129.797 131.624V139.771C129.993 139.729 130.182 139.701 130.364 139.687C130.546 139.659 130.735 139.631 130.931 139.603L130.889 131.414L133.157 131.456L132.863 139.603C133.787 139.631 134.717 139.722 135.655 139.875C136.593 140.015 137.454 140.246 138.238 140.568L137.692 145.901C136.95 145.705 136.187 145.537 135.403 145.397C134.619 145.257 133.871 145.188 133.157 145.188C132.933 145.188 132.632 145.194 132.254 145.208C131.89 145.222 131.526 145.264 131.162 145.334C130.812 145.404 130.504 145.509 130.238 145.649C129.986 145.789 129.867 145.985 129.881 146.237C129.895 146.447 129.986 146.608 130.154 146.72C130.322 146.818 130.532 146.895 130.784 146.951C131.05 146.993 131.344 147.014 131.666 147.014C131.988 147.014 132.296 147.007 132.59 146.993C132.898 146.979 133.185 146.965 133.451 146.951C133.717 146.937 133.927 146.937 134.081 146.951C134.92 146.993 135.676 147.14 136.348 147.392C137.02 147.644 137.594 147.987 138.07 148.421C138.546 148.841 138.91 149.345 139.162 149.933C139.414 150.521 139.54 151.164 139.54 151.864C139.54 152.844 139.372 153.712 139.036 154.468C138.714 155.224 138.259 155.882 137.671 156.441C137.083 156.987 136.376 157.442 135.55 157.806C134.738 158.156 133.843 158.415 132.863 158.583L133.199 166.855L131.141 167.065L131.057 158.793C130.861 158.821 130.665 158.835 130.469 158.835C130.273 158.835 130.077 158.835 129.881 158.835H129.797L129.839 167.023L127.782 166.897ZM159.927 152.032L159.045 161.354L141.366 162.74C141.45 157.855 141.541 152.998 141.639 148.169C141.751 143.34 141.884 138.483 142.038 133.598H152.956C152.634 136.663 152.326 139.729 152.032 142.794C151.738 145.845 151.528 148.925 151.402 152.032C152.06 152.06 152.711 152.074 153.355 152.074C153.999 152.074 154.65 152.074 155.308 152.074C156.091 152.074 156.861 152.067 157.617 152.053C158.373 152.039 159.143 152.032 159.927 152.032ZM186.865 149.177C186.865 150.451 186.718 151.682 186.424 152.872C186.13 154.048 185.703 155.154 185.143 156.189C184.597 157.225 183.925 158.177 183.127 159.045C182.344 159.899 181.455 160.634 180.461 161.25C179.481 161.865 178.41 162.348 177.249 162.698C176.087 163.034 174.855 163.202 173.553 163.202C172.293 163.202 171.09 163.041 169.942 162.719C168.808 162.397 167.744 161.949 166.75 161.375C165.757 160.788 164.854 160.088 164.042 159.276C163.244 158.45 162.558 157.54 161.984 156.546C161.424 155.539 160.984 154.461 160.662 153.313C160.354 152.165 160.2 150.968 160.2 149.723C160.2 148.505 160.347 147.315 160.641 146.153C160.935 144.978 161.354 143.872 161.9 142.836C162.46 141.8 163.132 140.848 163.916 139.98C164.7 139.113 165.575 138.364 166.541 137.734C167.52 137.104 168.577 136.614 169.711 136.264C170.845 135.914 172.042 135.739 173.301 135.739C175.331 135.739 177.179 136.054 178.844 136.684C180.524 137.314 181.952 138.217 183.127 139.393C184.317 140.554 185.234 141.968 185.878 143.634C186.536 145.285 186.865 147.133 186.865 149.177ZM177.542 149.723C177.542 149.121 177.451 148.54 177.27 147.98C177.102 147.406 176.85 146.902 176.514 146.468C176.178 146.02 175.758 145.663 175.254 145.397C174.764 145.118 174.197 144.978 173.553 144.978C172.895 144.978 172.307 145.097 171.79 145.334C171.272 145.572 170.824 145.901 170.446 146.321C170.082 146.727 169.802 147.21 169.606 147.77C169.41 148.316 169.312 148.897 169.312 149.513C169.312 150.101 169.396 150.688 169.564 151.276C169.732 151.864 169.984 152.396 170.32 152.872C170.656 153.348 171.069 153.733 171.559 154.027C172.062 154.321 172.643 154.468 173.301 154.468C173.959 154.468 174.547 154.342 175.065 154.09C175.597 153.824 176.045 153.474 176.409 153.04C176.773 152.592 177.053 152.081 177.249 151.507C177.444 150.933 177.542 150.339 177.542 149.723ZM214.286 149.177C214.286 150.451 214.139 151.682 213.845 152.872C213.551 154.048 213.124 155.154 212.564 156.189C212.018 157.225 211.346 158.177 210.548 159.045C209.764 159.899 208.876 160.634 207.882 161.25C206.902 161.865 205.831 162.348 204.669 162.698C203.508 163.034 202.276 163.202 200.974 163.202C199.714 163.202 198.511 163.041 197.363 162.719C196.229 162.397 195.165 161.949 194.171 161.375C193.178 160.788 192.275 160.088 191.463 159.276C190.665 158.45 189.979 157.54 189.405 156.546C188.845 155.539 188.404 154.461 188.083 153.313C187.775 152.165 187.621 150.968 187.621 149.723C187.621 148.505 187.768 147.315 188.062 146.153C188.355 144.978 188.775 143.872 189.321 142.836C189.881 141.8 190.553 140.848 191.337 139.98C192.121 139.113 192.996 138.364 193.961 137.734C194.941 137.104 195.998 136.614 197.132 136.264C198.266 135.914 199.462 135.739 200.722 135.739C202.752 135.739 204.599 136.054 206.265 136.684C207.945 137.314 209.373 138.217 210.548 139.393C211.738 140.554 212.655 141.968 213.299 143.634C213.957 145.285 214.286 147.133 214.286 149.177ZM204.963 149.723C204.963 149.121 204.872 148.54 204.69 147.98C204.522 147.406 204.271 146.902 203.935 146.468C203.599 146.02 203.179 145.663 202.675 145.397C202.185 145.118 201.618 144.978 200.974 144.978C200.316 144.978 199.728 145.097 199.21 145.334C198.693 145.572 198.245 145.901 197.867 146.321C197.503 146.727 197.223 147.21 197.027 147.77C196.831 148.316 196.733 148.897 196.733 149.513C196.733 150.101 196.817 150.688 196.985 151.276C197.153 151.864 197.405 152.396 197.741 152.872C198.077 153.348 198.49 153.733 198.979 154.027C199.483 154.321 200.064 154.468 200.722 154.468C201.38 154.468 201.968 154.342 202.486 154.09C203.018 153.824 203.466 153.474 203.83 153.04C204.194 152.592 204.473 152.081 204.669 151.507C204.865 150.933 204.963 150.339 204.963 149.723ZM244.31 133.892L242.798 162.362L231.796 163.37L225.917 148.127L224.994 163.664H215.545L216.301 133.892L226.799 133.388L234.064 148.505L234.4 134.228L244.31 133.892ZM271.374 159.717C270.716 160.543 269.904 161.264 268.938 161.879C267.973 162.495 266.937 163.006 265.831 163.412C264.725 163.818 263.591 164.119 262.43 164.315C261.268 164.525 260.162 164.63 259.112 164.63C257.083 164.63 255.214 164.266 253.506 163.538C251.799 162.81 250.322 161.809 249.076 160.536C247.844 159.248 246.879 157.736 246.179 156C245.479 154.265 245.129 152.396 245.129 150.395C245.129 148.869 245.304 147.378 245.654 145.922C246.004 144.453 246.501 143.074 247.145 141.786C247.802 140.484 248.6 139.295 249.538 138.217C250.476 137.125 251.54 136.187 252.729 135.403C253.919 134.619 255.221 134.011 256.635 133.577C258.049 133.143 259.56 132.926 261.17 132.926C261.772 132.926 262.416 132.954 263.102 133.01C263.787 133.052 264.466 133.136 265.138 133.262C265.824 133.374 266.489 133.535 267.133 133.745C267.777 133.955 268.365 134.214 268.896 134.521L268.309 142.542C267.525 142.248 266.713 142.052 265.873 141.954C265.047 141.842 264.235 141.786 263.438 141.786C262.318 141.786 261.268 141.961 260.288 142.311C259.322 142.647 258.475 143.137 257.748 143.781C257.034 144.425 256.467 145.208 256.047 146.132C255.627 147.056 255.417 148.099 255.417 149.261C255.417 149.989 255.515 150.695 255.711 151.381C255.907 152.053 256.201 152.655 256.593 153.187C256.999 153.705 257.496 154.125 258.083 154.447C258.685 154.769 259.378 154.93 260.162 154.93C260.694 154.93 261.24 154.86 261.8 154.72C262.374 154.58 262.864 154.342 263.27 154.006L263.354 152.368L258.314 152.284L258.566 145.985C260.652 145.915 262.738 145.859 264.823 145.817C266.909 145.761 269.008 145.691 271.122 145.607L271.374 159.717Z" fill="#060A15" fill-opacity="0.78"/>
<defs>
<radialGradient id="paint0_radial_402_2" cx="0" cy="0" r="1" gradientUnits="userSpaceOnUse" gradientTransform="translate(-13 93) rotate(20.3608) scale(343.459 982.675)">
<stop stop-color="#FFA047"/>
<stop offset="1" stop-color="#DE2726"/>
</radialGradient>
</defs>
</svg>
