<svg width="856" height="458" viewBox="0 0 856 458" fill="none" xmlns="http://www.w3.org/2000/svg">
<rect x="4" y="4" width="848" height="450" fill="#FF874A" stroke="#FF874A" stroke-width="8"/>
<rect x="32" y="19" width="792" height="420" fill="#060A15" stroke="#FF874A" stroke-width="8"/>
<rect x="67" y="37" width="722" height="384" fill="#FF874A" stroke="#FF874A" stroke-width="8"/>
<path d="M155.319 133.907C155.323 135.168 155.185 136.422 154.903 137.669C154.636 138.916 154.239 140.113 153.714 141.261C153.188 142.409 152.541 143.479 151.771 144.47C151.016 145.461 150.145 146.324 149.16 147.058C148.174 147.792 147.088 148.369 145.901 148.789C144.728 149.209 143.461 149.422 142.1 149.427C140.726 149.432 139.443 149.229 138.252 148.818C137.062 148.408 135.971 147.839 134.98 147.112C134.004 146.386 133.127 145.529 132.349 144.544C131.572 143.559 130.916 142.494 130.382 141.351C129.848 140.207 129.435 139.012 129.144 137.767C128.867 136.508 128.726 135.255 128.721 134.009C128.716 132.763 128.848 131.509 129.115 130.248C129.397 128.986 129.8 127.782 130.326 126.634C130.851 125.486 131.499 124.416 132.268 123.425C133.038 122.42 133.908 121.55 134.88 120.816C135.865 120.081 136.951 119.504 138.139 119.084C139.34 118.664 140.621 118.452 141.982 118.447C143.343 118.441 144.611 118.644 145.787 119.055C146.977 119.466 148.068 120.035 149.059 120.761C150.05 121.488 150.927 122.351 151.69 123.351C152.467 124.336 153.123 125.401 153.658 126.545C154.192 127.688 154.598 128.89 154.874 130.149C155.166 131.409 155.314 132.661 155.319 133.907ZM146.255 134.587C146.252 133.956 146.164 133.255 145.989 132.482C145.814 131.709 145.546 130.987 145.186 130.315C144.825 129.643 144.364 129.079 143.804 128.623C143.244 128.167 142.577 127.94 141.803 127.943C141.016 127.946 140.343 128.178 139.787 128.639C139.23 129.099 138.766 129.667 138.397 130.341C138.041 131.016 137.779 131.74 137.61 132.514C137.441 133.288 137.358 133.99 137.36 134.621C137.363 135.251 137.451 135.952 137.626 136.725C137.801 137.498 138.069 138.22 138.429 138.892C138.804 139.564 139.272 140.128 139.832 140.584C140.393 141.04 141.067 141.267 141.854 141.264C142.628 141.261 143.293 141.029 143.85 140.568C144.407 140.108 144.863 139.541 145.218 138.866C145.574 138.191 145.836 137.467 146.005 136.693C146.174 135.919 146.257 135.217 146.255 134.587ZM183.386 119.964C181.099 124.971 178.984 130.064 177.042 135.242C175.114 140.406 173.315 145.626 171.645 150.904L163.038 147.585C164.074 144.989 165.11 142.399 166.145 139.817C167.181 137.221 168.238 134.646 169.317 132.092C170.41 129.524 171.546 126.977 172.725 124.452C173.904 121.927 175.162 119.437 176.499 116.982L183.386 119.964ZM217.575 133.669C217.579 134.93 217.441 136.183 217.159 137.43C216.892 138.678 216.496 139.875 215.97 141.023C215.444 142.171 214.797 143.24 214.027 144.232C213.272 145.223 212.401 146.085 211.416 146.82C210.43 147.554 209.344 148.131 208.157 148.551C206.984 148.971 205.717 149.183 204.357 149.189C202.982 149.194 201.699 148.991 200.509 148.58C199.318 148.169 198.227 147.601 197.236 146.874C196.26 146.147 195.383 145.291 194.605 144.306C193.828 143.321 193.172 142.256 192.638 141.112C192.104 139.968 191.691 138.774 191.4 137.529C191.123 136.27 190.982 135.017 190.977 133.771C190.972 132.525 191.104 131.271 191.371 130.01C191.653 128.748 192.056 127.543 192.582 126.396C193.107 125.248 193.755 124.178 194.525 123.187C195.294 122.181 196.165 121.311 197.136 120.577C198.121 119.843 199.208 119.266 200.395 118.846C201.596 118.426 202.877 118.214 204.238 118.208C205.599 118.203 206.867 118.406 208.043 118.817C209.234 119.228 210.324 119.796 211.315 120.523C212.306 121.25 213.183 122.113 213.946 123.113C214.724 124.098 215.379 125.162 215.914 126.306C216.448 127.45 216.854 128.652 217.131 129.911C217.422 131.17 217.57 132.423 217.575 133.669ZM208.511 134.348C208.508 133.718 208.42 133.017 208.245 132.244C208.07 131.471 207.802 130.749 207.442 130.077C207.081 129.405 206.621 128.841 206.06 128.385C205.5 127.929 204.833 127.702 204.06 127.705C203.272 127.708 202.599 127.94 202.043 128.4C201.486 128.861 201.022 129.428 200.653 130.103C200.297 130.778 200.035 131.502 199.866 132.276C199.697 133.05 199.614 133.752 199.616 134.382C199.619 135.013 199.707 135.714 199.882 136.487C200.057 137.26 200.325 137.982 200.685 138.654C201.06 139.325 201.528 139.889 202.088 140.346C202.649 140.802 203.323 141.028 204.111 141.025C204.884 141.022 205.549 140.791 206.106 140.33C206.663 139.87 207.119 139.302 207.474 138.628C207.83 137.953 208.092 137.229 208.261 136.455C208.43 135.681 208.513 134.979 208.511 134.348ZM266.817 118.141L266.637 127.251L260.236 127.533L258.681 147.906L249.616 148.414L249.581 128.047L243.18 128.415L243.399 118.273L266.817 118.141ZM300.376 146.887L289.725 148.303L288.417 143.453L283.519 143.471L282.463 148.331L271.502 147.299L279.943 118.649L291.886 118.002L300.376 146.887ZM287.619 136.882L285.957 129.411L284.396 136.894L287.619 136.882ZM334.858 119.341L326.532 133.08L334.141 145.297L325.171 148.125L320.842 139.805L316.322 148.631L307.028 145.315L314.886 132.824L307.62 120.606L317.451 118.205L321.004 125.969L324.713 118.177L334.858 119.341ZM369.383 131.67C369.385 132.372 369.252 133.031 368.982 133.648C368.727 134.265 368.371 134.804 367.914 135.264C367.457 135.724 366.922 136.091 366.307 136.366C365.692 136.626 365.034 136.757 364.332 136.76C363.644 136.762 362.992 136.636 362.375 136.381C361.773 136.111 361.241 135.748 360.781 135.291C360.321 134.834 359.954 134.299 359.679 133.684C359.419 133.069 359.288 132.411 359.285 131.709C359.282 131.007 359.409 130.348 359.664 129.731C359.934 129.114 360.297 128.575 360.754 128.115C361.21 127.655 361.739 127.295 362.34 127.035C362.954 126.76 363.606 126.622 364.293 126.619C364.995 126.617 365.654 126.75 366.271 127.02C366.888 127.275 367.426 127.631 367.887 128.088C368.347 128.545 368.707 129.08 368.967 129.695C369.241 130.31 369.38 130.968 369.383 131.67ZM414.684 136.051L413.818 145.594L395.734 147.081C395.8 142.082 395.874 137.112 395.956 132.17C396.052 127.228 396.169 122.258 396.307 117.258L407.479 117.216C407.161 120.354 406.858 123.492 406.569 126.629C406.281 129.753 406.078 132.905 405.961 136.085C406.634 136.111 407.3 136.123 407.959 136.12C408.618 136.118 409.284 136.115 409.957 136.113C410.759 136.109 411.547 136.099 412.321 136.082C413.094 136.065 413.882 136.055 414.684 136.051ZM448.83 127.499C448.836 128.888 448.633 130.121 448.221 131.197C447.81 132.272 447.241 133.213 446.513 134.018C445.8 134.822 444.958 135.506 443.986 136.068C443.014 136.631 441.97 137.093 440.855 137.455C439.753 137.803 438.608 138.065 437.42 138.242C436.232 138.404 435.065 138.494 433.919 138.513L433.958 148.525L423.946 148.563C423.933 145.283 423.928 142.017 423.93 138.766C423.932 135.515 423.941 132.235 423.957 128.926C423.979 127.179 423.979 125.431 423.958 123.684C423.937 121.937 423.966 120.175 424.045 118.398C425.877 117.847 427.708 117.432 429.541 117.153C431.373 116.874 433.263 116.73 435.211 116.723C436.314 116.719 437.417 116.807 438.52 116.989C439.624 117.157 440.678 117.432 441.682 117.815C442.7 118.198 443.64 118.681 444.502 119.265C445.378 119.835 446.132 120.52 446.766 121.319C447.399 122.119 447.897 123.034 448.259 124.064C448.635 125.079 448.825 126.224 448.83 127.499ZM439.294 128.266C439.291 127.335 439.001 126.613 438.426 126.099C437.866 125.571 437.134 125.309 436.232 125.313C435.931 125.314 435.616 125.344 435.287 125.402C434.972 125.446 434.672 125.505 434.385 125.578L434.152 131.852C434.352 131.88 434.546 131.893 434.732 131.893C434.918 131.892 435.111 131.891 435.312 131.89C435.827 131.889 436.321 131.801 436.793 131.627C437.28 131.453 437.708 131.208 438.08 130.892C438.451 130.561 438.743 130.18 438.956 129.75C439.184 129.305 439.296 128.81 439.294 128.266ZM499.943 140.323C499.948 141.512 499.729 142.537 499.289 143.398C498.862 144.259 498.285 144.991 497.557 145.596C496.829 146.2 495.986 146.697 495.027 147.088C494.084 147.464 493.096 147.761 492.066 147.98C491.036 148.199 489.998 148.346 488.952 148.422C487.921 148.497 486.955 148.537 486.052 148.54C485.164 148.544 484.24 148.511 483.281 148.443C482.335 148.39 481.389 148.286 480.443 148.132C479.498 147.978 478.566 147.774 477.648 147.52C476.73 147.251 475.863 146.918 475.045 146.52L474.896 118.848C475.697 118.516 476.548 118.219 477.449 117.958C478.35 117.682 479.266 117.457 480.196 117.281C481.141 117.091 482.079 116.952 483.009 116.862C483.94 116.758 484.842 116.705 485.716 116.701C486.733 116.697 487.757 116.758 488.789 116.883C489.835 117.008 490.838 117.219 491.799 117.516C492.76 117.813 493.656 118.204 494.489 118.687C495.322 119.157 496.047 119.741 496.666 120.441C497.299 121.14 497.789 121.955 498.136 122.884C498.498 123.814 498.681 124.888 498.685 126.105C498.688 126.907 498.577 127.659 498.35 128.362C498.124 129.065 497.797 129.696 497.369 130.257C496.942 130.817 496.421 131.299 495.806 131.702C495.192 132.091 494.498 132.38 493.726 132.569C494.658 132.809 495.504 133.164 496.265 133.634C497.04 134.103 497.694 134.674 498.227 135.345C498.773 136.016 499.192 136.774 499.481 137.618C499.785 138.462 499.939 139.363 499.943 140.323ZM488.982 128.119C488.981 127.703 488.893 127.353 488.72 127.067C488.547 126.767 488.331 126.524 488.073 126.339C487.829 126.154 487.556 126.019 487.255 125.934C486.968 125.849 486.71 125.807 486.481 125.808C486.195 125.809 485.915 125.853 485.644 125.94C485.372 126.027 485.107 126.128 484.85 126.244L484.739 131.014C485.069 131.013 485.477 130.982 485.964 130.923C486.45 130.864 486.915 130.741 487.359 130.553C487.816 130.35 488.202 130.062 488.515 129.689C488.829 129.301 488.985 128.778 488.982 128.119ZM485.958 135.134C485.543 135.136 485.142 135.18 484.756 135.268L484.688 140.166C484.903 140.209 485.111 140.251 485.312 140.293C485.527 140.321 485.735 140.334 485.935 140.334C486.236 140.332 486.565 140.302 486.923 140.244C487.281 140.171 487.617 140.041 487.931 139.853C488.246 139.652 488.502 139.386 488.702 139.055C488.915 138.725 489.021 138.288 489.019 137.744C489.017 137.199 488.908 136.756 488.692 136.413C488.49 136.07 488.238 135.806 487.937 135.621C487.635 135.421 487.305 135.294 486.947 135.238C486.589 135.168 486.259 135.133 485.958 135.134ZM534.766 117.588C534.14 122.632 533.608 127.654 533.169 132.655C532.73 137.641 532.312 142.663 531.916 147.72L523.11 148.398L523.484 145.088C523.199 145.419 522.863 145.707 522.478 145.952C522.106 146.196 521.706 146.399 521.277 146.558C520.848 146.703 520.404 146.812 519.946 146.885C519.488 146.944 519.051 146.967 518.636 146.955C517.662 146.944 516.744 146.761 515.884 146.406C515.023 146.037 514.233 145.553 513.515 144.955C512.796 144.341 512.149 143.635 511.573 142.835C510.997 142.021 510.507 141.17 510.102 140.284C509.712 139.383 509.408 138.468 509.19 137.537C508.985 136.607 508.882 135.705 508.878 134.832C508.873 133.543 508.89 132.21 508.928 130.835C508.98 129.446 509.067 128.056 509.191 126.666C509.314 125.277 509.474 123.901 509.669 122.539C509.879 121.178 510.139 119.874 510.449 118.626C512.197 118.706 513.952 118.778 515.714 118.842C517.476 118.907 519.23 118.922 520.978 118.887C520.653 120.134 520.328 121.389 520.004 122.65C519.693 123.898 519.412 125.159 519.159 126.435C518.906 127.696 518.703 128.965 518.55 130.24C518.398 131.515 518.324 132.805 518.329 134.108C518.33 134.409 518.346 134.838 518.377 135.397C518.408 135.955 518.481 136.506 518.598 137.05C518.729 137.594 518.917 138.073 519.162 138.488C519.421 138.888 519.78 139.087 520.239 139.085C520.783 139.083 521.269 138.852 521.697 138.392C522.125 137.918 522.502 137.286 522.828 136.497C523.155 135.708 523.43 134.797 523.656 133.765C523.895 132.733 524.092 131.658 524.245 130.54C524.412 129.408 524.544 128.269 524.64 127.123C524.736 125.977 524.803 124.902 524.843 123.899C524.896 122.882 524.928 121.973 524.94 121.17C524.965 120.368 524.977 119.745 524.975 119.301C524.974 119.015 524.966 118.735 524.951 118.463C524.935 118.191 524.913 117.912 524.883 117.626C525.814 117.651 526.738 117.669 527.655 117.68C528.571 117.69 529.495 117.694 530.426 117.69C531.142 117.688 531.859 117.685 532.575 117.682C533.305 117.665 534.035 117.634 534.766 117.588ZM569.411 126.994C569.415 128.112 569.319 129.129 569.122 130.046C568.939 130.949 568.641 131.781 568.229 132.542C567.816 133.303 567.282 134.007 566.626 134.654C565.969 135.301 565.177 135.92 564.248 136.51L569.396 145.6L559.735 147.528L556.392 138.388L553.728 138.484L553.376 147.423L544.137 147.459C544.196 144.193 544.248 140.941 544.293 137.704C544.353 134.467 544.419 131.215 544.492 127.949C544.515 126.302 544.537 124.669 544.56 123.05C544.582 121.432 544.633 119.799 544.713 118.151C545.714 117.775 546.701 117.463 547.674 117.216C548.647 116.969 549.62 116.779 550.594 116.646C551.581 116.499 552.576 116.403 553.579 116.356C554.596 116.295 555.634 116.262 556.694 116.258C558.327 116.252 559.903 116.475 561.423 116.927C562.957 117.365 564.313 118.033 565.491 118.931C566.669 119.829 567.612 120.95 568.319 122.294C569.04 123.637 569.404 125.204 569.411 126.994ZM559.788 127.719C559.786 127.117 559.698 126.566 559.524 126.065C559.365 125.565 559.12 125.136 558.789 124.779C558.472 124.408 558.07 124.123 557.583 123.924C557.109 123.711 556.55 123.606 555.906 123.609C555.619 123.61 555.34 123.632 555.068 123.676C554.796 123.706 554.531 123.757 554.274 123.83L553.96 131.823L554.476 131.821C555.092 131.819 555.715 131.738 556.344 131.578C556.988 131.418 557.56 131.172 558.06 130.841C558.575 130.509 558.988 130.085 559.301 129.568C559.629 129.051 559.791 128.435 559.788 127.719ZM605.754 136.695C605.76 138.314 605.745 139.918 605.708 141.508C605.685 143.084 605.641 144.674 605.576 146.278L593.2 146.111C593.62 143.574 593.983 141.044 594.288 138.522C594.594 135.986 594.742 133.429 594.732 130.851C594.731 130.664 594.723 130.364 594.707 129.948C594.691 129.533 594.66 129.068 594.615 128.552C594.57 128.023 594.504 127.486 594.416 126.942C594.342 126.383 594.233 125.875 594.088 125.418C593.957 124.96 593.791 124.588 593.589 124.302C593.402 124.002 593.172 123.853 592.9 123.854C592.413 123.856 591.998 124 591.656 124.288C591.327 124.576 591.05 124.949 590.822 125.409C590.609 125.853 590.439 126.355 590.312 126.914C590.186 127.474 590.087 128.033 590.018 128.591C589.963 129.15 589.922 129.68 589.895 130.182C589.883 130.669 589.877 131.07 589.878 131.385C589.816 133.92 589.769 136.441 589.735 138.948C589.702 141.44 589.654 143.961 589.592 146.511L578.637 147.026C578.904 141.969 579.157 136.94 579.396 131.941C579.649 126.941 579.845 121.913 579.983 116.856L590.121 116.302L590.049 119.74C590.448 119.251 590.876 118.791 591.332 118.36C591.803 117.928 592.303 117.561 592.832 117.258C593.361 116.941 593.918 116.696 594.505 116.521C595.106 116.333 595.736 116.237 596.395 116.235C597.612 116.23 598.68 116.427 599.598 116.824C600.516 117.222 601.306 117.763 601.967 118.448C602.629 119.133 603.184 119.947 603.631 120.891C604.079 121.82 604.441 122.814 604.717 123.873C604.993 124.932 605.205 126.041 605.353 127.201C605.5 128.346 605.598 129.477 605.645 130.594C605.706 131.711 605.739 132.792 605.743 133.838C605.747 134.883 605.751 135.836 605.754 136.695ZM638.613 117.148L638.433 126.258L632.031 126.54L631.334 146.48L622.27 146.988L621.377 127.053L614.976 127.422L615.195 117.28L638.613 117.148ZM674.194 130.504C674.197 131.205 674.063 131.865 673.793 132.482C673.538 133.099 673.182 133.637 672.725 134.097C672.269 134.557 671.733 134.925 671.118 135.199C670.503 135.459 669.845 135.591 669.143 135.593C668.456 135.596 667.803 135.47 667.187 135.214C666.584 134.944 666.053 134.581 665.593 134.124C665.132 133.668 664.765 133.132 664.491 132.517C664.23 131.902 664.099 131.244 664.096 130.542C664.094 129.84 664.22 129.181 664.476 128.564C664.745 127.947 665.108 127.409 665.565 126.949C666.022 126.489 666.55 126.129 667.151 125.868C667.766 125.594 668.417 125.455 669.104 125.453C669.806 125.45 670.465 125.584 671.082 125.853C671.699 126.109 672.238 126.465 672.698 126.921C673.158 127.378 673.518 127.914 673.778 128.529C674.053 129.143 674.191 129.802 674.194 130.504ZM158.598 182.469L157.163 211.608L145.909 212.682L139.834 197.108L138.949 213.01L129.281 213.047L129.938 182.579L140.678 182.022L148.171 197.463L148.459 182.852L158.598 182.469ZM194.851 196.682C194.856 197.986 194.711 199.247 194.415 200.465C194.119 201.67 193.686 202.803 193.117 203.865C192.563 204.927 191.879 205.903 191.066 206.795C190.267 207.671 189.361 208.427 188.346 209.061C187.346 209.695 186.252 210.193 185.065 210.556C183.877 210.904 182.617 211.081 181.285 211.086C179.996 211.091 178.764 210.931 177.588 210.606C176.427 210.281 175.336 209.827 174.317 209.243C173.298 208.646 172.372 207.933 171.538 207.106C170.718 206.264 170.013 205.335 169.421 204.321C168.845 203.292 168.389 202.191 168.055 201.017C167.736 199.844 167.573 198.62 167.569 197.345C167.564 196.099 167.71 194.881 168.006 193.691C168.302 192.487 168.727 191.354 169.282 190.292C169.851 189.23 170.534 188.253 171.333 187.362C172.132 186.471 173.024 185.701 174.01 185.053C175.01 184.405 176.089 183.899 177.248 183.537C178.407 183.174 179.631 182.99 180.92 182.986C182.997 182.978 184.889 183.293 186.596 183.931C188.317 184.569 189.781 185.487 190.989 186.685C192.211 187.869 193.155 189.312 193.82 191.014C194.5 192.702 194.843 194.591 194.851 196.682ZM185.315 197.277C185.312 196.662 185.217 196.067 185.028 195.495C184.854 194.909 184.595 194.394 184.249 193.951C183.904 193.494 183.473 193.131 182.956 192.861C182.453 192.576 181.873 192.435 181.214 192.438C180.541 192.44 179.94 192.564 179.411 192.81C178.882 193.055 178.425 193.394 178.04 193.825C177.669 194.242 177.384 194.737 177.186 195.31C176.987 195.87 176.89 196.465 176.892 197.095C176.894 197.696 176.982 198.298 177.157 198.898C177.331 199.499 177.591 200.043 177.936 200.528C178.282 201.014 178.706 201.406 179.208 201.705C179.725 202.004 180.32 202.152 180.993 202.149C181.667 202.147 182.268 202.016 182.797 201.756C183.34 201.482 183.797 201.122 184.167 200.676C184.538 200.217 184.822 199.693 185.021 199.105C185.219 198.517 185.317 197.908 185.315 197.277ZM243.883 182.229L243.703 191.339L237.302 191.621L235.747 211.995L226.682 212.502L226.647 192.135L220.246 192.503L220.465 182.362L243.883 182.229ZM276.76 195.466C276.764 196.713 276.683 197.959 276.516 199.206C274.067 199.373 271.634 199.64 269.214 200.007C266.795 200.36 264.376 200.713 261.957 201.066C262.333 202.096 262.916 202.917 263.706 203.53C264.511 204.143 265.464 204.447 266.567 204.443C267.14 204.441 267.763 204.331 268.435 204.114C269.122 203.896 269.801 203.629 270.473 203.311C271.145 202.979 271.788 202.626 272.403 202.251C273.017 201.876 273.546 201.537 273.989 201.235L272.995 210.993C272.438 211.425 271.83 211.792 271.173 212.095C270.529 212.399 269.857 212.645 269.156 212.834C268.455 213.022 267.746 213.161 267.031 213.25C266.315 213.339 265.613 213.384 264.926 213.387C263.508 213.392 262.211 213.204 261.035 212.822C259.859 212.439 258.79 211.906 257.828 211.223C256.88 210.524 256.046 209.704 255.326 208.762C254.606 207.819 254.008 206.79 253.531 205.675C253.054 204.559 252.691 203.379 252.443 202.134C252.195 200.889 252.068 199.629 252.063 198.354C252.058 197.022 252.175 195.689 252.413 194.357C252.652 193.024 253.012 191.74 253.494 190.507C253.991 189.273 254.61 188.132 255.35 187.084C256.105 186.021 256.983 185.094 257.982 184.302C258.982 183.51 260.111 182.89 261.37 182.441C262.643 181.992 264.046 181.765 265.578 181.759C266.853 181.754 268.014 181.929 269.061 182.283C270.122 182.623 271.062 183.106 271.881 183.733C272.714 184.346 273.433 185.081 274.038 185.938C274.657 186.795 275.162 187.738 275.552 188.768C275.957 189.783 276.255 190.864 276.446 192.009C276.65 193.139 276.755 194.292 276.76 195.466ZM268.162 194.382C268.16 193.981 268.116 193.573 268.028 193.158C267.94 192.729 267.796 192.343 267.594 192C267.406 191.657 267.155 191.378 266.839 191.165C266.523 190.937 266.128 190.824 265.656 190.825C265.083 190.828 264.575 190.987 264.132 191.304C263.704 191.606 263.333 191.994 263.019 192.468C262.706 192.928 262.45 193.43 262.252 193.975C262.053 194.52 261.905 195.022 261.806 195.481L268.163 194.855L268.162 194.382ZM312.265 210.842L301.614 212.258L300.307 207.408L295.408 207.426L294.353 212.286L283.392 211.254L291.833 182.604L303.776 181.957L312.265 210.842ZM299.508 200.837L297.847 193.366L296.286 200.849L299.508 200.837ZM358.362 197.947C358.37 199.995 358.313 202.037 358.192 204.071C358.071 206.105 357.929 208.147 357.764 210.196L346.724 210.754C347.043 208.26 347.328 205.767 347.576 203.274C347.838 200.766 347.965 198.259 347.955 195.753C347.955 195.595 347.946 195.323 347.931 194.936C347.915 194.535 347.884 194.084 347.839 193.583C347.809 193.082 347.757 192.567 347.683 192.037C347.624 191.493 347.536 190.999 347.42 190.555C347.318 190.097 347.187 189.726 347.029 189.44C346.87 189.154 346.683 189.011 346.468 189.012C345.967 189.014 345.574 189.209 345.289 189.597C345.004 189.97 344.791 190.422 344.65 190.953C344.523 191.483 344.446 192.028 344.42 192.586C344.393 193.131 344.38 193.575 344.382 193.919C344.384 194.52 344.401 195.122 344.432 195.723C344.463 196.325 344.479 196.94 344.482 197.571C344.49 199.791 344.441 202.004 344.335 204.21C344.243 206.416 344.123 208.629 343.974 210.85L333.792 211.276C334.112 208.782 334.389 206.296 334.623 203.817C334.871 201.324 334.99 198.824 334.981 196.318C334.98 196.16 334.972 195.874 334.956 195.459C334.94 195.043 334.91 194.578 334.865 194.062C334.834 193.547 334.782 193.01 334.708 192.452C334.634 191.893 334.539 191.385 334.423 190.927C334.321 190.455 334.191 190.069 334.032 189.769C333.873 189.469 333.679 189.319 333.45 189.32C333.092 189.321 332.792 189.466 332.549 189.753C332.307 190.026 332.108 190.385 331.952 190.829C331.81 191.274 331.698 191.769 331.614 192.313C331.544 192.843 331.489 193.366 331.448 193.882C331.421 194.398 331.402 194.878 331.389 195.322C331.391 195.752 331.385 196.074 331.371 196.289L330.959 211.974L320.131 212.015C320.35 209.594 320.57 207.165 320.79 204.73C321.024 202.294 321.223 199.865 321.385 197.444C321.562 195.009 321.703 192.573 321.809 190.138C321.914 187.702 321.962 185.267 321.952 182.833L332.177 182.364L332.144 184.856C332.457 184.454 332.814 184.051 333.213 183.649C333.613 183.232 334.034 182.865 334.477 182.548C334.934 182.217 335.413 181.95 335.913 181.748C336.428 181.545 336.958 181.443 337.502 181.441C338.204 181.438 338.834 181.493 339.393 181.606C339.952 181.704 340.454 181.881 340.899 182.137C341.358 182.393 341.761 182.75 342.106 183.207C342.452 183.649 342.755 184.214 343.015 184.9C343.472 184.397 343.928 183.93 344.385 183.499C344.856 183.067 345.349 182.7 345.863 182.397C346.377 182.08 346.935 181.835 347.536 181.66C348.137 181.486 348.803 181.398 349.533 181.395C350.922 181.39 352.105 181.657 353.081 182.198C354.057 182.724 354.869 183.43 355.517 184.315C356.179 185.201 356.692 186.216 357.054 187.36C357.431 188.505 357.715 189.692 357.906 190.923C358.096 192.155 358.216 193.379 358.263 194.596C358.325 195.813 358.358 196.93 358.362 197.947ZM407.859 181.601L407.679 190.712L401.278 190.994L399.723 211.367L390.659 211.874L390.624 191.507L384.223 191.876L384.442 181.734L407.859 181.601ZM443.317 195.731C443.322 197.035 443.177 198.296 442.881 199.514C442.584 200.719 442.152 201.852 441.583 202.914C441.028 203.976 440.345 204.952 439.532 205.844C438.733 206.72 437.826 207.476 436.812 208.11C435.812 208.744 434.718 209.242 433.53 209.605C432.343 209.953 431.083 210.13 429.751 210.135C428.462 210.14 427.23 209.98 426.054 209.655C424.893 209.33 423.802 208.876 422.783 208.293C421.764 207.695 420.837 206.982 420.003 206.155C419.184 205.313 418.478 204.384 417.887 203.37C417.31 202.341 416.855 201.24 416.521 200.066C416.202 198.893 416.039 197.669 416.034 196.394C416.03 195.148 416.175 193.93 416.472 192.74C416.768 191.536 417.193 190.403 417.748 189.341C418.317 188.279 419 187.302 419.799 186.411C420.598 185.52 421.49 184.75 422.476 184.102C423.476 183.454 424.555 182.948 425.714 182.586C426.873 182.223 428.097 182.04 429.386 182.035C431.463 182.027 433.354 182.342 435.061 182.98C436.783 183.618 438.247 184.536 439.455 185.734C440.677 186.919 441.62 188.362 442.286 190.063C442.965 191.751 443.309 193.64 443.317 195.731ZM433.78 196.327C433.778 195.711 433.683 195.117 433.494 194.544C433.32 193.958 433.06 193.443 432.715 193C432.369 192.543 431.938 192.18 431.422 191.91C430.919 191.625 430.339 191.484 429.68 191.487C429.007 191.489 428.406 191.613 427.877 191.859C427.348 192.104 426.89 192.443 426.505 192.874C426.135 193.291 425.85 193.786 425.652 194.36C425.453 194.919 425.355 195.514 425.358 196.144C425.36 196.745 425.448 197.347 425.622 197.948C425.797 198.548 426.057 199.092 426.402 199.577C426.748 200.063 427.172 200.455 427.674 200.754C428.191 201.053 428.786 201.201 429.459 201.199C430.132 201.196 430.733 201.065 431.262 200.805C431.806 200.531 432.263 200.171 432.633 199.725C433.004 199.266 433.288 198.742 433.487 198.154C433.685 197.566 433.783 196.957 433.78 196.327ZM479.107 184.294L469.654 195.631L478.433 210.378L468.472 212.178L461.906 203.352L461.595 211.775L452.659 212.153L453.229 181.385L463.242 181.905L462.503 190.76L468.699 181.755L479.107 184.294ZM509.652 194.575C509.657 195.821 509.576 197.068 509.408 198.314C506.96 198.481 504.526 198.748 502.107 199.116C499.687 199.469 497.268 199.822 494.849 200.175C495.225 201.205 495.809 202.026 496.599 202.639C497.403 203.252 498.357 203.556 499.46 203.552C500.033 203.55 500.655 203.44 501.328 203.222C502.014 203.005 502.694 202.737 503.365 202.42C504.037 202.088 504.681 201.734 505.295 201.36C505.909 200.985 506.438 200.646 506.881 200.344L505.887 210.101C505.33 210.533 504.723 210.901 504.065 211.204C503.422 211.507 502.75 211.753 502.048 211.942C501.347 212.131 500.639 212.27 499.923 212.359C499.207 212.447 498.506 212.493 497.818 212.496C496.4 212.501 495.103 212.313 493.927 211.93C492.751 211.548 491.682 211.015 490.72 210.331C489.772 209.633 488.938 208.813 488.218 207.87C487.499 206.928 486.9 205.899 486.423 204.783C485.946 203.668 485.584 202.488 485.335 201.243C485.087 199.997 484.961 198.737 484.956 197.463C484.951 196.131 485.067 194.798 485.306 193.465C485.544 192.132 485.904 190.849 486.387 189.615C486.883 188.382 487.502 187.241 488.243 186.192C488.998 185.129 489.875 184.202 490.875 183.411C491.874 182.619 493.003 181.999 494.262 181.55C495.535 181.101 496.938 180.874 498.47 180.868C499.745 180.863 500.906 181.038 501.953 181.392C503.014 181.731 503.954 182.215 504.773 182.842C505.606 183.455 506.325 184.189 506.93 185.046C507.549 185.903 508.054 186.847 508.445 187.877C508.85 188.892 509.147 189.972 509.338 191.117C509.543 192.248 509.647 193.401 509.652 194.575ZM501.054 193.491C501.052 193.09 501.008 192.682 500.92 192.267C500.833 191.837 500.688 191.451 500.486 191.108C500.299 190.765 500.047 190.487 499.731 190.273C499.415 190.045 499.021 189.932 498.548 189.934C497.975 189.936 497.467 190.096 497.025 190.413C496.596 190.715 496.225 191.103 495.912 191.577C495.598 192.037 495.343 192.539 495.144 193.084C494.946 193.629 494.797 194.131 494.699 194.589L501.056 193.964L501.054 193.491ZM545.897 200.925C545.903 202.543 545.887 204.148 545.851 205.738C545.828 207.313 545.784 208.903 545.718 210.508L533.343 210.34C533.763 207.803 534.125 205.274 534.431 202.752C534.736 200.216 534.884 197.658 534.874 195.08C534.873 194.894 534.865 194.593 534.849 194.178C534.833 193.763 534.803 193.297 534.758 192.782C534.713 192.252 534.646 191.715 534.558 191.171C534.485 190.613 534.375 190.105 534.23 189.647C534.1 189.189 533.933 188.818 533.732 188.532C533.544 188.232 533.315 188.082 533.043 188.083C532.556 188.085 532.141 188.23 531.798 188.518C531.47 188.805 531.192 189.179 530.965 189.638C530.751 190.083 530.581 190.585 530.455 191.144C530.328 191.703 530.23 192.262 530.16 192.821C530.105 193.38 530.064 193.91 530.038 194.411C530.025 194.898 530.019 195.299 530.021 195.614C529.959 198.15 529.911 200.671 529.878 203.178C529.844 205.67 529.797 208.191 529.735 210.741L518.78 211.255C519.047 206.198 519.3 201.17 519.538 196.17C519.791 191.17 519.987 186.142 520.125 181.086L530.264 180.531L530.191 183.969C530.59 183.481 531.018 183.021 531.475 182.589C531.946 182.158 532.446 181.791 532.974 181.488C533.503 181.171 534.061 180.925 534.647 180.751C535.248 180.562 535.878 180.467 536.537 180.464C537.754 180.46 538.822 180.656 539.74 181.054C540.659 181.451 541.448 181.992 542.11 182.677C542.771 183.362 543.326 184.177 543.774 185.12C544.221 186.05 544.583 187.044 544.859 188.103C545.135 189.161 545.347 190.271 545.495 191.43C545.643 192.575 545.74 193.707 545.787 194.824C545.849 195.941 545.882 197.022 545.886 198.067C545.89 199.113 545.893 200.065 545.897 200.925ZM578.098 200.673C578.106 202.635 577.769 204.333 577.087 205.768C576.419 207.189 575.492 208.367 574.307 209.302C573.136 210.224 571.757 210.909 570.168 211.359C568.595 211.795 566.898 212.016 565.079 212.023C564.377 212.026 563.604 211.936 562.758 211.753C561.926 211.57 561.08 211.344 560.22 211.075C559.36 210.792 558.528 210.494 557.724 210.182C556.935 209.856 556.232 209.551 555.615 209.267L556.528 200.841C557.749 201.567 559.097 202.12 560.574 202.501C562.065 202.868 563.527 203.049 564.959 203.043C565.231 203.042 565.56 203.034 565.947 203.018C566.334 202.988 566.699 202.922 567.042 202.82C567.4 202.705 567.7 202.539 567.942 202.323C568.185 202.107 568.306 201.799 568.304 201.398C568.303 201.126 568.216 200.897 568.044 200.711C567.871 200.511 567.648 200.355 567.376 200.241C567.103 200.113 566.795 200.021 566.451 199.965C566.107 199.895 565.77 199.846 565.441 199.819C565.111 199.791 564.803 199.778 564.517 199.779C564.23 199.78 564.001 199.781 563.829 199.782C562.597 199.787 561.472 199.598 560.454 199.215C559.45 198.832 558.581 198.291 557.848 197.592C557.129 196.879 556.567 196.021 556.162 195.02C555.758 194.005 555.553 192.881 555.548 191.65C555.542 189.959 555.872 188.447 556.54 187.112C557.223 185.764 558.128 184.621 559.256 183.686C560.398 182.736 561.706 182.008 563.179 181.501C564.652 180.994 566.177 180.738 567.752 180.732C568.454 180.729 569.178 180.755 569.923 180.809C570.668 180.849 571.406 180.933 572.136 181.059C572.882 181.185 573.606 181.347 574.308 181.544C575.011 181.742 575.678 181.99 576.309 182.289L575.526 191.014C574.551 190.689 573.526 190.421 572.451 190.21C571.39 189.985 570.351 189.874 569.334 189.878C569.148 189.879 568.905 189.887 568.604 189.902C568.317 189.903 568.01 189.926 567.68 189.97C567.365 190 567.043 190.051 566.714 190.124C566.385 190.197 566.092 190.299 565.834 190.429C565.577 190.544 565.37 190.702 565.213 190.904C565.056 191.105 564.986 191.341 565.001 191.613C565.017 191.928 565.132 192.171 565.348 192.343C565.577 192.514 565.864 192.641 566.208 192.726C566.567 192.796 566.954 192.831 567.369 192.829C567.799 192.827 568.221 192.818 568.636 192.803C569.052 192.772 569.438 192.749 569.796 192.734C570.154 192.704 570.448 192.695 570.677 192.709C571.823 192.776 572.855 193.016 573.774 193.427C574.692 193.839 575.467 194.388 576.1 195.073C576.747 195.758 577.238 196.58 577.571 197.538C577.918 198.482 578.094 199.527 578.098 200.673ZM630.902 195.014C630.907 196.317 630.761 197.578 630.465 198.796C630.169 200.001 629.737 201.134 629.168 202.196C628.613 203.258 627.929 204.235 627.116 205.126C626.318 206.003 625.411 206.758 624.397 207.392C623.396 208.026 622.303 208.524 621.115 208.887C619.928 209.235 618.668 209.412 617.336 209.417C616.047 209.422 614.814 209.262 613.639 208.937C612.477 208.612 611.387 208.158 610.368 207.575C609.349 206.977 608.422 206.264 607.588 205.437C606.769 204.595 606.063 203.667 605.472 202.652C604.895 201.623 604.44 200.522 604.106 199.349C603.786 198.175 603.624 196.951 603.619 195.677C603.614 194.43 603.76 193.212 604.056 192.022C604.353 190.818 604.778 189.685 605.332 188.623C605.901 187.561 606.585 186.584 607.384 185.693C608.182 184.802 609.075 184.033 610.06 183.384C611.061 182.736 612.14 182.23 613.299 181.868C614.458 181.505 615.681 181.322 616.971 181.317C619.047 181.309 620.939 181.624 622.646 182.262C624.367 182.9 625.832 183.818 627.039 185.017C628.261 186.201 629.205 187.644 629.871 189.346C630.55 191.033 630.894 192.922 630.902 195.014ZM621.365 195.609C621.363 194.993 621.267 194.399 621.079 193.826C620.905 193.24 620.645 192.725 620.3 192.283C619.954 191.826 619.523 191.462 619.006 191.192C618.504 190.907 617.923 190.766 617.265 190.769C616.591 190.771 615.99 190.895 615.461 191.141C614.932 191.386 614.475 191.725 614.09 192.156C613.719 192.573 613.435 193.068 613.236 193.642C613.038 194.201 612.94 194.796 612.942 195.426C612.945 196.028 613.033 196.629 613.207 197.23C613.381 197.831 613.641 198.374 613.987 198.86C614.332 199.345 614.757 199.737 615.259 200.036C615.776 200.335 616.371 200.483 617.044 200.481C617.717 200.478 618.318 200.347 618.847 200.087C619.39 199.813 619.847 199.453 620.218 199.008C620.589 198.548 620.873 198.024 621.071 197.436C621.27 196.848 621.368 196.239 621.365 195.609ZM665.709 190.626C665.713 191.744 665.617 192.761 665.42 193.678C665.237 194.581 664.94 195.413 664.527 196.174C664.115 196.935 663.58 197.638 662.924 198.286C662.267 198.933 661.475 199.552 660.546 200.142L665.694 209.232L656.034 211.16L652.69 202.02L650.026 202.116L649.674 211.055L640.436 211.09C640.495 207.825 640.547 204.573 640.592 201.336C640.651 198.099 640.717 194.847 640.791 191.581C640.813 189.934 640.835 188.301 640.858 186.682C640.88 185.064 640.931 183.431 641.011 181.783C642.012 181.407 642.999 181.095 643.972 180.848C644.945 180.601 645.918 180.411 646.892 180.278C647.88 180.131 648.875 180.034 649.877 179.988C650.894 179.926 651.932 179.894 652.992 179.89C654.625 179.884 656.201 180.107 657.721 180.559C659.255 180.997 660.612 181.665 661.789 182.563C662.967 183.461 663.91 184.582 664.617 185.925C665.338 187.269 665.702 188.836 665.709 190.626ZM656.087 191.351C656.084 190.749 655.996 190.198 655.823 189.697C655.663 189.197 655.418 188.768 655.087 188.411C654.771 188.04 654.369 187.755 653.881 187.556C653.407 187.343 652.848 187.238 652.204 187.241C651.917 187.242 651.638 187.264 651.366 187.308C651.094 187.338 650.829 187.389 650.572 187.462L650.259 195.455L650.774 195.453C651.39 195.451 652.013 195.37 652.642 195.21C653.286 195.05 653.858 194.804 654.358 194.473C654.873 194.141 655.287 193.717 655.6 193.2C655.927 192.683 656.089 192.067 656.087 191.351ZM154.692 256.625C154.698 258.015 154.495 259.247 154.084 260.323C153.672 261.399 153.103 262.339 152.376 263.144C151.663 263.949 150.82 264.633 149.848 265.195C148.876 265.757 147.833 266.22 146.717 266.582C145.615 266.93 144.47 267.192 143.282 267.368C142.094 267.531 140.927 267.621 139.781 267.64L139.82 277.651L129.808 277.69C129.796 274.41 129.79 271.144 129.792 267.893C129.794 264.641 129.803 261.361 129.819 258.053C129.841 256.305 129.841 254.558 129.82 252.81C129.799 251.063 129.828 249.301 129.907 247.525C131.739 246.974 133.57 246.558 135.403 246.279C137.235 246 139.125 245.857 141.073 245.849C142.176 245.845 143.279 245.934 144.383 246.116C145.486 246.284 146.54 246.559 147.544 246.942C148.562 247.325 149.502 247.808 150.364 248.392C151.24 248.962 151.995 249.646 152.628 250.446C153.261 251.246 153.759 252.16 154.121 253.19C154.497 254.206 154.688 255.351 154.692 256.625ZM145.156 257.392C145.153 256.461 144.863 255.739 144.289 255.226C143.728 254.698 142.997 254.436 142.094 254.439C141.793 254.44 141.478 254.47 141.149 254.529C140.834 254.573 140.534 254.631 140.248 254.704L140.014 260.979C140.214 261.006 140.408 261.02 140.594 261.019C140.78 261.019 140.974 261.018 141.174 261.017C141.69 261.015 142.183 260.927 142.655 260.754C143.142 260.58 143.571 260.335 143.942 260.018C144.313 259.687 144.605 259.307 144.818 258.876C145.046 258.431 145.158 257.937 145.156 257.392ZM189.193 256.45C189.198 257.568 189.101 258.585 188.904 259.502C188.722 260.405 188.424 261.237 188.011 261.998C187.599 262.759 187.065 263.463 186.408 264.11C185.752 264.757 184.959 265.376 184.031 265.966L189.179 275.056L179.518 276.984L176.174 267.844L173.511 267.94L173.158 276.879L163.92 276.915C163.979 273.649 164.031 270.397 164.076 267.16C164.135 263.923 164.202 260.671 164.275 257.405C164.297 255.758 164.32 254.125 164.342 252.507C164.365 250.888 164.416 249.255 164.495 247.607C165.496 247.231 166.484 246.919 167.457 246.672C168.43 246.425 169.403 246.235 170.376 246.103C171.364 245.955 172.359 245.859 173.362 245.812C174.378 245.751 175.417 245.718 176.476 245.714C178.109 245.708 179.686 245.931 181.206 246.383C182.74 246.821 184.096 247.489 185.274 248.387C186.452 249.285 187.394 250.406 188.101 251.75C188.822 253.093 189.187 254.66 189.193 256.45ZM179.571 257.175C179.569 256.573 179.481 256.022 179.307 255.522C179.147 255.021 178.902 254.592 178.572 254.235C178.255 253.864 177.853 253.579 177.365 253.38C176.892 253.167 176.333 253.062 175.688 253.065C175.402 253.066 175.122 253.088 174.851 253.132C174.578 253.162 174.314 253.213 174.056 253.286L173.743 261.279L174.259 261.277C174.875 261.275 175.497 261.194 176.127 261.034C176.771 260.874 177.343 260.628 177.843 260.297C178.357 259.965 178.771 259.541 179.084 259.024C179.411 258.507 179.574 257.891 179.571 257.175ZM222.612 259.674C222.616 260.92 222.535 262.167 222.368 263.413C219.919 263.58 217.486 263.847 215.066 264.215C212.647 264.568 210.228 264.921 207.809 265.274C208.185 266.304 208.768 267.125 209.558 267.738C210.363 268.351 211.316 268.655 212.419 268.651C212.992 268.649 213.615 268.539 214.287 268.321C214.974 268.104 215.653 267.836 216.325 267.519C216.997 267.187 217.64 266.833 218.255 266.458C218.869 266.084 219.398 265.745 219.841 265.443L218.847 275.2C218.29 275.632 217.682 276 217.025 276.303C216.381 276.606 215.709 276.852 215.008 277.041C214.307 277.23 213.599 277.369 212.883 277.458C212.167 277.546 211.465 277.592 210.778 277.595C209.36 277.6 208.063 277.412 206.887 277.029C205.711 276.647 204.642 276.114 203.68 275.43C202.732 274.732 201.898 273.912 201.178 272.969C200.458 272.027 199.86 270.998 199.383 269.882C198.906 268.767 198.543 267.587 198.295 266.342C198.047 265.096 197.92 263.836 197.915 262.562C197.91 261.23 198.027 259.897 198.265 258.564C198.504 257.231 198.864 255.948 199.346 254.714C199.843 253.481 200.462 252.34 201.202 251.291C201.957 250.228 202.835 249.301 203.834 248.51C204.834 247.718 205.963 247.098 207.222 246.649C208.495 246.2 209.898 245.973 211.43 245.967C212.705 245.962 213.866 246.137 214.913 246.491C215.974 246.83 216.914 247.314 217.733 247.941C218.566 248.554 219.285 249.288 219.89 250.145C220.509 251.002 221.014 251.946 221.404 252.976C221.809 253.991 222.107 255.071 222.298 256.216C222.502 257.347 222.607 258.5 222.612 259.674ZM214.014 258.59C214.012 258.189 213.968 257.781 213.88 257.366C213.792 256.936 213.648 256.55 213.446 256.207C213.258 255.864 213.007 255.586 212.691 255.372C212.375 255.144 211.98 255.031 211.508 255.033C210.935 255.035 210.427 255.195 209.984 255.512C209.556 255.814 209.185 256.202 208.872 256.676C208.558 257.135 208.302 257.638 208.104 258.183C207.905 258.728 207.757 259.23 207.658 259.688L214.015 259.063L214.014 258.59ZM254.215 265.913C254.223 267.875 253.885 269.573 253.203 271.008C252.536 272.429 251.609 273.607 250.424 274.542C249.253 275.464 247.873 276.149 246.285 276.599C244.711 277.035 243.015 277.256 241.196 277.263C240.494 277.266 239.72 277.176 238.875 276.993C238.043 276.81 237.197 276.584 236.337 276.315C235.476 276.032 234.645 275.734 233.841 275.422C233.052 275.096 232.349 274.791 231.732 274.507L232.645 266.081C233.866 266.807 235.214 267.36 236.691 267.741C238.182 268.108 239.643 268.289 241.076 268.283C241.348 268.282 241.677 268.274 242.064 268.258C242.45 268.228 242.815 268.162 243.159 268.06C243.516 267.945 243.817 267.779 244.059 267.563C244.302 267.347 244.423 267.039 244.421 266.638C244.42 266.366 244.333 266.137 244.161 265.951C243.988 265.751 243.765 265.595 243.493 265.481C243.22 265.353 242.912 265.261 242.568 265.205C242.224 265.135 241.887 265.086 241.557 265.059C241.228 265.031 240.92 265.018 240.634 265.019C240.347 265.02 240.118 265.021 239.946 265.022C238.714 265.027 237.589 264.838 236.571 264.455C235.567 264.072 234.698 263.531 233.965 262.832C233.246 262.119 232.684 261.261 232.279 260.26C231.874 259.245 231.67 258.121 231.665 256.89C231.658 255.199 231.989 253.687 232.657 252.352C233.34 251.004 234.245 249.861 235.373 248.926C236.515 247.976 237.823 247.248 239.296 246.741C240.769 246.234 242.294 245.978 243.869 245.972C244.571 245.969 245.294 245.995 246.039 246.049C246.784 246.089 247.522 246.173 248.253 246.299C248.999 246.425 249.723 246.587 250.425 246.784C251.128 246.982 251.795 247.23 252.426 247.529L251.643 256.254C250.668 255.929 249.643 255.661 248.568 255.45C247.507 255.225 246.468 255.114 245.451 255.118C245.265 255.119 245.021 255.127 244.721 255.142C244.434 255.143 244.126 255.166 243.797 255.21C243.482 255.24 243.16 255.291 242.831 255.364C242.502 255.437 242.209 255.539 241.951 255.669C241.694 255.784 241.487 255.942 241.33 256.144C241.173 256.345 241.103 256.581 241.118 256.853C241.133 257.168 241.249 257.411 241.464 257.582C241.694 257.753 241.981 257.881 242.325 257.966C242.684 258.036 243.07 258.07 243.486 258.069C243.916 258.067 244.338 258.058 244.753 258.043C245.169 258.012 245.555 257.989 245.913 257.974C246.271 257.944 246.565 257.935 246.794 257.949C247.94 258.016 248.972 258.256 249.891 258.667C250.809 259.079 251.584 259.628 252.217 260.313C252.864 260.998 253.354 261.82 253.688 262.778C254.035 263.722 254.211 264.767 254.215 265.913ZM290.577 274.926L279.927 276.342L278.619 271.491L273.72 271.51L272.665 276.369L261.704 275.337L270.145 246.687L282.088 246.04L290.577 274.926ZM277.82 264.92L276.159 257.45L274.598 264.932L277.82 264.92ZM317.974 265.282L317.108 274.824L299.024 276.312L299.594 245.629L310.765 245.587L309.251 265.315L317.974 265.282ZM351.077 259.183C351.082 260.429 351 261.675 350.833 262.922C348.385 263.089 345.951 263.356 343.532 263.723C341.112 264.076 338.693 264.429 336.274 264.782C336.65 265.812 337.234 266.633 338.024 267.246C338.828 267.859 339.782 268.163 340.885 268.159C341.458 268.157 342.08 268.047 342.753 267.83C343.439 267.612 344.119 267.345 344.79 267.027C345.462 266.695 346.106 266.342 346.72 265.967C347.334 265.592 347.863 265.253 348.306 264.951L347.312 274.709C346.755 275.141 346.148 275.508 345.49 275.811C344.847 276.115 344.174 276.361 343.473 276.55C342.772 276.739 342.064 276.877 341.348 276.966C340.632 277.055 339.931 277.1 339.243 277.103C337.825 277.108 336.528 276.92 335.352 276.538C334.176 276.156 333.107 275.623 332.145 274.939C331.197 274.241 330.363 273.42 329.643 272.478C328.923 271.535 328.325 270.506 327.848 269.391C327.371 268.275 327.009 267.095 326.76 265.85C326.512 264.605 326.386 263.345 326.381 262.07C326.376 260.738 326.492 259.406 326.731 258.073C326.969 256.74 327.329 255.456 327.812 254.223C328.308 252.989 328.927 251.848 329.668 250.8C330.423 249.737 331.3 248.81 332.3 248.018C333.299 247.226 334.428 246.606 335.687 246.157C336.96 245.708 338.363 245.481 339.895 245.475C341.17 245.47 342.331 245.645 343.378 245.999C344.439 246.339 345.379 246.822 346.198 247.449C347.031 248.062 347.75 248.797 348.355 249.654C348.974 250.511 349.479 251.454 349.87 252.484C350.275 253.499 350.572 254.58 350.763 255.725C350.968 256.855 351.072 258.008 351.077 259.183ZM342.479 258.098C342.477 257.697 342.433 257.289 342.345 256.874C342.258 256.445 342.113 256.059 341.911 255.716C341.724 255.373 341.472 255.094 341.156 254.881C340.84 254.653 340.446 254.54 339.973 254.541C339.4 254.544 338.892 254.703 338.45 255.02C338.021 255.322 337.65 255.71 337.337 256.184C337.023 256.644 336.768 257.146 336.569 257.691C336.371 258.236 336.222 258.738 336.124 259.197L342.481 258.571L342.479 258.098ZM386.802 259.604C386.805 260.306 386.671 260.966 386.401 261.583C386.146 262.199 385.79 262.738 385.333 263.198C384.877 263.658 384.341 264.025 383.726 264.3C383.111 264.56 382.453 264.691 381.751 264.694C381.064 264.697 380.412 264.57 379.795 264.315C379.192 264.045 378.661 263.682 378.201 263.225C377.741 262.769 377.373 262.233 377.099 261.618C376.839 261.003 376.707 260.345 376.705 259.643C376.702 258.941 376.828 258.282 377.084 257.665C377.353 257.048 377.717 256.51 378.173 256.05C378.63 255.589 379.158 255.229 379.759 254.969C380.374 254.695 381.025 254.556 381.712 254.554C382.414 254.551 383.074 254.684 383.691 254.954C384.307 255.21 384.846 255.566 385.306 256.022C385.766 256.479 386.126 257.015 386.386 257.629C386.661 258.244 386.799 258.903 386.802 259.604ZM428.165 245.352L427.035 275.908L417.667 275.514L418.105 255.188L414.676 257.564L411.425 250.229L418.409 244.96L428.165 245.352ZM464.573 260.725C464.578 261.985 464.439 263.239 464.157 264.486C463.89 265.733 463.494 266.931 462.968 268.079C462.442 269.226 461.795 270.296 461.025 271.287C460.27 272.278 459.399 273.141 458.414 273.875C457.429 274.61 456.342 275.187 455.155 275.607C453.982 276.026 452.715 276.239 451.355 276.244C449.98 276.249 448.697 276.047 447.507 275.636C446.316 275.225 445.225 274.656 444.234 273.93C443.258 273.203 442.381 272.347 441.603 271.362C440.826 270.376 440.17 269.312 439.636 268.168C439.102 267.024 438.689 265.83 438.398 264.585C438.121 263.325 437.98 262.073 437.975 260.827C437.97 259.58 438.102 258.327 438.369 257.065C438.651 255.804 439.054 254.599 439.58 253.451C440.105 252.303 440.753 251.234 441.523 250.243C442.292 249.237 443.163 248.367 444.134 247.633C445.119 246.899 446.206 246.322 447.393 245.902C448.594 245.482 449.875 245.269 451.236 245.264C452.597 245.259 453.865 245.462 455.041 245.872C456.232 246.283 457.322 246.852 458.313 247.579C459.304 248.305 460.181 249.169 460.944 250.168C461.722 251.154 462.377 252.218 462.912 253.362C463.446 254.506 463.852 255.707 464.129 256.967C464.42 258.226 464.568 259.479 464.573 260.725ZM455.509 261.404C455.506 260.774 455.418 260.072 455.243 259.3C455.068 258.527 454.8 257.804 454.44 257.133C454.079 256.461 453.619 255.897 453.058 255.441C452.498 254.984 451.831 254.758 451.058 254.761C450.27 254.764 449.598 254.996 449.041 255.456C448.484 255.917 448.021 256.484 447.651 257.159C447.295 257.833 447.033 258.557 446.864 259.332C446.695 260.106 446.612 260.808 446.614 261.438C446.617 262.068 446.705 262.77 446.88 263.542C447.055 264.315 447.323 265.038 447.683 265.709C448.058 266.381 448.526 266.945 449.086 267.401C449.647 267.857 450.321 268.084 451.109 268.081C451.882 268.078 452.547 267.846 453.104 267.386C453.661 266.925 454.117 266.358 454.472 265.683C454.828 265.009 455.09 264.285 455.259 263.51C455.428 262.736 455.511 262.034 455.509 261.404ZM500.556 260.587C500.561 261.847 500.423 263.101 500.141 264.348C499.874 265.596 499.477 266.793 498.951 267.941C498.426 269.089 497.778 270.158 497.009 271.15C496.253 272.141 495.383 273.003 494.397 273.738C493.412 274.472 492.326 275.049 491.138 275.469C489.966 275.889 488.699 276.101 487.338 276.107C485.963 276.112 484.68 275.909 483.49 275.498C482.3 275.087 481.209 274.519 480.218 273.792C479.241 273.065 478.364 272.209 477.587 271.224C476.81 270.239 476.154 269.174 475.62 268.03C475.085 266.886 474.673 265.692 474.381 264.447C474.104 263.188 473.963 261.935 473.959 260.689C473.954 259.443 474.085 258.189 474.353 256.928C474.634 255.666 475.038 254.461 475.563 253.314C476.089 252.166 476.736 251.096 477.506 250.105C478.276 249.099 479.146 248.229 480.117 247.495C481.103 246.761 482.189 246.184 483.376 245.764C484.578 245.344 485.859 245.131 487.22 245.126C488.58 245.121 489.849 245.324 491.025 245.735C492.215 246.146 493.306 246.714 494.297 247.441C495.288 248.168 496.165 249.031 496.928 250.031C497.705 251.016 498.361 252.08 498.895 253.224C499.43 254.368 499.835 255.57 500.112 256.829C500.403 258.088 500.551 259.341 500.556 260.587ZM491.492 261.266C491.49 260.636 491.401 259.935 491.226 259.162C491.052 258.389 490.784 257.667 490.423 256.995C490.063 256.323 489.602 255.759 489.042 255.303C488.481 254.847 487.814 254.62 487.041 254.623C486.253 254.626 485.581 254.858 485.024 255.318C484.467 255.779 484.004 256.346 483.634 257.021C483.279 257.695 483.017 258.42 482.848 259.194C482.679 259.968 482.595 260.67 482.598 261.3C482.6 261.931 482.689 262.632 482.864 263.405C483.039 264.178 483.306 264.9 483.667 265.572C484.042 266.243 484.51 266.807 485.07 267.264C485.63 267.72 486.304 267.946 487.092 267.943C487.865 267.94 488.531 267.709 489.087 267.248C489.644 266.788 490.1 266.22 490.456 265.546C490.811 264.871 491.074 264.147 491.243 263.373C491.411 262.599 491.495 261.896 491.492 261.266ZM540.345 266.665C540.348 267.424 540.193 268.177 539.881 268.923C539.568 269.655 539.113 270.315 538.513 270.905C537.914 271.48 537.185 271.955 536.327 272.331C535.484 272.692 534.525 272.875 533.451 272.879C532.391 272.883 531.43 272.708 530.57 272.353C529.723 271.984 528.998 271.514 528.394 270.943C527.805 270.358 527.351 269.701 527.033 268.972C526.715 268.229 526.555 267.477 526.552 266.718C526.549 265.973 526.704 265.228 527.016 264.482C527.328 263.736 527.777 263.075 528.362 262.5C528.961 261.911 529.683 261.435 530.526 261.074C531.384 260.698 532.343 260.508 533.403 260.504C534.477 260.5 535.438 260.683 536.284 261.052C537.145 261.407 537.877 261.877 538.481 262.461C539.085 263.032 539.546 263.689 539.864 264.433C540.181 265.176 540.342 265.921 540.345 266.665ZM535.489 266.641C535.488 266.412 535.444 266.168 535.357 265.911C535.285 265.639 535.162 265.389 534.989 265.16C534.817 264.918 534.594 264.718 534.321 264.561C534.063 264.405 533.747 264.327 533.375 264.329C533.002 264.33 532.68 264.41 532.409 264.569C532.137 264.727 531.916 264.929 531.745 265.173C531.574 265.403 531.446 265.654 531.361 265.926C531.276 266.184 531.234 266.428 531.235 266.657C531.236 266.886 531.28 267.137 531.367 267.409C531.454 267.666 531.584 267.916 531.757 268.159C531.929 268.388 532.152 268.58 532.425 268.737C532.698 268.893 533.02 268.971 533.393 268.969C533.765 268.968 534.08 268.888 534.337 268.729C534.609 268.571 534.83 268.377 535.001 268.147C535.172 267.903 535.292 267.651 535.363 267.393C535.448 267.121 535.49 266.87 535.489 266.641ZM523.976 256.072C523.979 256.831 523.824 257.583 523.512 258.329C523.2 259.061 522.744 259.722 522.145 260.311C521.545 260.886 520.816 261.362 519.959 261.737C519.115 262.099 518.156 262.281 517.082 262.286C516.022 262.29 515.062 262.114 514.201 261.759C513.354 261.39 512.629 260.92 512.025 260.35C511.436 259.765 510.982 259.108 510.664 258.378C510.346 257.635 510.186 256.884 510.183 256.124C510.18 255.38 510.335 254.634 510.647 253.888C510.959 253.142 511.408 252.482 511.993 251.907C512.592 251.317 513.314 250.842 514.158 250.48C515.016 250.105 515.974 249.915 517.034 249.911C518.109 249.907 519.069 250.089 519.915 250.458C520.776 250.813 521.508 251.283 522.112 251.868C522.716 252.438 523.177 253.095 523.495 253.839C523.813 254.583 523.973 255.327 523.976 256.072ZM519.12 256.047C519.119 255.818 519.076 255.575 518.989 255.317C518.916 255.045 518.793 254.795 518.621 254.567C518.448 254.324 518.225 254.124 517.952 253.968C517.694 253.811 517.378 253.734 517.006 253.735C516.634 253.736 516.312 253.816 516.04 253.975C515.769 254.134 515.547 254.335 515.376 254.579C515.205 254.809 515.077 255.06 514.993 255.333C514.908 255.591 514.866 255.834 514.866 256.064C514.867 256.293 514.911 256.543 514.998 256.815C515.085 257.072 515.215 257.323 515.388 257.565C515.561 257.794 515.783 257.986 516.056 258.143C516.329 258.299 516.651 258.377 517.024 258.376C517.396 258.374 517.711 258.294 517.968 258.136C518.24 257.977 518.461 257.783 518.632 257.553C518.803 257.309 518.924 257.058 518.994 256.8C519.079 256.527 519.121 256.276 519.12 256.047ZM532.543 249.121C530.725 253.124 529.036 257.198 527.477 261.343C525.931 265.474 524.486 269.648 523.142 273.864L518.667 272.248C519.504 270.168 520.334 268.095 521.157 266.03C521.994 263.95 522.845 261.884 523.711 259.832C524.591 257.781 525.5 255.751 526.438 253.742C527.375 251.719 528.377 249.724 529.444 247.758L532.543 249.121ZM589.209 264.631C589.217 266.593 588.879 268.291 588.197 269.726C587.53 271.147 586.603 272.325 585.418 273.26C584.247 274.182 582.867 274.867 581.279 275.317C579.705 275.753 578.009 275.974 576.19 275.981C575.488 275.984 574.714 275.894 573.869 275.711C573.037 275.528 572.191 275.302 571.331 275.033C570.47 274.75 569.638 274.452 568.835 274.14C568.046 273.814 567.343 273.509 566.726 273.225L567.639 264.799C568.86 265.525 570.208 266.078 571.685 266.459C573.176 266.826 574.637 267.007 576.07 267.001C576.342 267 576.671 266.992 577.058 266.976C577.444 266.946 577.809 266.88 578.153 266.778C578.51 266.662 578.811 266.497 579.053 266.281C579.296 266.065 579.416 265.757 579.415 265.356C579.414 265.083 579.327 264.855 579.154 264.669C578.982 264.469 578.759 264.313 578.487 264.199C578.214 264.071 577.906 263.979 577.562 263.923C577.218 263.853 576.881 263.804 576.551 263.777C576.222 263.749 575.914 263.736 575.627 263.737C575.341 263.738 575.112 263.739 574.94 263.74C573.708 263.745 572.583 263.556 571.565 263.173C570.561 262.79 569.692 262.249 568.959 261.55C568.24 260.836 567.678 259.979 567.273 258.978C566.868 257.963 566.664 256.839 566.659 255.607C566.652 253.917 566.983 252.405 567.651 251.07C568.334 249.721 569.239 248.579 570.367 247.644C571.509 246.694 572.817 245.966 574.29 245.459C575.763 244.952 577.288 244.696 578.863 244.69C579.565 244.687 580.288 244.713 581.033 244.767C581.778 244.807 582.516 244.89 583.247 245.017C583.993 245.143 584.716 245.305 585.419 245.502C586.122 245.7 586.789 245.948 587.42 246.247L586.637 254.972C585.662 254.647 584.637 254.379 583.562 254.168C582.501 253.943 581.462 253.832 580.445 253.836C580.259 253.837 580.015 253.845 579.715 253.86C579.428 253.861 579.12 253.884 578.791 253.928C578.476 253.958 578.154 254.009 577.825 254.082C577.496 254.155 577.203 254.257 576.945 254.386C576.688 254.502 576.481 254.66 576.324 254.862C576.167 255.063 576.096 255.299 576.112 255.571C576.127 255.886 576.243 256.129 576.458 256.3C576.688 256.471 576.975 256.599 577.319 256.684C577.678 256.754 578.064 256.788 578.48 256.787C578.909 256.785 579.332 256.776 579.747 256.761C580.163 256.73 580.549 256.707 580.907 256.692C581.265 256.662 581.559 256.653 581.788 256.667C582.934 256.734 583.966 256.974 584.884 257.385C585.803 257.797 586.578 258.346 587.211 259.031C587.858 259.716 588.348 260.538 588.681 261.496C589.029 262.44 589.205 263.485 589.209 264.631ZM624.281 245.246C623.656 250.29 623.124 255.313 622.684 260.313C622.245 265.299 621.827 270.321 621.431 275.378L612.625 276.057L612.999 272.747C612.714 273.077 612.379 273.365 611.993 273.61C611.622 273.855 611.221 274.057 610.792 274.216C610.363 274.361 609.919 274.47 609.461 274.543C609.003 274.602 608.567 274.626 608.151 274.613C607.177 274.602 606.26 274.42 605.399 274.065C604.538 273.696 603.749 273.212 603.03 272.613C602.312 272 601.664 271.293 601.088 270.493C600.512 269.679 600.022 268.829 599.618 267.942C599.228 267.042 598.923 266.126 598.705 265.196C598.501 264.266 598.397 263.364 598.394 262.49C598.389 261.201 598.405 259.869 598.443 258.494C598.495 257.104 598.583 255.714 598.706 254.325C598.83 252.935 598.989 251.559 599.185 250.198C599.394 248.836 599.654 247.532 599.965 246.285C601.712 246.364 603.467 246.436 605.229 246.501C606.991 246.566 608.746 246.58 610.493 246.545C610.168 247.792 609.844 249.047 609.519 250.309C609.209 251.556 608.927 252.817 608.674 254.093C608.421 255.355 608.218 256.623 608.066 257.898C607.913 259.174 607.839 260.463 607.844 261.766C607.845 262.067 607.861 262.497 607.892 263.055C607.923 263.614 607.997 264.165 608.113 264.709C608.244 265.252 608.432 265.732 608.677 266.146C608.937 266.546 609.295 266.745 609.754 266.743C610.298 266.741 610.784 266.51 611.212 266.05C611.64 265.576 612.017 264.944 612.344 264.155C612.67 263.366 612.946 262.456 613.171 261.424C613.411 260.391 613.607 259.317 613.76 258.199C613.928 257.067 614.059 255.927 614.155 254.781C614.251 253.635 614.319 252.56 614.358 251.558C614.411 250.541 614.444 249.631 614.455 248.829C614.48 248.027 614.492 247.404 614.491 246.96C614.49 246.673 614.481 246.394 614.466 246.122C614.451 245.85 614.428 245.57 614.398 245.284C615.329 245.309 616.253 245.327 617.17 245.338C618.087 245.349 619.011 245.352 619.942 245.349C620.658 245.346 621.374 245.343 622.09 245.341C622.82 245.323 623.551 245.292 624.281 245.246ZM658.779 255.556C658.784 256.945 658.581 258.178 658.17 259.253C657.759 260.329 657.19 261.277 656.462 262.096C655.749 262.901 654.907 263.584 653.935 264.147C652.963 264.695 651.919 265.15 650.803 265.512C649.702 265.86 648.557 266.122 647.369 266.299C646.181 266.461 645.014 266.551 643.868 266.57L643.903 275.722L633.891 275.76C633.885 274.128 633.879 272.538 633.873 270.991C633.882 269.444 633.883 267.912 633.877 266.393C633.885 264.861 633.887 263.321 633.881 261.774C633.889 260.227 633.897 258.63 633.905 256.983C633.927 255.235 633.928 253.488 633.907 251.741C633.886 249.993 633.915 248.232 633.994 246.455C635.825 245.904 637.657 245.489 639.489 245.21C641.322 244.93 643.212 244.787 645.16 244.78C646.262 244.775 647.366 244.864 648.469 245.046C649.573 245.214 650.627 245.489 651.631 245.872C652.649 246.255 653.589 246.738 654.451 247.322C655.327 247.892 656.081 248.576 656.714 249.376C657.348 250.176 657.845 251.091 658.207 252.12C658.584 253.15 658.774 254.295 658.779 255.556ZM649.243 256.323C649.239 255.392 648.95 254.669 648.375 254.156C647.815 253.628 647.083 253.366 646.181 253.37C645.88 253.371 645.565 253.401 645.236 253.459C644.921 253.503 644.62 253.562 644.334 253.634L644.1 259.909C644.301 259.937 644.494 259.95 644.681 259.95C644.867 259.949 645.06 259.948 645.261 259.947C645.776 259.945 646.27 259.858 646.742 259.684C647.228 259.51 647.657 259.265 648.028 258.948C648.399 258.618 648.692 258.237 648.905 257.806C649.132 257.362 649.245 256.867 649.243 256.323ZM693.173 255.424C693.178 256.813 692.975 258.046 692.564 259.122C692.153 260.198 691.583 261.145 690.856 261.964C690.143 262.769 689.3 263.453 688.329 264.015C687.357 264.563 686.313 265.018 685.197 265.38C684.096 265.728 682.951 265.991 681.763 266.167C680.574 266.329 679.407 266.42 678.262 266.438L678.297 275.591L668.285 275.629C668.279 273.996 668.273 272.406 668.267 270.859C668.275 269.312 668.277 267.78 668.271 266.262C668.279 264.729 668.28 263.189 668.275 261.642C668.283 260.096 668.291 258.499 668.299 256.851C668.321 255.104 668.322 253.356 668.301 251.609C668.28 249.862 668.309 248.1 668.388 246.324C670.219 245.772 672.051 245.357 673.883 245.078C675.715 244.799 677.605 244.655 679.553 244.648C680.656 244.644 681.759 244.733 682.863 244.915C683.966 245.082 685.02 245.358 686.024 245.74C687.043 246.123 687.983 246.607 688.844 247.191C689.72 247.76 690.475 248.445 691.108 249.244C691.741 250.044 692.239 250.959 692.601 251.989C692.977 253.019 693.168 254.164 693.173 255.424ZM683.637 256.191C683.633 255.26 683.344 254.538 682.769 254.024C682.208 253.497 681.477 253.234 680.574 253.238C680.274 253.239 679.959 253.269 679.629 253.327C679.315 253.372 679.014 253.43 678.728 253.503L678.494 259.777C678.695 259.805 678.888 259.819 679.074 259.818C679.26 259.817 679.454 259.816 679.654 259.816C680.17 259.814 680.664 259.726 681.136 259.552C681.622 259.378 682.051 259.133 682.422 258.817C682.793 258.486 683.085 258.105 683.299 257.675C683.526 257.23 683.639 256.735 683.637 256.191ZM721.411 263.738L720.545 273.28L702.461 274.768L703.031 244.085L714.203 244.043L712.689 263.771L721.411 263.738ZM753.546 245.912L743.511 262.45L743.859 274.609L732.816 274.651L733.027 262.576L725.103 246.665L736.055 245.248L739.528 254.516L743.23 245.221L753.546 245.912ZM157.072 339.437L146.421 340.853L145.113 336.003L140.215 336.021L139.159 340.881L128.198 339.849L136.639 311.199L148.582 310.552L157.072 339.437ZM144.315 329.431L142.653 321.961L141.092 329.444L144.315 329.431ZM184.468 329.793L183.602 339.336L165.518 340.823L166.088 310.141L177.26 310.098L175.746 329.827L184.468 329.793ZM212.46 329.686L211.594 339.229L193.509 340.716L194.08 310.034L205.251 309.991L203.737 329.72L212.46 329.686ZM248.144 324.479C248.149 325.783 248.004 327.044 247.708 328.262C247.411 329.467 246.979 330.6 246.41 331.662C245.856 332.724 245.172 333.7 244.359 334.592C243.56 335.468 242.653 336.224 241.639 336.858C240.639 337.492 239.545 337.99 238.357 338.353C237.17 338.701 235.91 338.878 234.578 338.883C233.289 338.888 232.057 338.728 230.881 338.403C229.72 338.078 228.629 337.624 227.61 337.04C226.591 336.443 225.664 335.73 224.831 334.903C224.011 334.061 223.306 333.132 222.714 332.118C222.138 331.089 221.682 329.987 221.348 328.814C221.029 327.641 220.866 326.417 220.862 325.142C220.857 323.896 221.002 322.678 221.299 321.488C221.595 320.284 222.02 319.151 222.575 318.089C223.144 317.027 223.827 316.05 224.626 315.159C225.425 314.268 226.317 313.498 227.303 312.85C228.303 312.202 229.382 311.696 230.541 311.334C231.7 310.971 232.924 310.787 234.213 310.783C236.29 310.775 238.182 311.09 239.888 311.728C241.61 312.366 243.074 313.284 244.282 314.482C245.504 315.666 246.447 317.109 247.113 318.811C247.792 320.499 248.136 322.388 248.144 324.479ZM238.607 325.074C238.605 324.459 238.51 323.864 238.321 323.292C238.147 322.706 237.887 322.191 237.542 321.748C237.196 321.291 236.765 320.928 236.249 320.658C235.746 320.373 235.166 320.232 234.507 320.235C233.834 320.237 233.233 320.361 232.704 320.607C232.175 320.852 231.718 321.191 231.332 321.622C230.962 322.039 230.677 322.534 230.479 323.107C230.28 323.667 230.182 324.262 230.185 324.892C230.187 325.493 230.275 326.095 230.45 326.695C230.624 327.296 230.884 327.84 231.229 328.325C231.575 328.811 231.999 329.203 232.501 329.502C233.018 329.801 233.613 329.949 234.286 329.946C234.959 329.944 235.56 329.813 236.089 329.553C236.633 329.279 237.09 328.919 237.46 328.473C237.831 328.014 238.115 327.49 238.314 326.902C238.512 326.314 238.61 325.705 238.607 325.074ZM278.235 311.473L277.496 320.543C277.08 320.43 276.672 320.353 276.271 320.311C275.869 320.27 275.461 320.25 275.046 320.251C274.029 320.255 273.055 320.388 272.125 320.649C271.21 320.911 270.395 321.308 269.681 321.84C268.981 322.373 268.418 323.048 267.991 323.866C267.579 324.67 267.375 325.623 267.379 326.726C267.382 327.528 267.499 328.229 267.731 328.83C267.977 329.416 268.315 329.909 268.746 330.309C269.192 330.694 269.723 330.985 270.339 331.183C270.97 331.382 271.665 331.479 272.425 331.476C272.954 331.474 273.499 331.422 274.057 331.32C274.615 331.203 275.173 331.05 275.731 330.862C276.289 330.674 276.825 330.457 277.34 330.211C277.854 329.966 278.333 329.706 278.776 329.432L278.471 339.531C277.914 339.82 277.313 340.08 276.669 340.312C276.026 340.529 275.36 340.718 274.673 340.878C274.001 341.052 273.321 341.184 272.634 341.272C271.961 341.361 271.317 341.406 270.701 341.409C268.667 341.416 266.811 341.044 265.132 340.291C263.468 339.539 262.031 338.513 260.823 337.214C259.63 335.901 258.7 334.379 258.034 332.649C257.369 330.918 257.032 329.072 257.025 327.109C257.016 324.76 257.337 322.568 257.988 320.531C258.653 318.495 259.628 316.73 260.911 315.235C262.209 313.726 263.808 312.546 265.71 311.693C267.626 310.827 269.823 310.388 272.301 310.379C273.289 310.375 274.292 310.45 275.31 310.604C276.327 310.757 277.302 311.047 278.235 311.473ZM315.634 338.83L304.983 340.246L303.675 335.396L298.777 335.415L297.721 340.274L286.76 339.242L295.202 310.592L307.145 309.945L315.634 338.83ZM302.877 328.825L301.215 321.354L299.654 328.837L302.877 328.825ZM344.204 310.276L344.024 319.386L337.623 319.668L336.926 339.608L327.861 340.116L326.968 320.182L320.567 320.55L320.786 310.408L344.204 310.276ZM377.165 323.083C377.17 324.329 377.088 325.576 376.921 326.822C374.473 326.989 372.039 327.256 369.62 327.624C367.2 327.977 364.781 328.33 362.362 328.683C362.738 329.713 363.321 330.534 364.112 331.147C364.916 331.76 365.87 332.064 366.972 332.06C367.545 332.058 368.168 331.948 368.84 331.73C369.527 331.513 370.206 331.245 370.878 330.928C371.55 330.596 372.193 330.242 372.808 329.867C373.422 329.493 373.951 329.154 374.394 328.852L373.4 338.609C372.843 339.041 372.236 339.409 371.578 339.712C370.935 340.015 370.262 340.261 369.561 340.45C368.86 340.639 368.152 340.778 367.436 340.867C366.72 340.955 366.018 341.001 365.331 341.004C363.913 341.009 362.616 340.821 361.44 340.438C360.264 340.056 359.195 339.523 358.233 338.839C357.285 338.141 356.451 337.321 355.731 336.378C355.011 335.436 354.413 334.407 353.936 333.291C353.459 332.176 353.097 330.996 352.848 329.75C352.6 328.505 352.473 327.245 352.469 325.971C352.464 324.639 352.58 323.306 352.819 321.973C353.057 320.64 353.417 319.357 353.9 318.123C354.396 316.89 355.015 315.749 355.756 314.7C356.511 313.637 357.388 312.71 358.388 311.919C359.387 311.127 360.516 310.507 361.775 310.058C363.048 309.609 364.451 309.382 365.983 309.376C367.258 309.371 368.419 309.546 369.466 309.9C370.527 310.239 371.467 310.723 372.286 311.35C373.119 311.963 373.838 312.697 374.443 313.554C375.062 314.411 375.567 315.355 375.957 316.385C376.362 317.4 376.66 318.48 376.851 319.625C377.056 320.756 377.16 321.909 377.165 323.083ZM368.567 321.999C368.565 321.598 368.521 321.19 368.433 320.775C368.346 320.345 368.201 319.959 367.999 319.616C367.812 319.273 367.56 318.995 367.244 318.781C366.928 318.553 366.534 318.44 366.061 318.442C365.488 318.444 364.98 318.604 364.537 318.921C364.109 319.223 363.738 319.611 363.425 320.085C363.111 320.544 362.855 321.047 362.657 321.592C362.459 322.137 362.31 322.639 362.212 323.097L368.569 322.472L368.567 321.999ZM411.065 323.254C411.073 325.259 410.822 327.058 410.313 328.65C409.803 330.242 409.085 331.655 408.159 332.89C407.247 334.111 406.155 335.154 404.884 336.018C403.612 336.882 402.219 337.597 400.702 338.161C399.186 338.711 397.569 339.118 395.852 339.383C394.148 339.647 392.394 339.783 390.589 339.79C389.916 339.792 389.257 339.781 388.613 339.754C387.968 339.714 387.309 339.659 386.636 339.59L387.13 311.615C388.704 311.108 390.321 310.751 391.981 310.544C393.656 310.323 395.317 310.209 396.965 310.203C399.013 310.195 400.897 310.474 402.618 311.04C404.339 311.607 405.825 312.446 407.075 313.558C408.325 314.657 409.297 316.021 409.991 317.651C410.699 319.267 411.057 321.134 411.065 323.254ZM396.488 331.56C397.347 331.428 398.126 331.167 398.827 330.778C399.541 330.374 400.155 329.885 400.669 329.31C401.182 328.72 401.573 328.06 401.843 327.329C402.126 326.583 402.266 325.794 402.263 324.964C402.26 324.147 402.171 323.389 401.997 322.687C401.822 321.972 401.541 321.357 401.152 320.843C400.763 320.314 400.253 319.901 399.622 319.603C398.99 319.29 398.216 319.121 397.299 319.096L396.488 331.56ZM457.565 309.584C457.484 310.931 457.41 312.263 457.344 313.581C457.277 314.899 457.189 316.231 457.08 317.578L447.972 318.086L447.983 320.793L455.889 320.762L455.485 327.424L447.966 327.668L448.054 339.527L437.184 339.783L437.756 309.66L457.565 309.584ZM493.044 323.542C493.049 324.845 492.903 326.106 492.607 327.325C492.311 328.529 491.878 329.662 491.31 330.725C490.755 331.787 490.071 332.763 489.258 333.654C488.46 334.531 487.553 335.286 486.538 335.921C485.538 336.555 484.444 337.053 483.257 337.416C482.069 337.764 480.81 337.941 479.478 337.946C478.189 337.951 476.956 337.791 475.781 337.466C474.619 337.141 473.529 336.686 472.51 336.103C471.49 335.505 470.564 334.793 469.73 333.965C468.91 333.123 468.205 332.195 467.614 331.18C467.037 330.151 466.582 329.05 466.248 327.877C465.928 326.704 465.766 325.48 465.761 324.205C465.756 322.959 465.902 321.741 466.198 320.551C466.494 319.347 466.92 318.214 467.474 317.152C468.043 316.089 468.727 315.113 469.526 314.222C470.324 313.331 471.216 312.561 472.202 311.913C473.202 311.264 474.282 310.759 475.441 310.396C476.599 310.034 477.823 309.85 479.112 309.845C481.189 309.837 483.081 310.152 484.788 310.79C486.509 311.428 487.974 312.347 489.181 313.545C490.403 314.729 491.347 316.172 492.012 317.874C492.692 319.562 493.036 321.451 493.044 323.542ZM483.507 324.137C483.505 323.521 483.409 322.927 483.221 322.355C483.047 321.768 482.787 321.254 482.441 320.811C482.096 320.354 481.665 319.991 481.148 319.72C480.646 319.436 480.065 319.295 479.406 319.297C478.733 319.3 478.132 319.424 477.603 319.669C477.074 319.915 476.617 320.253 476.232 320.684C475.861 321.101 475.577 321.597 475.378 322.17C475.18 322.73 475.082 323.324 475.084 323.955C475.087 324.556 475.175 325.157 475.349 325.758C475.523 326.359 475.783 326.902 476.129 327.388C476.474 327.874 476.898 328.266 477.401 328.565C477.918 328.864 478.513 329.012 479.186 329.009C479.859 329.007 480.46 328.875 480.989 328.616C481.532 328.341 481.989 327.982 482.36 327.536C482.73 327.076 483.015 326.552 483.213 325.964C483.411 325.376 483.509 324.767 483.507 324.137ZM527.851 319.155C527.855 320.272 527.759 321.289 527.562 322.207C527.379 323.11 527.081 323.942 526.669 324.702C526.256 325.463 525.722 326.167 525.066 326.814C524.409 327.461 523.617 328.08 522.688 328.671L527.836 337.761L518.175 339.688L514.832 330.549L512.168 330.645L511.816 339.584L502.577 339.619C502.637 336.353 502.689 333.102 502.733 329.864C502.793 326.627 502.859 323.376 502.932 320.11C502.955 318.462 502.977 316.83 503 315.211C503.022 313.592 503.073 311.959 503.153 310.312C504.154 309.936 505.141 309.624 506.114 309.377C507.087 309.129 508.06 308.94 509.034 308.807C510.021 308.66 511.017 308.563 512.019 308.516C513.036 308.455 514.074 308.422 515.134 308.418C516.767 308.412 518.343 308.635 519.863 309.088C521.397 309.526 522.753 310.194 523.931 311.092C525.109 311.99 526.052 313.11 526.759 314.454C527.48 315.798 527.844 317.365 527.851 319.155ZM518.229 319.879C518.226 319.278 518.138 318.727 517.964 318.226C517.805 317.725 517.56 317.296 517.229 316.94C516.912 316.568 516.51 316.284 516.023 316.085C515.549 315.872 514.99 315.767 514.346 315.769C514.059 315.77 513.78 315.793 513.508 315.837C513.236 315.866 512.971 315.918 512.714 315.99L512.4 323.984L512.916 323.982C513.532 323.979 514.155 323.898 514.784 323.738C515.428 323.578 516 323.332 516.5 323.001C517.015 322.67 517.428 322.246 517.741 321.729C518.069 321.212 518.231 320.595 518.229 319.879ZM573.145 327.446L572.279 336.989L554.195 338.476C554.262 333.477 554.336 328.507 554.417 323.565C554.513 318.623 554.63 313.653 554.769 308.653L565.94 308.611C565.623 311.749 565.32 314.886 565.031 318.024C564.742 321.148 564.539 324.3 564.423 327.48C565.096 327.506 565.762 327.518 566.421 327.515C567.08 327.513 567.746 327.51 568.419 327.508C569.221 327.504 570.009 327.494 570.782 327.477C571.556 327.46 572.343 327.45 573.145 327.446ZM607.292 318.894C607.297 320.283 607.094 321.516 606.683 322.592C606.272 323.667 605.702 324.608 604.975 325.413C604.262 326.217 603.42 326.901 602.448 327.463C601.476 328.026 600.432 328.488 599.316 328.85C598.215 329.198 597.07 329.46 595.882 329.637C594.694 329.799 593.527 329.889 592.381 329.908L592.419 339.92L582.407 339.958C582.395 336.678 582.39 333.412 582.391 330.161C582.393 326.91 582.402 323.63 582.418 320.321C582.44 318.574 582.441 316.826 582.42 315.079C582.399 313.332 582.428 311.57 582.507 309.793C584.338 309.242 586.17 308.827 588.002 308.548C589.834 308.269 591.725 308.125 593.672 308.118C594.775 308.114 595.879 308.202 596.982 308.384C598.086 308.552 599.139 308.827 600.143 309.21C601.162 309.593 602.102 310.076 602.963 310.66C603.839 311.23 604.594 311.915 605.227 312.714C605.861 313.514 606.358 314.429 606.72 315.459C607.096 316.474 607.287 317.619 607.292 318.894ZM597.756 319.661C597.752 318.73 597.463 318.008 596.888 317.494C596.327 316.966 595.596 316.704 594.694 316.708C594.393 316.709 594.078 316.739 593.749 316.797C593.434 316.841 593.133 316.9 592.847 316.973L592.613 323.247C592.814 323.275 593.007 323.288 593.193 323.288C593.38 323.287 593.573 323.286 593.773 323.285C594.289 323.283 594.783 323.196 595.255 323.022C595.741 322.848 596.17 322.603 596.541 322.287C596.912 321.956 597.204 321.575 597.418 321.145C597.645 320.7 597.758 320.205 597.756 319.661Z" fill="#06191D"/>
</svg>
